<svg width="154" height="39" viewBox="0 0 154 39" fill="none" xmlns="http://www.w3.org/2000/svg">
<path d="M53.05 13.65V16H60.025V18.675H53.05V20.975C53.05 21.475 53.0833 21.9417 53.15 22.375C53.2333 22.8083 53.3667 23.1917 53.55 23.525C53.7333 23.8417 53.9833 24.0917 54.3 24.275C54.6167 24.4583 55.025 24.55 55.525 24.55C56.2417 24.55 56.8333 24.325 57.3 23.875C57.7833 23.425 58.1417 22.8333 58.375 22.1L60.7 23.3C60.2167 24.5833 59.525 25.5583 58.625 26.225C57.725 26.8917 56.7 27.225 55.55 27.225C53.7 27.225 52.3333 26.675 51.45 25.575C50.5667 24.475 50.125 22.8833 50.125 20.8V13.65H53.05ZM61.9541 21.5C61.9541 20.65 62.1041 19.875 62.4041 19.175C62.7208 18.475 63.1541 17.875 63.7041 17.375C64.2541 16.8583 64.9041 16.4667 65.6541 16.2C66.4041 15.9167 67.2208 15.775 68.1041 15.775C68.9874 15.775 69.8041 15.9167 70.5541 16.2C71.3041 16.4667 71.9541 16.8583 72.5041 17.375C73.0541 17.875 73.4791 18.475 73.7791 19.175C74.0958 19.875 74.2541 20.65 74.2541 21.5C74.2541 22.35 74.0958 23.125 73.7791 23.825C73.4791 24.525 73.0541 25.1333 72.5041 25.65C71.9541 26.15 71.3041 26.5417 70.5541 26.825C69.8041 27.0917 68.9874 27.225 68.1041 27.225C67.2208 27.225 66.4041 27.0917 65.6541 26.825C64.9041 26.5417 64.2541 26.15 63.7041 25.65C63.1541 25.1333 62.7208 24.525 62.4041 23.825C62.1041 23.125 61.9541 22.35 61.9541 21.5ZM71.2791 21.5C71.2791 20.55 70.9708 19.8083 70.3541 19.275C69.7541 18.7417 69.0041 18.475 68.1041 18.475C67.6541 18.475 67.2374 18.5417 66.8541 18.675C66.4708 18.8083 66.1374 19.0083 65.8541 19.275C65.5708 19.525 65.3458 19.8417 65.1791 20.225C65.0124 20.5917 64.9291 21.0167 64.9291 21.5C64.9291 21.9833 65.0124 22.4167 65.1791 22.8C65.3458 23.1667 65.5708 23.4833 65.8541 23.75C66.1374 24 66.4708 24.1917 66.8541 24.325C67.2374 24.4583 67.6541 24.525 68.1041 24.525C69.0041 24.525 69.7541 24.2583 70.3541 23.725C70.9708 23.1917 71.2791 22.45 71.2791 21.5ZM78.9289 30.55H76.0039V22.075C76.0039 21.0083 76.1539 20.0833 76.4539 19.3C76.7706 18.5167 77.1956 17.8667 77.7289 17.35C78.2789 16.8167 78.9289 16.425 79.6789 16.175C80.4289 15.9083 81.2539 15.775 82.1539 15.775C83.0372 15.775 83.8539 15.9083 84.6039 16.175C85.3539 16.4417 85.9956 16.825 86.5289 17.325C87.0789 17.825 87.5039 18.4333 87.8039 19.15C88.1206 19.85 88.2789 20.6333 88.2789 21.5C88.2789 22.3333 88.1289 23.1 87.8289 23.8C87.5456 24.5 87.1372 25.1083 86.6039 25.625C86.0872 26.125 85.4539 26.5167 84.7039 26.8C83.9706 27.0833 83.1622 27.225 82.2789 27.225C81.6789 27.225 81.0706 27.1167 80.4539 26.9C79.8372 26.6667 79.3289 26.3167 78.9289 25.85V30.55ZM85.3039 21.5C85.3039 21.0167 85.2206 20.5917 85.0539 20.225C84.8872 19.8417 84.6622 19.525 84.3789 19.275C84.0956 19.0083 83.7622 18.8083 83.3789 18.675C82.9956 18.5417 82.5872 18.475 82.1539 18.475C81.7039 18.475 81.2872 18.55 80.9039 18.7C80.5206 18.85 80.1789 19.0583 79.8789 19.325C79.5956 19.575 79.3706 19.8917 79.2039 20.275C79.0372 20.6417 78.9539 21.05 78.9539 21.5C78.9539 22 79.0372 22.4417 79.2039 22.825C79.3706 23.2083 79.5956 23.525 79.8789 23.775C80.1789 24.025 80.5206 24.2167 80.9039 24.35C81.2872 24.4667 81.7039 24.525 82.1539 24.525C82.5872 24.525 82.9956 24.4583 83.3789 24.325C83.7622 24.1917 84.0956 24 84.3789 23.75C84.6622 23.4833 84.8872 23.1667 85.0539 22.8C85.2206 22.4167 85.3039 21.9833 85.3039 21.5ZM99.2588 25.85C99.0588 26.0833 98.8255 26.2833 98.5588 26.45C98.2921 26.6167 98.0088 26.7583 97.7088 26.875C97.4088 26.9917 97.1005 27.075 96.7838 27.125C96.4838 27.1917 96.2005 27.225 95.9338 27.225C95.0338 27.225 94.2088 27.0917 93.4588 26.825C92.7255 26.5417 92.0921 26.15 91.5588 25.65C91.0255 25.1333 90.6088 24.525 90.3088 23.825C90.0255 23.125 89.8838 22.35 89.8838 21.5C89.8838 20.6333 90.0421 19.85 90.3588 19.15C90.6755 18.4333 91.1088 17.825 91.6588 17.325C92.2088 16.825 92.8505 16.4417 93.5838 16.175C94.3338 15.9083 95.1421 15.775 96.0088 15.775C96.9088 15.775 97.7338 15.9083 98.4838 16.175C99.2505 16.4417 99.9005 16.8333 100.434 17.35C100.984 17.8667 101.409 18.5083 101.709 19.275C102.009 20.0417 102.159 20.925 102.159 21.925V27H99.2588V25.85ZM92.8588 21.5C92.8588 21.9833 92.9421 22.4167 93.1088 22.8C93.2755 23.1667 93.5005 23.4833 93.7838 23.75C94.0671 24 94.4005 24.1917 94.7838 24.325C95.1671 24.4583 95.5755 24.525 96.0088 24.525C96.4588 24.525 96.8755 24.4667 97.2588 24.35C97.6421 24.2167 97.9755 24.025 98.2588 23.775C98.5588 23.525 98.7921 23.2083 98.9588 22.825C99.1255 22.4417 99.2088 22 99.2088 21.5C99.2088 21.05 99.1255 20.6417 98.9588 20.275C98.7921 19.8917 98.5588 19.575 98.2588 19.325C97.9755 19.0583 97.6421 18.85 97.2588 18.7C96.8755 18.55 96.4588 18.475 96.0088 18.475C95.5755 18.475 95.1671 18.5417 94.7838 18.675C94.4005 18.8083 94.0671 19.0083 93.7838 19.275C93.5005 19.525 93.2755 19.8417 93.1088 20.225C92.9421 20.5917 92.8588 21.0167 92.8588 21.5ZM109.928 27.225C109.012 26.975 108.187 26.6167 107.453 26.15C106.737 25.6833 106.12 25.1417 105.603 24.525C105.103 23.8917 104.712 23.2 104.428 22.45C104.162 21.6833 104.028 20.9 104.028 20.1V16H106.953V20.1C106.953 20.5667 107.028 21.025 107.178 21.475C107.328 21.9083 107.528 22.3167 107.778 22.7C108.045 23.0833 108.362 23.425 108.728 23.725C109.095 24.0083 109.495 24.2333 109.928 24.4C110.362 24.25 110.762 24.0333 111.128 23.75C111.495 23.45 111.812 23.1083 112.078 22.725C112.345 22.3417 112.553 21.925 112.703 21.475C112.853 21.025 112.928 20.5667 112.928 20.1V16H115.853V20.1C115.853 20.9 115.72 21.675 115.453 22.425C115.187 23.175 114.795 23.8667 114.278 24.5C113.762 25.1333 113.137 25.6833 112.403 26.15C111.67 26.6167 110.845 26.975 109.928 27.225ZM120.897 13.65V16H127.872V18.675H120.897V20.975C120.897 21.475 120.93 21.9417 120.997 22.375C121.08 22.8083 121.213 23.1917 121.397 23.525C121.58 23.8417 121.83 24.0917 122.147 24.275C122.463 24.4583 122.872 24.55 123.372 24.55C124.088 24.55 124.68 24.325 125.147 23.875C125.63 23.425 125.988 22.8333 126.222 22.1L128.547 23.3C128.063 24.5833 127.372 25.5583 126.472 26.225C125.572 26.8917 124.547 27.225 123.397 27.225C121.547 27.225 120.18 26.675 119.297 25.575C118.413 24.475 117.972 22.8833 117.972 20.8V13.65H120.897ZM129.801 21.5C129.801 20.65 129.951 19.875 130.251 19.175C130.567 18.475 131.001 17.875 131.551 17.375C132.101 16.8583 132.751 16.4667 133.501 16.2C134.251 15.9167 135.067 15.775 135.951 15.775C136.834 15.775 137.651 15.9167 138.401 16.2C139.151 16.4667 139.801 16.8583 140.351 17.375C140.901 17.875 141.326 18.475 141.626 19.175C141.942 19.875 142.101 20.65 142.101 21.5C142.101 22.35 141.942 23.125 141.626 23.825C141.326 24.525 140.901 25.1333 140.351 25.65C139.801 26.15 139.151 26.5417 138.401 26.825C137.651 27.0917 136.834 27.225 135.951 27.225C135.067 27.225 134.251 27.0917 133.501 26.825C132.751 26.5417 132.101 26.15 131.551 25.65C131.001 25.1333 130.567 24.525 130.251 23.825C129.951 23.125 129.801 22.35 129.801 21.5ZM139.126 21.5C139.126 20.55 138.817 19.8083 138.201 19.275C137.601 18.7417 136.851 18.475 135.951 18.475C135.501 18.475 135.084 18.5417 134.701 18.675C134.317 18.8083 133.984 19.0083 133.701 19.275C133.417 19.525 133.192 19.8417 133.026 20.225C132.859 20.5917 132.776 21.0167 132.776 21.5C132.776 21.9833 132.859 22.4167 133.026 22.8C133.192 23.1667 133.417 23.4833 133.701 23.75C133.984 24 134.317 24.1917 134.701 24.325C135.084 24.4583 135.501 24.525 135.951 24.525C136.851 24.525 137.601 24.2583 138.201 23.725C138.817 23.1917 139.126 22.45 139.126 21.5ZM149.551 15.775C150.134 15.775 150.726 15.8417 151.326 15.975C151.942 16.1083 152.467 16.3167 152.901 16.6L151.726 19.075C151.076 18.675 150.359 18.475 149.576 18.475C148.676 18.475 147.984 18.7667 147.501 19.35C147.017 19.9167 146.776 20.7167 146.776 21.75V27H143.851V21.825C143.851 20.9083 143.976 20.0833 144.226 19.35C144.476 18.6 144.842 17.9667 145.326 17.45C145.809 16.9167 146.401 16.5083 147.101 16.225C147.817 15.925 148.634 15.775 149.551 15.775Z" fill="white"/>
<circle cx="19.5" cy="19.5" r="19.5" fill="#1998FF"/>
<path d="M19.5 7L23.1884 14.4234L31.3882 15.6373L25.4679 21.4391L26.8473 29.6127L19.5 25.775L12.1527 29.6127L13.5321 21.4391L7.61179 15.6373L15.8116 14.4234L19.5 7Z" fill="white"/>
</svg>
