<svg width="102" height="121" viewBox="0 0 102 121" fill="none" xmlns="http://www.w3.org/2000/svg">
<path d="M-14.5781 2.21096C-14.5781 3.43204 -15.568 4.42193 -16.789 4.42193C-18.0101 4.42193 -19 3.43204 -19 2.21096C-19 0.989882 -18.0101 0 -16.789 0C-15.568 0 -14.5781 0.989882 -14.5781 2.21096Z" fill="white" fill-opacity="0.05"/>
<path d="M-14.5781 13.8688C-14.5781 15.0899 -15.568 16.0797 -16.789 16.0797C-18.0101 16.0797 -19 15.0899 -19 13.8688C-19 12.6477 -18.0101 11.6578 -16.789 11.6578C-15.568 11.6578 -14.5781 12.6477 -14.5781 13.8688Z" fill="white" fill-opacity="0.05"/>
<path d="M-14.5781 25.5266C-14.5781 26.7477 -15.568 27.7375 -16.789 27.7375C-18.0101 27.7375 -19 26.7477 -19 25.5266C-19 24.3055 -18.0101 23.3156 -16.789 23.3156C-15.568 23.3156 -14.5781 24.3055 -14.5781 25.5266Z" fill="white" fill-opacity="0.05"/>
<path d="M-14.5781 37.1844C-14.5781 38.4055 -15.568 39.3954 -16.789 39.3954C-18.0101 39.3954 -19 38.4055 -19 37.1844C-19 35.9633 -18.0101 34.9734 -16.789 34.9734C-15.568 34.9734 -14.5781 35.9633 -14.5781 37.1844Z" fill="white" fill-opacity="0.05"/>
<path d="M-14.5781 48.8422C-14.5781 50.0633 -15.568 51.0532 -16.789 51.0532C-18.0101 51.0532 -19 50.0633 -19 48.8422C-19 47.6211 -18.0101 46.6312 -16.789 46.6312C-15.568 46.6312 -14.5781 47.6211 -14.5781 48.8422Z" fill="white" fill-opacity="0.05"/>
<path d="M-14.5781 60.5C-14.5781 61.7211 -15.568 62.711 -16.789 62.711C-18.0101 62.711 -19 61.7211 -19 60.5C-19 59.2789 -18.0101 58.289 -16.789 58.289C-15.568 58.289 -14.5781 59.2789 -14.5781 60.5Z" fill="white" fill-opacity="0.05"/>
<path d="M-2.92027 2.21096C-2.92027 3.43204 -3.91015 4.42193 -5.13123 4.42193C-6.35231 4.42193 -7.34219 3.43204 -7.34219 2.21096C-7.34219 0.989882 -6.35231 0 -5.13123 0C-3.91015 0 -2.92027 0.989882 -2.92027 2.21096Z" fill="white" fill-opacity="0.05"/>
<path d="M-2.92027 13.8688C-2.92027 15.0899 -3.91015 16.0797 -5.13123 16.0797C-6.35231 16.0797 -7.34219 15.0899 -7.34219 13.8688C-7.34219 12.6477 -6.35231 11.6578 -5.13123 11.6578C-3.91015 11.6578 -2.92027 12.6477 -2.92027 13.8688Z" fill="white" fill-opacity="0.05"/>
<path d="M-2.92027 25.5266C-2.92027 26.7477 -3.91015 27.7375 -5.13123 27.7375C-6.35231 27.7375 -7.34219 26.7477 -7.34219 25.5266C-7.34219 24.3055 -6.35231 23.3156 -5.13123 23.3156C-3.91015 23.3156 -2.92027 24.3055 -2.92027 25.5266Z" fill="white" fill-opacity="0.05"/>
<path d="M-2.92027 37.1844C-2.92027 38.4055 -3.91015 39.3954 -5.13123 39.3954C-6.35231 39.3954 -7.34219 38.4055 -7.34219 37.1844C-7.34219 35.9633 -6.35231 34.9734 -5.13123 34.9734C-3.91015 34.9734 -2.92027 35.9633 -2.92027 37.1844Z" fill="white" fill-opacity="0.05"/>
<path d="M-2.92027 48.8422C-2.92027 50.0633 -3.91015 51.0532 -5.13123 51.0532C-6.35231 51.0532 -7.34219 50.0633 -7.34219 48.8422C-7.34219 47.6211 -6.35231 46.6312 -5.13123 46.6312C-3.91015 46.6312 -2.92027 47.6211 -2.92027 48.8422Z" fill="white" fill-opacity="0.05"/>
<path d="M-2.92027 60.5C-2.92027 61.7211 -3.91015 62.711 -5.13123 62.711C-6.35231 62.711 -7.34219 61.7211 -7.34219 60.5C-7.34219 59.2789 -6.35231 58.289 -5.13123 58.289C-3.91015 58.289 -2.92027 59.2789 -2.92027 60.5Z" fill="white" fill-opacity="0.05"/>
<path d="M67.0266 2.21096C67.0266 3.43204 66.0367 4.42193 64.8156 4.42193C63.5945 4.42193 62.6047 3.43204 62.6047 2.21096C62.6047 0.989882 63.5945 0 64.8156 0C66.0367 0 67.0266 0.989882 67.0266 2.21096Z" fill="white" fill-opacity="0.05"/>
<path d="M67.0266 13.8688C67.0266 15.0899 66.0367 16.0797 64.8156 16.0797C63.5945 16.0797 62.6047 15.0899 62.6047 13.8688C62.6047 12.6477 63.5945 11.6578 64.8156 11.6578C66.0367 11.6578 67.0266 12.6477 67.0266 13.8688Z" fill="white" fill-opacity="0.05"/>
<path d="M67.0266 25.5266C67.0266 26.7477 66.0367 27.7375 64.8156 27.7375C63.5945 27.7375 62.6047 26.7477 62.6047 25.5266C62.6047 24.3055 63.5945 23.3156 64.8156 23.3156C66.0367 23.3156 67.0266 24.3055 67.0266 25.5266Z" fill="white" fill-opacity="0.05"/>
<path d="M67.0266 37.1844C67.0266 38.4055 66.0367 39.3954 64.8156 39.3954C63.5945 39.3954 62.6047 38.4055 62.6047 37.1844C62.6047 35.9633 63.5945 34.9734 64.8156 34.9734C66.0367 34.9734 67.0266 35.9633 67.0266 37.1844Z" fill="white" fill-opacity="0.05"/>
<path d="M67.0266 48.8422C67.0266 50.0633 66.0367 51.0532 64.8156 51.0532C63.5945 51.0532 62.6047 50.0633 62.6047 48.8422C62.6047 47.6211 63.5945 46.6312 64.8156 46.6312C66.0367 46.6312 67.0266 47.6211 67.0266 48.8422Z" fill="white" fill-opacity="0.05"/>
<path d="M67.0266 60.5C67.0266 61.7211 66.0367 62.711 64.8156 62.711C63.5945 62.711 62.6047 61.7211 62.6047 60.5C62.6047 59.2789 63.5945 58.289 64.8156 58.289C66.0367 58.289 67.0266 59.2789 67.0266 60.5Z" fill="white" fill-opacity="0.05"/>
<path d="M8.73754 2.21096C8.73754 3.43204 7.74766 4.42193 6.52658 4.42193C5.3055 4.42193 4.31561 3.43204 4.31561 2.21096C4.31561 0.989882 5.3055 0 6.52658 0C7.74766 0 8.73754 0.989882 8.73754 2.21096Z" fill="white" fill-opacity="0.05"/>
<path d="M8.73754 13.8688C8.73754 15.0899 7.74766 16.0797 6.52658 16.0797C5.3055 16.0797 4.31561 15.0899 4.31561 13.8688C4.31561 12.6477 5.3055 11.6578 6.52658 11.6578C7.74766 11.6578 8.73754 12.6477 8.73754 13.8688Z" fill="white" fill-opacity="0.05"/>
<path d="M8.73754 25.5266C8.73754 26.7477 7.74766 27.7375 6.52658 27.7375C5.3055 27.7375 4.31561 26.7477 4.31561 25.5266C4.31561 24.3055 5.3055 23.3156 6.52658 23.3156C7.74766 23.3156 8.73754 24.3055 8.73754 25.5266Z" fill="white" fill-opacity="0.05"/>
<path d="M8.73754 37.1844C8.73754 38.4055 7.74766 39.3954 6.52658 39.3954C5.3055 39.3954 4.31561 38.4055 4.31561 37.1844C4.31561 35.9633 5.3055 34.9734 6.52658 34.9734C7.74766 34.9734 8.73754 35.9633 8.73754 37.1844Z" fill="white" fill-opacity="0.05"/>
<path d="M8.73754 48.8422C8.73754 50.0633 7.74766 51.0532 6.52658 51.0532C5.3055 51.0532 4.31561 50.0633 4.31561 48.8422C4.31561 47.6211 5.3055 46.6312 6.52658 46.6312C7.74766 46.6312 8.73754 47.6211 8.73754 48.8422Z" fill="white" fill-opacity="0.05"/>
<path d="M8.73754 60.5C8.73754 61.7211 7.74766 62.711 6.52658 62.711C5.3055 62.711 4.31561 61.7211 4.31561 60.5C4.31561 59.2789 5.3055 58.289 6.52658 58.289C7.74766 58.289 8.73754 59.2789 8.73754 60.5Z" fill="white" fill-opacity="0.05"/>
<path d="M78.6844 2.21096C78.6844 3.43204 77.6945 4.42193 76.4734 4.42193C75.2523 4.42193 74.2625 3.43204 74.2625 2.21096C74.2625 0.989882 75.2523 0 76.4734 0C77.6945 0 78.6844 0.989882 78.6844 2.21096Z" fill="white" fill-opacity="0.05"/>
<path d="M78.6844 13.8688C78.6844 15.0899 77.6945 16.0797 76.4734 16.0797C75.2523 16.0797 74.2625 15.0899 74.2625 13.8688C74.2625 12.6477 75.2523 11.6578 76.4734 11.6578C77.6945 11.6578 78.6844 12.6477 78.6844 13.8688Z" fill="white" fill-opacity="0.05"/>
<path d="M78.6844 25.5266C78.6844 26.7477 77.6945 27.7375 76.4734 27.7375C75.2523 27.7375 74.2625 26.7477 74.2625 25.5266C74.2625 24.3055 75.2523 23.3156 76.4734 23.3156C77.6945 23.3156 78.6844 24.3055 78.6844 25.5266Z" fill="white" fill-opacity="0.05"/>
<path d="M78.6844 37.1844C78.6844 38.4055 77.6945 39.3954 76.4734 39.3954C75.2523 39.3954 74.2625 38.4055 74.2625 37.1844C74.2625 35.9633 75.2523 34.9734 76.4734 34.9734C77.6945 34.9734 78.6844 35.9633 78.6844 37.1844Z" fill="white" fill-opacity="0.05"/>
<path d="M78.6844 48.8422C78.6844 50.0633 77.6945 51.0532 76.4734 51.0532C75.2523 51.0532 74.2625 50.0633 74.2625 48.8422C74.2625 47.6211 75.2523 46.6312 76.4734 46.6312C77.6945 46.6312 78.6844 47.6211 78.6844 48.8422Z" fill="white" fill-opacity="0.05"/>
<path d="M78.6844 60.5C78.6844 61.7211 77.6945 62.711 76.4734 62.711C75.2523 62.711 74.2625 61.7211 74.2625 60.5C74.2625 59.2789 75.2523 58.289 76.4734 58.289C77.6945 58.289 78.6844 59.2789 78.6844 60.5Z" fill="white" fill-opacity="0.05"/>
<path d="M20.3954 2.21096C20.3954 3.43204 19.4055 4.42193 18.1844 4.42193C16.9633 4.42193 15.9734 3.43204 15.9734 2.21096C15.9734 0.989882 16.9633 0 18.1844 0C19.4055 0 20.3954 0.989882 20.3954 2.21096Z" fill="white" fill-opacity="0.05"/>
<path d="M20.3954 13.8688C20.3954 15.0899 19.4055 16.0797 18.1844 16.0797C16.9633 16.0797 15.9734 15.0899 15.9734 13.8688C15.9734 12.6477 16.9633 11.6578 18.1844 11.6578C19.4055 11.6578 20.3954 12.6477 20.3954 13.8688Z" fill="white" fill-opacity="0.05"/>
<path d="M20.3954 25.5266C20.3954 26.7477 19.4055 27.7375 18.1844 27.7375C16.9633 27.7375 15.9734 26.7477 15.9734 25.5266C15.9734 24.3055 16.9633 23.3156 18.1844 23.3156C19.4055 23.3156 20.3954 24.3055 20.3954 25.5266Z" fill="white" fill-opacity="0.05"/>
<path d="M20.3954 37.1844C20.3954 38.4055 19.4055 39.3954 18.1844 39.3954C16.9633 39.3954 15.9734 38.4055 15.9734 37.1844C15.9734 35.9633 16.9633 34.9734 18.1844 34.9734C19.4055 34.9734 20.3954 35.9633 20.3954 37.1844Z" fill="white" fill-opacity="0.05"/>
<path d="M20.3954 48.8422C20.3954 50.0633 19.4055 51.0532 18.1844 51.0532C16.9633 51.0532 15.9734 50.0633 15.9734 48.8422C15.9734 47.6211 16.9633 46.6312 18.1844 46.6312C19.4055 46.6312 20.3954 47.6211 20.3954 48.8422Z" fill="white" fill-opacity="0.05"/>
<path d="M20.3954 60.5C20.3954 61.7211 19.4055 62.711 18.1844 62.711C16.9633 62.711 15.9734 61.7211 15.9734 60.5C15.9734 59.2789 16.9633 58.289 18.1844 58.289C19.4055 58.289 20.3954 59.2789 20.3954 60.5Z" fill="white" fill-opacity="0.05"/>
<path d="M90.3422 2.21096C90.3422 3.43204 89.3523 4.42193 88.1312 4.42193C86.9101 4.42193 85.9203 3.43204 85.9203 2.21096C85.9203 0.989882 86.9101 0 88.1312 0C89.3523 0 90.3422 0.989882 90.3422 2.21096Z" fill="white" fill-opacity="0.05"/>
<path d="M90.3422 13.8688C90.3422 15.0899 89.3523 16.0797 88.1312 16.0797C86.9101 16.0797 85.9203 15.0899 85.9203 13.8688C85.9203 12.6477 86.9101 11.6578 88.1312 11.6578C89.3523 11.6578 90.3422 12.6477 90.3422 13.8688Z" fill="white" fill-opacity="0.05"/>
<path d="M90.3422 25.5266C90.3422 26.7477 89.3523 27.7375 88.1312 27.7375C86.9101 27.7375 85.9203 26.7477 85.9203 25.5266C85.9203 24.3055 86.9101 23.3156 88.1312 23.3156C89.3523 23.3156 90.3422 24.3055 90.3422 25.5266Z" fill="white" fill-opacity="0.05"/>
<path d="M90.3422 37.1844C90.3422 38.4055 89.3523 39.3954 88.1312 39.3954C86.9101 39.3954 85.9203 38.4055 85.9203 37.1844C85.9203 35.9633 86.9101 34.9734 88.1312 34.9734C89.3523 34.9734 90.3422 35.9633 90.3422 37.1844Z" fill="white" fill-opacity="0.05"/>
<path d="M90.3422 48.8422C90.3422 50.0633 89.3523 51.0532 88.1312 51.0532C86.9101 51.0532 85.9203 50.0633 85.9203 48.8422C85.9203 47.6211 86.9101 46.6312 88.1312 46.6312C89.3523 46.6312 90.3422 47.6211 90.3422 48.8422Z" fill="white" fill-opacity="0.05"/>
<path d="M90.3422 60.5C90.3422 61.7211 89.3523 62.711 88.1312 62.711C86.9101 62.711 85.9203 61.7211 85.9203 60.5C85.9203 59.2789 86.9101 58.289 88.1312 58.289C89.3523 58.289 90.3422 59.2789 90.3422 60.5Z" fill="white" fill-opacity="0.05"/>
<path d="M32.0532 2.21096C32.0532 3.43204 31.0633 4.42193 29.8422 4.42193C28.6211 4.42193 27.6312 3.43204 27.6312 2.21096C27.6312 0.989882 28.6211 0 29.8422 0C31.0633 0 32.0532 0.989882 32.0532 2.21096Z" fill="white" fill-opacity="0.05"/>
<path d="M32.0532 13.8688C32.0532 15.0899 31.0633 16.0797 29.8422 16.0797C28.6211 16.0797 27.6312 15.0899 27.6312 13.8688C27.6312 12.6477 28.6211 11.6578 29.8422 11.6578C31.0633 11.6578 32.0532 12.6477 32.0532 13.8688Z" fill="white" fill-opacity="0.05"/>
<path d="M32.0532 25.5266C32.0532 26.7477 31.0633 27.7375 29.8422 27.7375C28.6211 27.7375 27.6312 26.7477 27.6312 25.5266C27.6312 24.3055 28.6211 23.3156 29.8422 23.3156C31.0633 23.3156 32.0532 24.3055 32.0532 25.5266Z" fill="white" fill-opacity="0.05"/>
<path d="M32.0532 37.1844C32.0532 38.4055 31.0633 39.3954 29.8422 39.3954C28.6211 39.3954 27.6312 38.4055 27.6312 37.1844C27.6312 35.9633 28.6211 34.9734 29.8422 34.9734C31.0633 34.9734 32.0532 35.9633 32.0532 37.1844Z" fill="white" fill-opacity="0.05"/>
<path d="M32.0532 48.8422C32.0532 50.0633 31.0633 51.0532 29.8422 51.0532C28.6211 51.0532 27.6312 50.0633 27.6312 48.8422C27.6312 47.6211 28.6211 46.6312 29.8422 46.6312C31.0633 46.6312 32.0532 47.6211 32.0532 48.8422Z" fill="white" fill-opacity="0.05"/>
<path d="M32.0532 60.5C32.0532 61.7211 31.0633 62.711 29.8422 62.711C28.6211 62.711 27.6312 61.7211 27.6312 60.5C27.6312 59.2789 28.6211 58.289 29.8422 58.289C31.0633 58.289 32.0532 59.2789 32.0532 60.5Z" fill="white" fill-opacity="0.05"/>
<path d="M102 2.21096C102 3.43204 101.01 4.42193 99.789 4.42193C98.568 4.42193 97.5781 3.43204 97.5781 2.21096C97.5781 0.989882 98.568 0 99.789 0C101.01 0 102 0.989882 102 2.21096Z" fill="white" fill-opacity="0.05"/>
<path d="M102 13.8688C102 15.0899 101.01 16.0797 99.789 16.0797C98.568 16.0797 97.5781 15.0899 97.5781 13.8688C97.5781 12.6477 98.568 11.6578 99.789 11.6578C101.01 11.6578 102 12.6477 102 13.8688Z" fill="white" fill-opacity="0.05"/>
<path d="M102 25.5266C102 26.7477 101.01 27.7375 99.789 27.7375C98.568 27.7375 97.5781 26.7477 97.5781 25.5266C97.5781 24.3055 98.568 23.3156 99.789 23.3156C101.01 23.3156 102 24.3055 102 25.5266Z" fill="white" fill-opacity="0.05"/>
<path d="M102 37.1844C102 38.4055 101.01 39.3954 99.789 39.3954C98.568 39.3954 97.5781 38.4055 97.5781 37.1844C97.5781 35.9633 98.568 34.9734 99.789 34.9734C101.01 34.9734 102 35.9633 102 37.1844Z" fill="white" fill-opacity="0.05"/>
<path d="M102 48.8422C102 50.0633 101.01 51.0532 99.789 51.0532C98.568 51.0532 97.5781 50.0633 97.5781 48.8422C97.5781 47.6211 98.568 46.6312 99.789 46.6312C101.01 46.6312 102 47.6211 102 48.8422Z" fill="white" fill-opacity="0.05"/>
<path d="M102 60.5C102 61.7211 101.01 62.711 99.789 62.711C98.568 62.711 97.5781 61.7211 97.5781 60.5C97.5781 59.2789 98.568 58.289 99.789 58.289C101.01 58.289 102 59.2789 102 60.5Z" fill="white" fill-opacity="0.05"/>
<path d="M43.711 2.21096C43.711 3.43204 42.7211 4.42193 41.5 4.42193C40.2789 4.42193 39.289 3.43204 39.289 2.21096C39.289 0.989882 40.2789 0 41.5 0C42.7211 0 43.711 0.989882 43.711 2.21096Z" fill="white" fill-opacity="0.05"/>
<path d="M43.711 13.8688C43.711 15.0899 42.7211 16.0797 41.5 16.0797C40.2789 16.0797 39.289 15.0899 39.289 13.8688C39.289 12.6477 40.2789 11.6578 41.5 11.6578C42.7211 11.6578 43.711 12.6477 43.711 13.8688Z" fill="white" fill-opacity="0.05"/>
<path d="M43.711 25.5266C43.711 26.7477 42.7211 27.7375 41.5 27.7375C40.2789 27.7375 39.289 26.7477 39.289 25.5266C39.289 24.3055 40.2789 23.3156 41.5 23.3156C42.7211 23.3156 43.711 24.3055 43.711 25.5266Z" fill="white" fill-opacity="0.05"/>
<path d="M43.711 37.1844C43.711 38.4055 42.7211 39.3954 41.5 39.3954C40.2789 39.3954 39.289 38.4055 39.289 37.1844C39.289 35.9633 40.2789 34.9734 41.5 34.9734C42.7211 34.9734 43.711 35.9633 43.711 37.1844Z" fill="white" fill-opacity="0.05"/>
<path d="M43.711 48.8422C43.711 50.0633 42.7211 51.0532 41.5 51.0532C40.2789 51.0532 39.289 50.0633 39.289 48.8422C39.289 47.6211 40.2789 46.6312 41.5 46.6312C42.7211 46.6312 43.711 47.6211 43.711 48.8422Z" fill="white" fill-opacity="0.05"/>
<path d="M43.711 60.5C43.711 61.7211 42.7211 62.711 41.5 62.711C40.2789 62.711 39.289 61.7211 39.289 60.5C39.289 59.2789 40.2789 58.289 41.5 58.289C42.7211 58.289 43.711 59.2789 43.711 60.5Z" fill="white" fill-opacity="0.05"/>
<path d="M55.3688 2.21096C55.3688 3.43204 54.3789 4.42193 53.1578 4.42193C51.9367 4.42193 50.9468 3.43204 50.9468 2.21096C50.9468 0.989882 51.9367 0 53.1578 0C54.3789 0 55.3688 0.989882 55.3688 2.21096Z" fill="white" fill-opacity="0.05"/>
<path d="M55.3688 13.8688C55.3688 15.0899 54.3789 16.0797 53.1578 16.0797C51.9367 16.0797 50.9468 15.0899 50.9468 13.8688C50.9468 12.6477 51.9367 11.6578 53.1578 11.6578C54.3789 11.6578 55.3688 12.6477 55.3688 13.8688Z" fill="white" fill-opacity="0.05"/>
<path d="M55.3688 25.5266C55.3688 26.7477 54.3789 27.7375 53.1578 27.7375C51.9367 27.7375 50.9468 26.7477 50.9468 25.5266C50.9468 24.3055 51.9367 23.3156 53.1578 23.3156C54.3789 23.3156 55.3688 24.3055 55.3688 25.5266Z" fill="white" fill-opacity="0.05"/>
<path d="M55.3688 37.1844C55.3688 38.4055 54.3789 39.3954 53.1578 39.3954C51.9367 39.3954 50.9468 38.4055 50.9468 37.1844C50.9468 35.9633 51.9367 34.9734 53.1578 34.9734C54.3789 34.9734 55.3688 35.9633 55.3688 37.1844Z" fill="white" fill-opacity="0.05"/>
<path d="M55.3688 48.8422C55.3688 50.0633 54.3789 51.0532 53.1578 51.0532C51.9367 51.0532 50.9468 50.0633 50.9468 48.8422C50.9468 47.6211 51.9367 46.6312 53.1578 46.6312C54.3789 46.6312 55.3688 47.6211 55.3688 48.8422Z" fill="white" fill-opacity="0.05"/>
<path d="M55.3688 60.5C55.3688 61.7211 54.3789 62.711 53.1578 62.711C51.9367 62.711 50.9468 61.7211 50.9468 60.5C50.9468 59.2789 51.9367 58.289 53.1578 58.289C54.3789 58.289 55.3688 59.2789 55.3688 60.5Z" fill="white" fill-opacity="0.05"/>
<path d="M-14.5781 72.1578C-14.5781 73.3789 -15.568 74.3688 -16.789 74.3688C-18.0101 74.3688 -19 73.3789 -19 72.1578C-19 70.9367 -18.0101 69.9468 -16.789 69.9468C-15.568 69.9468 -14.5781 70.9367 -14.5781 72.1578Z" fill="white" fill-opacity="0.05"/>
<path d="M-14.5781 83.8156C-14.5781 85.0367 -15.568 86.0266 -16.789 86.0266C-18.0101 86.0266 -19 85.0367 -19 83.8156C-19 82.5945 -18.0101 81.6047 -16.789 81.6047C-15.568 81.6047 -14.5781 82.5945 -14.5781 83.8156Z" fill="white" fill-opacity="0.05"/>
<path d="M-14.5781 95.4734C-14.5781 96.6945 -15.568 97.6844 -16.789 97.6844C-18.0101 97.6844 -19 96.6945 -19 95.4734C-19 94.2523 -18.0101 93.2625 -16.789 93.2625C-15.568 93.2625 -14.5781 94.2523 -14.5781 95.4734Z" fill="white" fill-opacity="0.05"/>
<path d="M-14.5781 107.131C-14.5781 108.352 -15.568 109.342 -16.789 109.342C-18.0101 109.342 -19 108.352 -19 107.131C-19 105.91 -18.0101 104.92 -16.789 104.92C-15.568 104.92 -14.5781 105.91 -14.5781 107.131Z" fill="white" fill-opacity="0.05"/>
<path d="M-14.5781 118.789C-14.5781 120.01 -15.568 121 -16.789 121C-18.0101 121 -19 120.01 -19 118.789C-19 117.568 -18.0101 116.578 -16.789 116.578C-15.568 116.578 -14.5781 117.568 -14.5781 118.789Z" fill="white" fill-opacity="0.05"/>
<path d="M-2.92027 72.1578C-2.92027 73.3789 -3.91015 74.3688 -5.13123 74.3688C-6.35231 74.3688 -7.34219 73.3789 -7.34219 72.1578C-7.34219 70.9367 -6.35231 69.9468 -5.13123 69.9468C-3.91015 69.9468 -2.92027 70.9367 -2.92027 72.1578Z" fill="white" fill-opacity="0.05"/>
<path d="M-2.92027 83.8156C-2.92027 85.0367 -3.91015 86.0266 -5.13123 86.0266C-6.35231 86.0266 -7.34219 85.0367 -7.34219 83.8156C-7.34219 82.5945 -6.35231 81.6047 -5.13123 81.6047C-3.91015 81.6047 -2.92027 82.5945 -2.92027 83.8156Z" fill="white" fill-opacity="0.05"/>
<path d="M-2.92027 95.4734C-2.92027 96.6945 -3.91015 97.6844 -5.13123 97.6844C-6.35231 97.6844 -7.34219 96.6945 -7.34219 95.4734C-7.34219 94.2523 -6.35231 93.2625 -5.13123 93.2625C-3.91015 93.2625 -2.92027 94.2523 -2.92027 95.4734Z" fill="white" fill-opacity="0.05"/>
<path d="M-2.92027 107.131C-2.92027 108.352 -3.91015 109.342 -5.13123 109.342C-6.35231 109.342 -7.34219 108.352 -7.34219 107.131C-7.34219 105.91 -6.35231 104.92 -5.13123 104.92C-3.91015 104.92 -2.92027 105.91 -2.92027 107.131Z" fill="white" fill-opacity="0.05"/>
<path d="M-2.92027 118.789C-2.92027 120.01 -3.91015 121 -5.13123 121C-6.35231 121 -7.34219 120.01 -7.34219 118.789C-7.34219 117.568 -6.35231 116.578 -5.13123 116.578C-3.91015 116.578 -2.92027 117.568 -2.92027 118.789Z" fill="white" fill-opacity="0.05"/>
<path d="M67.0266 72.1578C67.0266 73.3789 66.0367 74.3688 64.8156 74.3688C63.5945 74.3688 62.6047 73.3789 62.6047 72.1578C62.6047 70.9367 63.5945 69.9468 64.8156 69.9468C66.0367 69.9468 67.0266 70.9367 67.0266 72.1578Z" fill="white" fill-opacity="0.05"/>
<path d="M67.0266 83.8156C67.0266 85.0367 66.0367 86.0266 64.8156 86.0266C63.5945 86.0266 62.6047 85.0367 62.6047 83.8156C62.6047 82.5945 63.5945 81.6047 64.8156 81.6047C66.0367 81.6047 67.0266 82.5945 67.0266 83.8156Z" fill="white" fill-opacity="0.05"/>
<path d="M67.0266 95.4734C67.0266 96.6945 66.0367 97.6844 64.8156 97.6844C63.5945 97.6844 62.6047 96.6945 62.6047 95.4734C62.6047 94.2523 63.5945 93.2625 64.8156 93.2625C66.0367 93.2625 67.0266 94.2523 67.0266 95.4734Z" fill="white" fill-opacity="0.05"/>
<path d="M67.0266 107.131C67.0266 108.352 66.0367 109.342 64.8156 109.342C63.5945 109.342 62.6047 108.352 62.6047 107.131C62.6047 105.91 63.5945 104.92 64.8156 104.92C66.0367 104.92 67.0266 105.91 67.0266 107.131Z" fill="white" fill-opacity="0.05"/>
<path d="M67.0266 118.789C67.0266 120.01 66.0367 121 64.8156 121C63.5945 121 62.6047 120.01 62.6047 118.789C62.6047 117.568 63.5945 116.578 64.8156 116.578C66.0367 116.578 67.0266 117.568 67.0266 118.789Z" fill="white" fill-opacity="0.05"/>
<path d="M8.73754 72.1578C8.73754 73.3789 7.74766 74.3688 6.52658 74.3688C5.3055 74.3688 4.31561 73.3789 4.31561 72.1578C4.31561 70.9367 5.3055 69.9468 6.52658 69.9468C7.74766 69.9468 8.73754 70.9367 8.73754 72.1578Z" fill="white" fill-opacity="0.05"/>
<path d="M8.73754 83.8156C8.73754 85.0367 7.74766 86.0266 6.52658 86.0266C5.3055 86.0266 4.31561 85.0367 4.31561 83.8156C4.31561 82.5945 5.3055 81.6047 6.52658 81.6047C7.74766 81.6047 8.73754 82.5945 8.73754 83.8156Z" fill="white" fill-opacity="0.05"/>
<path d="M8.73754 95.4734C8.73754 96.6945 7.74766 97.6844 6.52658 97.6844C5.3055 97.6844 4.31561 96.6945 4.31561 95.4734C4.31561 94.2523 5.3055 93.2625 6.52658 93.2625C7.74766 93.2625 8.73754 94.2523 8.73754 95.4734Z" fill="white" fill-opacity="0.05"/>
<path d="M8.73754 107.131C8.73754 108.352 7.74766 109.342 6.52658 109.342C5.3055 109.342 4.31561 108.352 4.31561 107.131C4.31561 105.91 5.3055 104.92 6.52658 104.92C7.74766 104.92 8.73754 105.91 8.73754 107.131Z" fill="white" fill-opacity="0.05"/>
<path d="M8.73754 118.789C8.73754 120.01 7.74766 121 6.52658 121C5.3055 121 4.31561 120.01 4.31561 118.789C4.31561 117.568 5.3055 116.578 6.52658 116.578C7.74766 116.578 8.73754 117.568 8.73754 118.789Z" fill="white" fill-opacity="0.05"/>
<path d="M78.6844 72.1578C78.6844 73.3789 77.6945 74.3688 76.4734 74.3688C75.2523 74.3688 74.2625 73.3789 74.2625 72.1578C74.2625 70.9367 75.2523 69.9468 76.4734 69.9468C77.6945 69.9468 78.6844 70.9367 78.6844 72.1578Z" fill="white" fill-opacity="0.05"/>
<path d="M78.6844 83.8156C78.6844 85.0367 77.6945 86.0266 76.4734 86.0266C75.2523 86.0266 74.2625 85.0367 74.2625 83.8156C74.2625 82.5945 75.2523 81.6047 76.4734 81.6047C77.6945 81.6047 78.6844 82.5945 78.6844 83.8156Z" fill="white" fill-opacity="0.05"/>
<path d="M78.6844 95.4734C78.6844 96.6945 77.6945 97.6844 76.4734 97.6844C75.2523 97.6844 74.2625 96.6945 74.2625 95.4734C74.2625 94.2523 75.2523 93.2625 76.4734 93.2625C77.6945 93.2625 78.6844 94.2523 78.6844 95.4734Z" fill="white" fill-opacity="0.05"/>
<path d="M78.6844 107.131C78.6844 108.352 77.6945 109.342 76.4734 109.342C75.2523 109.342 74.2625 108.352 74.2625 107.131C74.2625 105.91 75.2523 104.92 76.4734 104.92C77.6945 104.92 78.6844 105.91 78.6844 107.131Z" fill="white" fill-opacity="0.05"/>
<path d="M78.6844 118.789C78.6844 120.01 77.6945 121 76.4734 121C75.2523 121 74.2625 120.01 74.2625 118.789C74.2625 117.568 75.2523 116.578 76.4734 116.578C77.6945 116.578 78.6844 117.568 78.6844 118.789Z" fill="white" fill-opacity="0.05"/>
<path d="M20.3954 72.1578C20.3954 73.3789 19.4055 74.3688 18.1844 74.3688C16.9633 74.3688 15.9734 73.3789 15.9734 72.1578C15.9734 70.9367 16.9633 69.9468 18.1844 69.9468C19.4055 69.9468 20.3954 70.9367 20.3954 72.1578Z" fill="white" fill-opacity="0.05"/>
<path d="M20.3954 83.8156C20.3954 85.0367 19.4055 86.0266 18.1844 86.0266C16.9633 86.0266 15.9734 85.0367 15.9734 83.8156C15.9734 82.5945 16.9633 81.6047 18.1844 81.6047C19.4055 81.6047 20.3954 82.5945 20.3954 83.8156Z" fill="white" fill-opacity="0.05"/>
<path d="M20.3954 95.4734C20.3954 96.6945 19.4055 97.6844 18.1844 97.6844C16.9633 97.6844 15.9734 96.6945 15.9734 95.4734C15.9734 94.2523 16.9633 93.2625 18.1844 93.2625C19.4055 93.2625 20.3954 94.2523 20.3954 95.4734Z" fill="white" fill-opacity="0.05"/>
<path d="M20.3954 107.131C20.3954 108.352 19.4055 109.342 18.1844 109.342C16.9633 109.342 15.9734 108.352 15.9734 107.131C15.9734 105.91 16.9633 104.92 18.1844 104.92C19.4055 104.92 20.3954 105.91 20.3954 107.131Z" fill="white" fill-opacity="0.05"/>
<path d="M20.3954 118.789C20.3954 120.01 19.4055 121 18.1844 121C16.9633 121 15.9734 120.01 15.9734 118.789C15.9734 117.568 16.9633 116.578 18.1844 116.578C19.4055 116.578 20.3954 117.568 20.3954 118.789Z" fill="white" fill-opacity="0.05"/>
<path d="M90.3422 72.1578C90.3422 73.3789 89.3523 74.3688 88.1312 74.3688C86.9101 74.3688 85.9203 73.3789 85.9203 72.1578C85.9203 70.9367 86.9101 69.9468 88.1312 69.9468C89.3523 69.9468 90.3422 70.9367 90.3422 72.1578Z" fill="white" fill-opacity="0.05"/>
<path d="M90.3422 83.8156C90.3422 85.0367 89.3523 86.0266 88.1312 86.0266C86.9101 86.0266 85.9203 85.0367 85.9203 83.8156C85.9203 82.5945 86.9101 81.6047 88.1312 81.6047C89.3523 81.6047 90.3422 82.5945 90.3422 83.8156Z" fill="white" fill-opacity="0.05"/>
<path d="M90.3422 95.4734C90.3422 96.6945 89.3523 97.6844 88.1312 97.6844C86.9101 97.6844 85.9203 96.6945 85.9203 95.4734C85.9203 94.2523 86.9101 93.2625 88.1312 93.2625C89.3523 93.2625 90.3422 94.2523 90.3422 95.4734Z" fill="white" fill-opacity="0.05"/>
<path d="M90.3422 107.131C90.3422 108.352 89.3523 109.342 88.1312 109.342C86.9101 109.342 85.9203 108.352 85.9203 107.131C85.9203 105.91 86.9101 104.92 88.1312 104.92C89.3523 104.92 90.3422 105.91 90.3422 107.131Z" fill="white" fill-opacity="0.05"/>
<path d="M90.3422 118.789C90.3422 120.01 89.3523 121 88.1312 121C86.9101 121 85.9203 120.01 85.9203 118.789C85.9203 117.568 86.9101 116.578 88.1312 116.578C89.3523 116.578 90.3422 117.568 90.3422 118.789Z" fill="white" fill-opacity="0.05"/>
<path d="M32.0532 72.1578C32.0532 73.3789 31.0633 74.3688 29.8422 74.3688C28.6211 74.3688 27.6312 73.3789 27.6312 72.1578C27.6312 70.9367 28.6211 69.9468 29.8422 69.9468C31.0633 69.9468 32.0532 70.9367 32.0532 72.1578Z" fill="white" fill-opacity="0.05"/>
<path d="M32.0532 83.8156C32.0532 85.0367 31.0633 86.0266 29.8422 86.0266C28.6211 86.0266 27.6312 85.0367 27.6312 83.8156C27.6312 82.5945 28.6211 81.6047 29.8422 81.6047C31.0633 81.6047 32.0532 82.5945 32.0532 83.8156Z" fill="white" fill-opacity="0.05"/>
<path d="M32.0532 95.4734C32.0532 96.6945 31.0633 97.6844 29.8422 97.6844C28.6211 97.6844 27.6312 96.6945 27.6312 95.4734C27.6312 94.2523 28.6211 93.2625 29.8422 93.2625C31.0633 93.2625 32.0532 94.2523 32.0532 95.4734Z" fill="white" fill-opacity="0.05"/>
<path d="M32.0532 107.131C32.0532 108.352 31.0633 109.342 29.8422 109.342C28.6211 109.342 27.6312 108.352 27.6312 107.131C27.6312 105.91 28.6211 104.92 29.8422 104.92C31.0633 104.92 32.0532 105.91 32.0532 107.131Z" fill="white" fill-opacity="0.05"/>
<path d="M32.0532 118.789C32.0532 120.01 31.0633 121 29.8422 121C28.6211 121 27.6312 120.01 27.6312 118.789C27.6312 117.568 28.6211 116.578 29.8422 116.578C31.0633 116.578 32.0532 117.568 32.0532 118.789Z" fill="white" fill-opacity="0.05"/>
<path d="M102 72.1578C102 73.3789 101.01 74.3688 99.789 74.3688C98.568 74.3688 97.5781 73.3789 97.5781 72.1578C97.5781 70.9367 98.568 69.9468 99.789 69.9468C101.01 69.9468 102 70.9367 102 72.1578Z" fill="white" fill-opacity="0.05"/>
<path d="M102 83.8156C102 85.0367 101.01 86.0266 99.789 86.0266C98.568 86.0266 97.5781 85.0367 97.5781 83.8156C97.5781 82.5945 98.568 81.6047 99.789 81.6047C101.01 81.6047 102 82.5945 102 83.8156Z" fill="white" fill-opacity="0.05"/>
<path d="M102 95.4734C102 96.6945 101.01 97.6844 99.789 97.6844C98.568 97.6844 97.5781 96.6945 97.5781 95.4734C97.5781 94.2523 98.568 93.2625 99.789 93.2625C101.01 93.2625 102 94.2523 102 95.4734Z" fill="white" fill-opacity="0.05"/>
<path d="M102 107.131C102 108.352 101.01 109.342 99.789 109.342C98.568 109.342 97.5781 108.352 97.5781 107.131C97.5781 105.91 98.568 104.92 99.789 104.92C101.01 104.92 102 105.91 102 107.131Z" fill="white" fill-opacity="0.05"/>
<path d="M102 118.789C102 120.01 101.01 121 99.789 121C98.568 121 97.5781 120.01 97.5781 118.789C97.5781 117.568 98.568 116.578 99.789 116.578C101.01 116.578 102 117.568 102 118.789Z" fill="white" fill-opacity="0.05"/>
<path d="M43.711 72.1578C43.711 73.3789 42.7211 74.3688 41.5 74.3688C40.2789 74.3688 39.289 73.3789 39.289 72.1578C39.289 70.9367 40.2789 69.9468 41.5 69.9468C42.7211 69.9468 43.711 70.9367 43.711 72.1578Z" fill="white" fill-opacity="0.05"/>
<path d="M43.711 83.8156C43.711 85.0367 42.7211 86.0266 41.5 86.0266C40.2789 86.0266 39.289 85.0367 39.289 83.8156C39.289 82.5945 40.2789 81.6047 41.5 81.6047C42.7211 81.6047 43.711 82.5945 43.711 83.8156Z" fill="white" fill-opacity="0.05"/>
<path d="M43.711 95.4734C43.711 96.6945 42.7211 97.6844 41.5 97.6844C40.2789 97.6844 39.289 96.6945 39.289 95.4734C39.289 94.2523 40.2789 93.2625 41.5 93.2625C42.7211 93.2625 43.711 94.2523 43.711 95.4734Z" fill="white" fill-opacity="0.05"/>
<path d="M43.711 107.131C43.711 108.352 42.7211 109.342 41.5 109.342C40.2789 109.342 39.289 108.352 39.289 107.131C39.289 105.91 40.2789 104.92 41.5 104.92C42.7211 104.92 43.711 105.91 43.711 107.131Z" fill="white" fill-opacity="0.05"/>
<path d="M43.711 118.789C43.711 120.01 42.7211 121 41.5 121C40.2789 121 39.289 120.01 39.289 118.789C39.289 117.568 40.2789 116.578 41.5 116.578C42.7211 116.578 43.711 117.568 43.711 118.789Z" fill="white" fill-opacity="0.05"/>
<path d="M55.3688 72.1578C55.3688 73.3789 54.3789 74.3688 53.1578 74.3688C51.9367 74.3688 50.9468 73.3789 50.9468 72.1578C50.9468 70.9367 51.9367 69.9468 53.1578 69.9468C54.3789 69.9468 55.3688 70.9367 55.3688 72.1578Z" fill="white" fill-opacity="0.05"/>
<path d="M55.3688 83.8156C55.3688 85.0367 54.3789 86.0266 53.1578 86.0266C51.9367 86.0266 50.9468 85.0367 50.9468 83.8156C50.9468 82.5945 51.9367 81.6047 53.1578 81.6047C54.3789 81.6047 55.3688 82.5945 55.3688 83.8156Z" fill="white" fill-opacity="0.05"/>
<path d="M55.3688 95.4734C55.3688 96.6945 54.3789 97.6844 53.1578 97.6844C51.9367 97.6844 50.9468 96.6945 50.9468 95.4734C50.9468 94.2523 51.9367 93.2625 53.1578 93.2625C54.3789 93.2625 55.3688 94.2523 55.3688 95.4734Z" fill="white" fill-opacity="0.05"/>
<path d="M55.3688 107.131C55.3688 108.352 54.3789 109.342 53.1578 109.342C51.9367 109.342 50.9468 108.352 50.9468 107.131C50.9468 105.91 51.9367 104.92 53.1578 104.92C54.3789 104.92 55.3688 105.91 55.3688 107.131Z" fill="white" fill-opacity="0.05"/>
<path d="M55.3688 118.789C55.3688 120.01 54.3789 121 53.1578 121C51.9367 121 50.9468 120.01 50.9468 118.789C50.9468 117.568 51.9367 116.578 53.1578 116.578C54.3789 116.578 55.3688 117.568 55.3688 118.789Z" fill="white" fill-opacity="0.05"/>
</svg>
