<svg width="160" height="160" viewBox="0 0 160 160" fill="none" xmlns="http://www.w3.org/2000/svg">
<path d="M4.37642 78.3776C5.18209 79.1833 5.18209 80.4896 4.37642 81.2952C3.57074 82.1009 2.26448 82.1009 1.45881 81.2952C0.653129 80.4896 0.653129 79.1833 1.45881 78.3776C2.26448 77.5719 3.57074 77.5719 4.37642 78.3776Z" fill="white" fill-opacity="0.06"/>
<path d="M12.0683 86.0695C12.874 86.8752 12.874 88.1814 12.0683 88.9871C11.2626 89.7928 9.95636 89.7928 9.15069 88.9871C8.34501 88.1814 8.34501 86.8752 9.15069 86.0695C9.95636 85.2638 11.2626 85.2638 12.0683 86.0695Z" fill="white" fill-opacity="0.06"/>
<path d="M19.7602 93.7614C20.5659 94.5671 20.5659 95.8733 19.7602 96.679C18.9545 97.4847 17.6482 97.4847 16.8426 96.679C16.0369 95.8733 16.0369 94.5671 16.8426 93.7614C17.6482 92.9557 18.9545 92.9557 19.7602 93.7614Z" fill="white" fill-opacity="0.06"/>
<path d="M27.4521 101.453C28.2577 102.259 28.2577 103.565 27.4521 104.371C26.6464 105.177 25.3401 105.177 24.5345 104.371C23.7288 103.565 23.7288 102.259 24.5345 101.453C25.3401 100.648 26.6464 100.648 27.4521 101.453Z" fill="white" fill-opacity="0.06"/>
<path d="M35.1439 109.145C35.9496 109.951 35.9496 111.257 35.1439 112.063C34.3383 112.868 33.032 112.868 32.2263 112.063C31.4207 111.257 31.4207 109.951 32.2263 109.145C33.032 108.339 34.3383 108.339 35.1439 109.145Z" fill="white" fill-opacity="0.06"/>
<path d="M42.8358 116.837C43.6415 117.643 43.6415 118.949 42.8358 119.755C42.0301 120.56 40.7239 120.56 39.9182 119.755C39.1125 118.949 39.1125 117.643 39.9182 116.837C40.7239 116.031 42.0301 116.031 42.8358 116.837Z" fill="white" fill-opacity="0.06"/>
<path d="M12.0683 70.6857C12.874 71.4914 12.874 72.7977 12.0683 73.6033C11.2626 74.409 9.95636 74.409 9.15069 73.6033C8.34501 72.7977 8.34501 71.4914 9.15069 70.6857C9.95636 69.8801 11.2626 69.8801 12.0683 70.6857Z" fill="white" fill-opacity="0.06"/>
<path d="M19.7602 78.3776C20.5659 79.1833 20.5659 80.4896 19.7602 81.2952C18.9545 82.1009 17.6482 82.1009 16.8426 81.2952C16.0369 80.4896 16.0369 79.1833 16.8426 78.3776C17.6482 77.5719 18.9545 77.5719 19.7602 78.3776Z" fill="white" fill-opacity="0.06"/>
<path d="M27.4521 86.0695C28.2577 86.8752 28.2577 88.1814 27.4521 88.9871C26.6464 89.7928 25.3401 89.7928 24.5345 88.9871C23.7288 88.1814 23.7288 86.8752 24.5345 86.0695C25.3401 85.2638 26.6464 85.2638 27.4521 86.0695Z" fill="white" fill-opacity="0.06"/>
<path d="M35.1439 93.7614C35.9496 94.5671 35.9496 95.8733 35.1439 96.679C34.3383 97.4847 33.032 97.4847 32.2263 96.679C31.4207 95.8733 31.4207 94.5671 32.2263 93.7614C33.032 92.9557 34.3383 92.9557 35.1439 93.7614Z" fill="white" fill-opacity="0.06"/>
<path d="M42.8358 101.453C43.6415 102.259 43.6415 103.565 42.8358 104.371C42.0301 105.177 40.7239 105.177 39.9182 104.371C39.1125 103.565 39.1125 102.259 39.9182 101.453C40.7239 100.648 42.0301 100.648 42.8358 101.453Z" fill="white" fill-opacity="0.06"/>
<path d="M50.5277 109.145C51.3334 109.951 51.3334 111.257 50.5277 112.063C49.722 112.868 48.4158 112.868 47.6101 112.063C46.8044 111.257 46.8044 109.951 47.6101 109.145C48.4158 108.339 49.722 108.339 50.5277 109.145Z" fill="white" fill-opacity="0.06"/>
<path d="M58.2196 24.5345C59.0253 25.3401 59.0253 26.6464 58.2196 27.4521C57.4139 28.2577 56.1077 28.2577 55.302 27.4521C54.4963 26.6464 54.4963 25.3401 55.302 24.5344C56.1077 23.7288 57.4139 23.7288 58.2196 24.5345Z" fill="white" fill-opacity="0.06"/>
<path d="M65.9115 32.2263C66.7171 33.032 66.7171 34.3383 65.9115 35.1439C65.1058 35.9496 63.7995 35.9496 62.9939 35.1439C62.1882 34.3383 62.1882 33.032 62.9939 32.2263C63.7995 31.4207 65.1058 31.4207 65.9115 32.2263Z" fill="white" fill-opacity="0.06"/>
<path d="M73.6033 39.9182C74.409 40.7239 74.409 42.0301 73.6034 42.8358C72.7977 43.6415 71.4914 43.6415 70.6857 42.8358C69.8801 42.0301 69.8801 40.7239 70.6857 39.9182C71.4914 39.1125 72.7977 39.1125 73.6033 39.9182Z" fill="white" fill-opacity="0.06"/>
<path d="M81.2952 47.6101C82.1009 48.4158 82.1009 49.722 81.2952 50.5277C80.4896 51.3334 79.1833 51.3334 78.3776 50.5277C77.5719 49.722 77.5719 48.4158 78.3776 47.6101C79.1833 46.8044 80.4896 46.8044 81.2952 47.6101Z" fill="white" fill-opacity="0.06"/>
<path d="M88.9871 55.302C89.7928 56.1077 89.7928 57.4139 88.9871 58.2196C88.1814 59.0253 86.8752 59.0253 86.0695 58.2196C85.2638 57.4139 85.2638 56.1077 86.0695 55.302C86.8752 54.4963 88.1814 54.4963 88.9871 55.302Z" fill="white" fill-opacity="0.06"/>
<path d="M96.679 62.9939C97.4847 63.7995 97.4847 65.1058 96.679 65.9115C95.8733 66.7171 94.5671 66.7171 93.7614 65.9115C92.9557 65.1058 92.9557 63.7995 93.7614 62.9939C94.5671 62.1882 95.8733 62.1882 96.679 62.9939Z" fill="white" fill-opacity="0.06"/>
<path d="M19.7602 62.9939C20.5659 63.7995 20.5659 65.1058 19.7602 65.9115C18.9545 66.7171 17.6482 66.7171 16.8426 65.9115C16.0369 65.1058 16.0369 63.7995 16.8426 62.9939C17.6482 62.1882 18.9545 62.1882 19.7602 62.9939Z" fill="white" fill-opacity="0.06"/>
<path d="M27.4521 70.6857C28.2577 71.4914 28.2577 72.7977 27.4521 73.6033C26.6464 74.409 25.3401 74.409 24.5345 73.6033C23.7288 72.7977 23.7288 71.4914 24.5345 70.6857C25.3401 69.8801 26.6464 69.8801 27.4521 70.6857Z" fill="white" fill-opacity="0.06"/>
<path d="M35.1439 78.3776C35.9496 79.1833 35.9496 80.4896 35.1439 81.2952C34.3383 82.1009 33.032 82.1009 32.2263 81.2952C31.4207 80.4896 31.4207 79.1833 32.2263 78.3776C33.032 77.5719 34.3383 77.5719 35.1439 78.3776Z" fill="white" fill-opacity="0.06"/>
<path d="M42.8358 86.0695C43.6415 86.8752 43.6415 88.1814 42.8358 88.9871C42.0301 89.7928 40.7239 89.7928 39.9182 88.9871C39.1125 88.1814 39.1125 86.8752 39.9182 86.0695C40.7239 85.2638 42.0301 85.2638 42.8358 86.0695Z" fill="white" fill-opacity="0.06"/>
<path d="M50.5277 93.7614C51.3334 94.5671 51.3334 95.8733 50.5277 96.679C49.722 97.4847 48.4158 97.4847 47.6101 96.679C46.8044 95.8733 46.8044 94.5671 47.6101 93.7614C48.4158 92.9557 49.722 92.9557 50.5277 93.7614Z" fill="white" fill-opacity="0.06"/>
<path d="M58.2196 101.453C59.0253 102.259 59.0253 103.565 58.2196 104.371C57.4139 105.177 56.1077 105.177 55.302 104.371C54.4963 103.565 54.4963 102.259 55.302 101.453C56.1077 100.648 57.4139 100.648 58.2196 101.453Z" fill="white" fill-opacity="0.06"/>
<path d="M65.9115 16.8426C66.7171 17.6482 66.7171 18.9545 65.9115 19.7602C65.1058 20.5659 63.7995 20.5659 62.9939 19.7602C62.1882 18.9545 62.1882 17.6482 62.9939 16.8426C63.7995 16.0369 65.1058 16.0369 65.9115 16.8426Z" fill="white" fill-opacity="0.06"/>
<path d="M73.6034 24.5344C74.409 25.3401 74.409 26.6464 73.6033 27.4521C72.7977 28.2577 71.4914 28.2577 70.6857 27.4521C69.8801 26.6464 69.8801 25.3401 70.6857 24.5345C71.4914 23.7288 72.7977 23.7288 73.6034 24.5344Z" fill="white" fill-opacity="0.06"/>
<path d="M81.2952 32.2263C82.1009 33.032 82.1009 34.3383 81.2952 35.1439C80.4896 35.9496 79.1833 35.9496 78.3776 35.1439C77.5719 34.3383 77.5719 33.032 78.3776 32.2263C79.1833 31.4207 80.4896 31.4207 81.2952 32.2263Z" fill="white" fill-opacity="0.06"/>
<path d="M88.9871 39.9182C89.7928 40.7239 89.7928 42.0301 88.9871 42.8358C88.1814 43.6415 86.8752 43.6415 86.0695 42.8358C85.2638 42.0301 85.2638 40.7239 86.0695 39.9182C86.8752 39.1125 88.1814 39.1125 88.9871 39.9182Z" fill="white" fill-opacity="0.06"/>
<path d="M96.679 47.6101C97.4847 48.4158 97.4847 49.722 96.679 50.5277C95.8733 51.3334 94.5671 51.3334 93.7614 50.5277C92.9557 49.722 92.9557 48.4158 93.7614 47.6101C94.5671 46.8044 95.8733 46.8044 96.679 47.6101Z" fill="white" fill-opacity="0.06"/>
<path d="M104.371 55.302C105.177 56.1077 105.177 57.4139 104.371 58.2196C103.565 59.0253 102.259 59.0253 101.453 58.2196C100.648 57.4139 100.648 56.1077 101.453 55.302C102.259 54.4963 103.565 54.4963 104.371 55.302Z" fill="white" fill-opacity="0.06"/>
<path d="M27.4521 55.302C28.2577 56.1077 28.2577 57.4139 27.4521 58.2196C26.6464 59.0253 25.3401 59.0253 24.5345 58.2196C23.7288 57.4139 23.7288 56.1077 24.5345 55.302C25.3401 54.4963 26.6464 54.4963 27.4521 55.302Z" fill="white" fill-opacity="0.06"/>
<path d="M35.1439 62.9939C35.9496 63.7995 35.9496 65.1058 35.1439 65.9115C34.3383 66.7171 33.032 66.7171 32.2263 65.9115C31.4207 65.1058 31.4207 63.7995 32.2263 62.9939C33.032 62.1882 34.3383 62.1882 35.1439 62.9939Z" fill="white" fill-opacity="0.06"/>
<path d="M42.8358 70.6857C43.6415 71.4914 43.6415 72.7977 42.8358 73.6033C42.0301 74.409 40.7239 74.409 39.9182 73.6033C39.1125 72.7977 39.1125 71.4914 39.9182 70.6857C40.7239 69.8801 42.0301 69.8801 42.8358 70.6857Z" fill="white" fill-opacity="0.06"/>
<path d="M50.5277 78.3776C51.3334 79.1833 51.3334 80.4896 50.5277 81.2952C49.722 82.1009 48.4158 82.1009 47.6101 81.2952C46.8044 80.4896 46.8044 79.1833 47.6101 78.3776C48.4158 77.5719 49.722 77.5719 50.5277 78.3776Z" fill="white" fill-opacity="0.06"/>
<path d="M58.2196 86.0695C59.0253 86.8752 59.0253 88.1814 58.2196 88.9871C57.4139 89.7928 56.1077 89.7928 55.302 88.9871C54.4963 88.1814 54.4963 86.8752 55.302 86.0695C56.1077 85.2638 57.4139 85.2638 58.2196 86.0695Z" fill="white" fill-opacity="0.06"/>
<path d="M65.9115 93.7614C66.7171 94.5671 66.7171 95.8733 65.9115 96.679C65.1058 97.4847 63.7995 97.4847 62.9939 96.679C62.1882 95.8733 62.1882 94.5671 62.9939 93.7614C63.7995 92.9557 65.1058 92.9557 65.9115 93.7614Z" fill="white" fill-opacity="0.06"/>
<path d="M73.6033 9.15069C74.409 9.95636 74.409 11.2626 73.6034 12.0683C72.7977 12.874 71.4914 12.874 70.6857 12.0683C69.8801 11.2626 69.8801 9.95636 70.6857 9.15068C71.4914 8.34501 72.7977 8.34501 73.6033 9.15069Z" fill="white" fill-opacity="0.06"/>
<path d="M81.2952 16.8426C82.1009 17.6482 82.1009 18.9545 81.2952 19.7602C80.4896 20.5659 79.1833 20.5659 78.3776 19.7602C77.5719 18.9545 77.5719 17.6482 78.3776 16.8426C79.1833 16.0369 80.4896 16.0369 81.2952 16.8426Z" fill="white" fill-opacity="0.06"/>
<path d="M88.9871 24.5345C89.7928 25.3401 89.7928 26.6464 88.9871 27.4521C88.1814 28.2577 86.8752 28.2577 86.0695 27.4521C85.2638 26.6464 85.2638 25.3401 86.0695 24.5344C86.8752 23.7288 88.1814 23.7288 88.9871 24.5345Z" fill="white" fill-opacity="0.06"/>
<path d="M96.679 32.2263C97.4847 33.032 97.4847 34.3383 96.679 35.1439C95.8733 35.9496 94.5671 35.9496 93.7614 35.1439C92.9557 34.3383 92.9557 33.032 93.7614 32.2263C94.5671 31.4207 95.8733 31.4207 96.679 32.2263Z" fill="white" fill-opacity="0.06"/>
<path d="M104.371 39.9182C105.177 40.7239 105.177 42.0301 104.371 42.8358C103.565 43.6415 102.259 43.6415 101.453 42.8358C100.648 42.0301 100.648 40.7239 101.453 39.9182C102.259 39.1125 103.565 39.1125 104.371 39.9182Z" fill="white" fill-opacity="0.06"/>
<path d="M112.063 47.6101C112.868 48.4158 112.868 49.722 112.063 50.5277C111.257 51.3334 109.951 51.3334 109.145 50.5277C108.339 49.722 108.339 48.4158 109.145 47.6101C109.951 46.8044 111.257 46.8044 112.063 47.6101Z" fill="white" fill-opacity="0.06"/>
<path d="M35.1439 47.6101C35.9496 48.4158 35.9496 49.722 35.1439 50.5277C34.3383 51.3334 33.032 51.3334 32.2263 50.5277C31.4207 49.722 31.4207 48.4158 32.2263 47.6101C33.032 46.8044 34.3383 46.8044 35.1439 47.6101Z" fill="white" fill-opacity="0.06"/>
<path d="M42.8358 55.302C43.6415 56.1077 43.6415 57.4139 42.8358 58.2196C42.0301 59.0253 40.7239 59.0253 39.9182 58.2196C39.1125 57.4139 39.1125 56.1077 39.9182 55.302C40.7239 54.4963 42.0301 54.4963 42.8358 55.302Z" fill="white" fill-opacity="0.06"/>
<path d="M50.5277 62.9939C51.3334 63.7995 51.3334 65.1058 50.5277 65.9115C49.722 66.7171 48.4158 66.7171 47.6101 65.9115C46.8044 65.1058 46.8044 63.7995 47.6101 62.9939C48.4158 62.1882 49.722 62.1882 50.5277 62.9939Z" fill="white" fill-opacity="0.06"/>
<path d="M58.2196 70.6857C59.0253 71.4914 59.0253 72.7977 58.2196 73.6033C57.4139 74.409 56.1077 74.409 55.302 73.6033C54.4963 72.7977 54.4963 71.4914 55.302 70.6857C56.1077 69.8801 57.4139 69.8801 58.2196 70.6857Z" fill="white" fill-opacity="0.06"/>
<path d="M65.9115 78.3776C66.7171 79.1833 66.7171 80.4896 65.9115 81.2952C65.1058 82.1009 63.7995 82.1009 62.9939 81.2952C62.1882 80.4896 62.1882 79.1833 62.9939 78.3776C63.7995 77.5719 65.1058 77.5719 65.9115 78.3776Z" fill="white" fill-opacity="0.06"/>
<path d="M73.6034 86.0695C74.409 86.8752 74.409 88.1814 73.6034 88.9871C72.7977 89.7928 71.4914 89.7928 70.6857 88.9871C69.8801 88.1814 69.8801 86.8752 70.6857 86.0695C71.4914 85.2638 72.7977 85.2638 73.6034 86.0695Z" fill="white" fill-opacity="0.06"/>
<path d="M81.2952 1.4588C82.1009 2.26448 82.1009 3.57074 81.2952 4.37641C80.4896 5.18209 79.1833 5.18209 78.3776 4.37642C77.5719 3.57074 77.5719 2.26448 78.3776 1.4588C79.1833 0.653129 80.4896 0.653127 81.2952 1.4588Z" fill="white" fill-opacity="0.06"/>
<path d="M88.9871 9.15068C89.7928 9.95636 89.7928 11.2626 88.9871 12.0683C88.1814 12.874 86.8752 12.874 86.0695 12.0683C85.2638 11.2626 85.2638 9.95636 86.0695 9.15069C86.8752 8.34501 88.1814 8.34501 88.9871 9.15068Z" fill="white" fill-opacity="0.06"/>
<path d="M96.679 16.8426C97.4847 17.6482 97.4847 18.9545 96.679 19.7602C95.8733 20.5659 94.5671 20.5659 93.7614 19.7602C92.9557 18.9545 92.9557 17.6482 93.7614 16.8426C94.5671 16.0369 95.8733 16.0369 96.679 16.8426Z" fill="white" fill-opacity="0.06"/>
<path d="M104.371 24.5344C105.177 25.3401 105.177 26.6464 104.371 27.4521C103.565 28.2577 102.259 28.2577 101.453 27.4521C100.648 26.6464 100.648 25.3401 101.453 24.5345C102.259 23.7288 103.565 23.7288 104.371 24.5344Z" fill="white" fill-opacity="0.06"/>
<path d="M112.063 32.2263C112.868 33.032 112.868 34.3383 112.063 35.1439C111.257 35.9496 109.951 35.9496 109.145 35.1439C108.339 34.3383 108.339 33.032 109.145 32.2263C109.951 31.4207 111.257 31.4207 112.063 32.2263Z" fill="white" fill-opacity="0.06"/>
<path d="M119.755 39.9182C120.56 40.7239 120.56 42.0301 119.755 42.8358C118.949 43.6415 117.643 43.6415 116.837 42.8358C116.031 42.0301 116.031 40.7239 116.837 39.9182C117.643 39.1125 118.949 39.1125 119.755 39.9182Z" fill="white" fill-opacity="0.06"/>
<path d="M42.8358 39.9182C43.6415 40.7239 43.6415 42.0301 42.8358 42.8358C42.0301 43.6415 40.7239 43.6415 39.9182 42.8358C39.1125 42.0301 39.1125 40.7239 39.9182 39.9182C40.7239 39.1125 42.0301 39.1125 42.8358 39.9182Z" fill="white" fill-opacity="0.06"/>
<path d="M50.5277 47.6101C51.3334 48.4158 51.3334 49.722 50.5277 50.5277C49.722 51.3334 48.4158 51.3334 47.6101 50.5277C46.8044 49.722 46.8044 48.4158 47.6101 47.6101C48.4158 46.8044 49.722 46.8044 50.5277 47.6101Z" fill="white" fill-opacity="0.06"/>
<path d="M58.2196 55.302C59.0253 56.1077 59.0253 57.4139 58.2196 58.2196C57.4139 59.0253 56.1077 59.0253 55.302 58.2196C54.4963 57.4139 54.4963 56.1077 55.302 55.302C56.1077 54.4963 57.4139 54.4963 58.2196 55.302Z" fill="white" fill-opacity="0.06"/>
<path d="M65.9115 62.9939C66.7171 63.7995 66.7171 65.1058 65.9115 65.9115C65.1058 66.7171 63.7995 66.7171 62.9939 65.9115C62.1882 65.1058 62.1882 63.7995 62.9939 62.9939C63.7995 62.1882 65.1058 62.1882 65.9115 62.9939Z" fill="white" fill-opacity="0.06"/>
<path d="M73.6034 70.6857C74.409 71.4914 74.409 72.7977 73.6034 73.6033C72.7977 74.409 71.4914 74.409 70.6857 73.6034C69.8801 72.7977 69.8801 71.4914 70.6857 70.6857C71.4914 69.8801 72.7977 69.8801 73.6034 70.6857Z" fill="white" fill-opacity="0.06"/>
<path d="M81.2952 78.3776C82.1009 79.1833 82.1009 80.4896 81.2952 81.2952C80.4896 82.1009 79.1833 82.1009 78.3776 81.2952C77.5719 80.4896 77.5719 79.1833 78.3776 78.3776C79.1833 77.5719 80.4896 77.5719 81.2952 78.3776Z" fill="white" fill-opacity="0.06"/>
<path d="M50.5277 32.2263C51.3334 33.032 51.3334 34.3383 50.5277 35.1439C49.722 35.9496 48.4158 35.9496 47.6101 35.1439C46.8044 34.3383 46.8044 33.032 47.6101 32.2263C48.4158 31.4207 49.722 31.4207 50.5277 32.2263Z" fill="white" fill-opacity="0.06"/>
<path d="M58.2196 39.9182C59.0253 40.7239 59.0253 42.0301 58.2196 42.8358C57.4139 43.6415 56.1077 43.6415 55.302 42.8358C54.4963 42.0301 54.4963 40.7239 55.302 39.9182C56.1077 39.1125 57.4139 39.1125 58.2196 39.9182Z" fill="white" fill-opacity="0.06"/>
<path d="M65.9115 47.6101C66.7171 48.4158 66.7171 49.722 65.9115 50.5277C65.1058 51.3334 63.7995 51.3334 62.9939 50.5277C62.1882 49.722 62.1882 48.4158 62.9939 47.6101C63.7995 46.8044 65.1058 46.8044 65.9115 47.6101Z" fill="white" fill-opacity="0.06"/>
<path d="M73.6034 55.302C74.409 56.1077 74.409 57.4139 73.6033 58.2196C72.7977 59.0253 71.4914 59.0253 70.6857 58.2196C69.8801 57.4139 69.8801 56.1077 70.6857 55.302C71.4914 54.4963 72.7977 54.4963 73.6034 55.302Z" fill="white" fill-opacity="0.06"/>
<path d="M81.2952 62.9939C82.1009 63.7995 82.1009 65.1058 81.2952 65.9115C80.4896 66.7171 79.1833 66.7171 78.3776 65.9115C77.5719 65.1058 77.5719 63.7995 78.3776 62.9939C79.1833 62.1882 80.4896 62.1882 81.2952 62.9939Z" fill="white" fill-opacity="0.06"/>
<path d="M88.9871 70.6857C89.7928 71.4914 89.7928 72.7977 88.9871 73.6034C88.1814 74.409 86.8752 74.409 86.0695 73.6033C85.2638 72.7977 85.2638 71.4914 86.0695 70.6857C86.8752 69.8801 88.1814 69.8801 88.9871 70.6857Z" fill="white" fill-opacity="0.06"/>
<path d="M50.5277 124.529C51.3334 125.335 51.3334 126.641 50.5277 127.447C49.722 128.252 48.4158 128.252 47.6101 127.447C46.8044 126.641 46.8044 125.335 47.6101 124.529C48.4158 123.723 49.722 123.723 50.5277 124.529Z" fill="white" fill-opacity="0.06"/>
<path d="M58.2196 132.221C59.0253 133.026 59.0253 134.333 58.2196 135.138C57.4139 135.944 56.1077 135.944 55.302 135.138C54.4963 134.333 54.4963 133.026 55.302 132.221C56.1077 131.415 57.4139 131.415 58.2196 132.221Z" fill="white" fill-opacity="0.06"/>
<path d="M65.9115 139.913C66.7171 140.718 66.7171 142.025 65.9115 142.83C65.1058 143.636 63.7995 143.636 62.9939 142.83C62.1882 142.025 62.1882 140.718 62.9939 139.913C63.7995 139.107 65.1058 139.107 65.9115 139.913Z" fill="white" fill-opacity="0.06"/>
<path d="M73.6034 147.605C74.409 148.41 74.409 149.716 73.6033 150.522C72.7977 151.328 71.4914 151.328 70.6857 150.522C69.8801 149.716 69.8801 148.41 70.6857 147.605C71.4914 146.799 72.7977 146.799 73.6034 147.605Z" fill="white" fill-opacity="0.06"/>
<path d="M81.2952 155.296C82.1009 156.102 82.1009 157.408 81.2952 158.214C80.4896 159.02 79.1833 159.02 78.3776 158.214C77.5719 157.408 77.5719 156.102 78.3776 155.296C79.1833 154.491 80.4896 154.491 81.2952 155.296Z" fill="white" fill-opacity="0.06"/>
<path d="M58.2196 116.837C59.0253 117.643 59.0253 118.949 58.2196 119.755C57.4139 120.56 56.1077 120.56 55.302 119.755C54.4963 118.949 54.4963 117.643 55.302 116.837C56.1077 116.031 57.4139 116.031 58.2196 116.837Z" fill="white" fill-opacity="0.06"/>
<path d="M65.9115 124.529C66.7171 125.335 66.7171 126.641 65.9115 127.447C65.1058 128.252 63.7995 128.252 62.9939 127.447C62.1882 126.641 62.1882 125.335 62.9939 124.529C63.7995 123.723 65.1058 123.723 65.9115 124.529Z" fill="white" fill-opacity="0.06"/>
<path d="M73.6033 132.221C74.409 133.026 74.409 134.333 73.6034 135.138C72.7977 135.944 71.4914 135.944 70.6857 135.138C69.8801 134.333 69.8801 133.026 70.6857 132.221C71.4914 131.415 72.7977 131.415 73.6033 132.221Z" fill="white" fill-opacity="0.06"/>
<path d="M81.2952 139.913C82.1009 140.718 82.1009 142.025 81.2952 142.83C80.4896 143.636 79.1833 143.636 78.3776 142.83C77.5719 142.025 77.5719 140.718 78.3776 139.913C79.1833 139.107 80.4896 139.107 81.2952 139.913Z" fill="white" fill-opacity="0.06"/>
<path d="M88.9871 147.605C89.7928 148.41 89.7928 149.716 88.9871 150.522C88.1814 151.328 86.8752 151.328 86.0695 150.522C85.2638 149.716 85.2638 148.41 86.0695 147.605C86.8752 146.799 88.1814 146.799 88.9871 147.605Z" fill="white" fill-opacity="0.06"/>
<path d="M104.371 70.6857C105.177 71.4914 105.177 72.7977 104.371 73.6033C103.565 74.409 102.259 74.409 101.453 73.6033C100.648 72.7977 100.648 71.4914 101.453 70.6857C102.259 69.8801 103.565 69.8801 104.371 70.6857Z" fill="white" fill-opacity="0.06"/>
<path d="M112.063 78.3776C112.868 79.1833 112.868 80.4896 112.063 81.2952C111.257 82.1009 109.951 82.1009 109.145 81.2952C108.339 80.4896 108.339 79.1833 109.145 78.3776C109.951 77.5719 111.257 77.5719 112.063 78.3776Z" fill="white" fill-opacity="0.06"/>
<path d="M119.755 86.0695C120.56 86.8752 120.56 88.1814 119.755 88.9871C118.949 89.7928 117.643 89.7928 116.837 88.9871C116.031 88.1814 116.031 86.8752 116.837 86.0695C117.643 85.2638 118.949 85.2638 119.755 86.0695Z" fill="white" fill-opacity="0.06"/>
<path d="M127.447 93.7614C128.252 94.5671 128.252 95.8733 127.447 96.679C126.641 97.4847 125.335 97.4847 124.529 96.679C123.723 95.8733 123.723 94.5671 124.529 93.7614C125.335 92.9557 126.641 92.9557 127.447 93.7614Z" fill="white" fill-opacity="0.06"/>
<path d="M135.138 101.453C135.944 102.259 135.944 103.565 135.138 104.371C134.333 105.177 133.026 105.177 132.221 104.371C131.415 103.565 131.415 102.259 132.221 101.453C133.026 100.648 134.333 100.648 135.138 101.453Z" fill="white" fill-opacity="0.06"/>
<path d="M65.9115 109.145C66.7171 109.951 66.7171 111.257 65.9115 112.063C65.1058 112.868 63.7995 112.868 62.9939 112.063C62.1882 111.257 62.1882 109.951 62.9939 109.145C63.7995 108.339 65.1058 108.339 65.9115 109.145Z" fill="white" fill-opacity="0.06"/>
<path d="M73.6034 116.837C74.409 117.643 74.409 118.949 73.6033 119.755C72.7977 120.56 71.4914 120.56 70.6857 119.755C69.8801 118.949 69.8801 117.643 70.6857 116.837C71.4914 116.031 72.7977 116.031 73.6034 116.837Z" fill="white" fill-opacity="0.06"/>
<path d="M81.2952 124.529C82.1009 125.335 82.1009 126.641 81.2952 127.447C80.4896 128.252 79.1833 128.252 78.3776 127.447C77.5719 126.641 77.5719 125.335 78.3776 124.529C79.1833 123.723 80.4896 123.723 81.2952 124.529Z" fill="white" fill-opacity="0.06"/>
<path d="M88.9871 132.221C89.7928 133.026 89.7928 134.333 88.9871 135.138C88.1814 135.944 86.8752 135.944 86.0695 135.138C85.2638 134.333 85.2638 133.026 86.0695 132.221C86.8752 131.415 88.1814 131.415 88.9871 132.221Z" fill="white" fill-opacity="0.06"/>
<path d="M96.679 139.913C97.4847 140.718 97.4847 142.025 96.679 142.83C95.8733 143.636 94.5671 143.636 93.7614 142.83C92.9557 142.025 92.9557 140.718 93.7614 139.913C94.5671 139.107 95.8733 139.107 96.679 139.913Z" fill="white" fill-opacity="0.06"/>
<path d="M112.063 62.9939C112.868 63.7995 112.868 65.1058 112.063 65.9115C111.257 66.7171 109.951 66.7171 109.145 65.9115C108.339 65.1058 108.339 63.7995 109.145 62.9939C109.951 62.1882 111.257 62.1882 112.063 62.9939Z" fill="white" fill-opacity="0.06"/>
<path d="M119.755 70.6857C120.56 71.4914 120.56 72.7977 119.755 73.6033C118.949 74.409 117.643 74.409 116.837 73.6033C116.031 72.7977 116.031 71.4914 116.837 70.6857C117.643 69.8801 118.949 69.8801 119.755 70.6857Z" fill="white" fill-opacity="0.06"/>
<path d="M127.447 78.3776C128.252 79.1833 128.252 80.4896 127.447 81.2952C126.641 82.1009 125.335 82.1009 124.529 81.2952C123.723 80.4896 123.723 79.1833 124.529 78.3776C125.335 77.5719 126.641 77.5719 127.447 78.3776Z" fill="white" fill-opacity="0.06"/>
<path d="M135.138 86.0695C135.944 86.8752 135.944 88.1814 135.138 88.9871C134.333 89.7928 133.026 89.7928 132.221 88.9871C131.415 88.1814 131.415 86.8752 132.221 86.0695C133.026 85.2638 134.333 85.2638 135.138 86.0695Z" fill="white" fill-opacity="0.06"/>
<path d="M142.83 93.7614C143.636 94.5671 143.636 95.8733 142.83 96.679C142.025 97.4847 140.718 97.4847 139.913 96.679C139.107 95.8733 139.107 94.5671 139.913 93.7614C140.718 92.9557 142.025 92.9557 142.83 93.7614Z" fill="white" fill-opacity="0.06"/>
<path d="M73.6033 101.453C74.409 102.259 74.409 103.565 73.6034 104.371C72.7977 105.177 71.4914 105.177 70.6857 104.371C69.8801 103.565 69.8801 102.259 70.6857 101.453C71.4914 100.648 72.7977 100.648 73.6033 101.453Z" fill="white" fill-opacity="0.06"/>
<path d="M81.2952 109.145C82.1009 109.951 82.1009 111.257 81.2952 112.063C80.4896 112.868 79.1833 112.868 78.3776 112.063C77.5719 111.257 77.5719 109.951 78.3776 109.145C79.1833 108.339 80.4896 108.339 81.2952 109.145Z" fill="white" fill-opacity="0.06"/>
<path d="M88.9871 116.837C89.7928 117.643 89.7928 118.949 88.9871 119.755C88.1814 120.56 86.8752 120.56 86.0695 119.755C85.2638 118.949 85.2638 117.643 86.0695 116.837C86.8752 116.031 88.1814 116.031 88.9871 116.837Z" fill="white" fill-opacity="0.06"/>
<path d="M96.679 124.529C97.4847 125.335 97.4847 126.641 96.679 127.447C95.8733 128.252 94.5671 128.252 93.7614 127.447C92.9557 126.641 92.9557 125.335 93.7614 124.529C94.5671 123.723 95.8733 123.723 96.679 124.529Z" fill="white" fill-opacity="0.06"/>
<path d="M104.371 132.221C105.177 133.026 105.177 134.333 104.371 135.138C103.565 135.944 102.259 135.944 101.453 135.138C100.648 134.333 100.648 133.026 101.453 132.221C102.259 131.415 103.565 131.415 104.371 132.221Z" fill="white" fill-opacity="0.06"/>
<path d="M119.755 55.302C120.56 56.1077 120.56 57.4139 119.755 58.2196C118.949 59.0253 117.643 59.0253 116.837 58.2196C116.031 57.4139 116.031 56.1077 116.837 55.302C117.643 54.4963 118.949 54.4963 119.755 55.302Z" fill="white" fill-opacity="0.06"/>
<path d="M127.447 62.9939C128.252 63.7995 128.252 65.1058 127.447 65.9115C126.641 66.7171 125.335 66.7171 124.529 65.9115C123.723 65.1058 123.723 63.7995 124.529 62.9939C125.335 62.1882 126.641 62.1882 127.447 62.9939Z" fill="white" fill-opacity="0.06"/>
<path d="M135.138 70.6857C135.944 71.4914 135.944 72.7977 135.138 73.6033C134.333 74.409 133.026 74.409 132.221 73.6033C131.415 72.7977 131.415 71.4914 132.221 70.6857C133.026 69.8801 134.333 69.8801 135.138 70.6857Z" fill="white" fill-opacity="0.06"/>
<path d="M142.83 78.3776C143.636 79.1833 143.636 80.4896 142.83 81.2952C142.025 82.1009 140.718 82.1009 139.913 81.2952C139.107 80.4896 139.107 79.1833 139.913 78.3776C140.718 77.5719 142.025 77.5719 142.83 78.3776Z" fill="white" fill-opacity="0.06"/>
<path d="M150.522 86.0695C151.328 86.8752 151.328 88.1814 150.522 88.9871C149.716 89.7928 148.41 89.7928 147.605 88.9871C146.799 88.1814 146.799 86.8752 147.605 86.0695C148.41 85.2638 149.716 85.2638 150.522 86.0695Z" fill="white" fill-opacity="0.06"/>
<path d="M81.2952 93.7614C82.1009 94.5671 82.1009 95.8733 81.2952 96.679C80.4896 97.4847 79.1833 97.4847 78.3776 96.679C77.5719 95.8733 77.5719 94.5671 78.3776 93.7614C79.1833 92.9557 80.4896 92.9557 81.2952 93.7614Z" fill="white" fill-opacity="0.06"/>
<path d="M88.9871 101.453C89.7928 102.259 89.7928 103.565 88.9871 104.371C88.1814 105.177 86.8752 105.177 86.0695 104.371C85.2638 103.565 85.2638 102.259 86.0695 101.453C86.8752 100.648 88.1814 100.648 88.9871 101.453Z" fill="white" fill-opacity="0.06"/>
<path d="M96.679 109.145C97.4847 109.951 97.4847 111.257 96.679 112.063C95.8733 112.868 94.5671 112.868 93.7614 112.063C92.9557 111.257 92.9557 109.951 93.7614 109.145C94.5671 108.339 95.8733 108.339 96.679 109.145Z" fill="white" fill-opacity="0.06"/>
<path d="M104.371 116.837C105.177 117.643 105.177 118.949 104.371 119.755C103.565 120.56 102.259 120.56 101.453 119.755C100.648 118.949 100.648 117.643 101.453 116.837C102.259 116.031 103.565 116.031 104.371 116.837Z" fill="white" fill-opacity="0.06"/>
<path d="M112.063 124.529C112.868 125.335 112.868 126.641 112.063 127.447C111.257 128.252 109.951 128.252 109.145 127.447C108.339 126.641 108.339 125.335 109.145 124.529C109.951 123.723 111.257 123.723 112.063 124.529Z" fill="white" fill-opacity="0.06"/>
<path d="M127.447 47.6101C128.252 48.4158 128.252 49.722 127.447 50.5277C126.641 51.3334 125.335 51.3334 124.529 50.5277C123.723 49.722 123.723 48.4158 124.529 47.6101C125.335 46.8044 126.641 46.8044 127.447 47.6101Z" fill="white" fill-opacity="0.06"/>
<path d="M135.138 55.302C135.944 56.1077 135.944 57.4139 135.138 58.2196C134.333 59.0253 133.026 59.0253 132.221 58.2196C131.415 57.4139 131.415 56.1077 132.221 55.302C133.026 54.4963 134.333 54.4963 135.138 55.302Z" fill="white" fill-opacity="0.06"/>
<path d="M142.83 62.9939C143.636 63.7995 143.636 65.1058 142.83 65.9115C142.025 66.7171 140.718 66.7171 139.913 65.9115C139.107 65.1058 139.107 63.7995 139.913 62.9939C140.718 62.1882 142.025 62.1882 142.83 62.9939Z" fill="white" fill-opacity="0.06"/>
<path d="M150.522 70.6857C151.328 71.4914 151.328 72.7977 150.522 73.6033C149.716 74.409 148.41 74.409 147.605 73.6034C146.799 72.7977 146.799 71.4914 147.605 70.6857C148.41 69.8801 149.716 69.8801 150.522 70.6857Z" fill="white" fill-opacity="0.06"/>
<path d="M158.214 78.3776C159.02 79.1833 159.02 80.4896 158.214 81.2952C157.408 82.1009 156.102 82.1009 155.296 81.2952C154.491 80.4896 154.491 79.1833 155.296 78.3776C156.102 77.5719 157.408 77.5719 158.214 78.3776Z" fill="white" fill-opacity="0.06"/>
<path d="M88.9871 86.0695C89.7928 86.8752 89.7928 88.1814 88.9871 88.9871C88.1814 89.7928 86.8752 89.7928 86.0695 88.9871C85.2638 88.1814 85.2638 86.8752 86.0695 86.0695C86.8752 85.2638 88.1814 85.2638 88.9871 86.0695Z" fill="white" fill-opacity="0.06"/>
<path d="M96.679 93.7614C97.4847 94.5671 97.4847 95.8733 96.679 96.679C95.8733 97.4847 94.5671 97.4847 93.7614 96.679C92.9557 95.8733 92.9557 94.5671 93.7614 93.7614C94.5671 92.9557 95.8733 92.9557 96.679 93.7614Z" fill="white" fill-opacity="0.06"/>
<path d="M104.371 101.453C105.177 102.259 105.177 103.565 104.371 104.371C103.565 105.177 102.259 105.177 101.453 104.371C100.648 103.565 100.648 102.259 101.453 101.453C102.259 100.648 103.565 100.648 104.371 101.453Z" fill="white" fill-opacity="0.06"/>
<path d="M112.063 109.145C112.868 109.951 112.868 111.257 112.063 112.063C111.257 112.868 109.951 112.868 109.145 112.063C108.339 111.257 108.339 109.951 109.145 109.145C109.951 108.339 111.257 108.339 112.063 109.145Z" fill="white" fill-opacity="0.06"/>
<path d="M119.755 116.837C120.56 117.643 120.56 118.949 119.755 119.755C118.949 120.56 117.643 120.56 116.837 119.755C116.031 118.949 116.031 117.643 116.837 116.837C117.643 116.031 118.949 116.031 119.755 116.837Z" fill="white" fill-opacity="0.06"/>
<path d="M96.679 78.3776C97.4847 79.1833 97.4847 80.4896 96.679 81.2952C95.8733 82.1009 94.5671 82.1009 93.7614 81.2952C92.9557 80.4896 92.9557 79.1833 93.7614 78.3776C94.5671 77.5719 95.8733 77.5719 96.679 78.3776Z" fill="white" fill-opacity="0.06"/>
<path d="M104.371 86.0695C105.177 86.8752 105.177 88.1814 104.371 88.9871C103.565 89.7928 102.259 89.7928 101.453 88.9871C100.648 88.1814 100.648 86.8752 101.453 86.0695C102.259 85.2638 103.565 85.2638 104.371 86.0695Z" fill="white" fill-opacity="0.06"/>
<path d="M112.063 93.7614C112.868 94.5671 112.868 95.8733 112.063 96.679C111.257 97.4847 109.951 97.4847 109.145 96.679C108.339 95.8733 108.339 94.5671 109.145 93.7614C109.951 92.9557 111.257 92.9557 112.063 93.7614Z" fill="white" fill-opacity="0.06"/>
<path d="M119.755 101.453C120.56 102.259 120.56 103.565 119.755 104.371C118.949 105.177 117.643 105.177 116.837 104.371C116.031 103.565 116.031 102.259 116.837 101.453C117.643 100.648 118.949 100.648 119.755 101.453Z" fill="white" fill-opacity="0.06"/>
<path d="M127.447 109.145C128.252 109.951 128.252 111.257 127.447 112.063C126.641 112.868 125.335 112.868 124.529 112.063C123.723 111.257 123.723 109.951 124.529 109.145C125.335 108.339 126.641 108.339 127.447 109.145Z" fill="white" fill-opacity="0.06"/>
</svg>
