<svg width="182" height="182" viewBox="0 0 182 182" fill="none" xmlns="http://www.w3.org/2000/svg">
<path d="M6.65116 3.32552C6.65116 5.16219 5.16225 6.6511 3.32558 6.6511C1.48891 6.6511 0 5.16219 0 3.32552C0 1.48885 1.48891 -6.10352e-05 3.32558 -6.10352e-05C5.16225 -6.10352e-05 6.65116 1.48885 6.65116 3.32552Z" fill="#DEECFA"/>
<path d="M6.65116 20.8604C6.65116 22.6971 5.16225 24.186 3.32558 24.186C1.48891 24.186 0 22.6971 0 20.8604C0 19.0237 1.48891 17.5348 3.32558 17.5348C5.16225 17.5348 6.65116 19.0237 6.65116 20.8604Z" fill="#DEECFA"/>
<path d="M6.65116 38.3953C6.65116 40.232 5.16225 41.7209 3.32558 41.7209C1.48891 41.7209 0 40.232 0 38.3953C0 36.5586 1.48891 35.0697 3.32558 35.0697C5.16225 35.0697 6.65116 36.5586 6.65116 38.3953Z" fill="#DEECFA"/>
<path d="M6.65116 55.9302C6.65116 57.7668 5.16225 59.2558 3.32558 59.2558C1.48891 59.2558 0 57.7668 0 55.9302C0 54.0935 1.48891 52.6046 3.32558 52.6046C5.16225 52.6046 6.65116 54.0935 6.65116 55.9302Z" fill="#DEECFA"/>
<path d="M6.65116 73.4651C6.65116 75.3017 5.16225 76.7906 3.32558 76.7906C1.48891 76.7906 0 75.3017 0 73.4651C0 71.6284 1.48891 70.1395 3.32558 70.1395C5.16225 70.1395 6.65116 71.6284 6.65116 73.4651Z" fill="#DEECFA"/>
<path d="M6.65116 90.9999C6.65116 92.8366 5.16225 94.3255 3.32558 94.3255C1.48891 94.3255 0 92.8366 0 90.9999C0 89.1633 1.48891 87.6744 3.32558 87.6744C5.16225 87.6744 6.65116 89.1633 6.65116 90.9999Z" fill="#DEECFA"/>
<path d="M24.186 3.32552C24.186 5.16219 22.6971 6.6511 20.8605 6.6511C19.0238 6.6511 17.5349 5.16219 17.5349 3.32552C17.5349 1.48885 19.0238 -6.10352e-05 20.8605 -6.10352e-05C22.6971 -6.10352e-05 24.186 1.48885 24.186 3.32552Z" fill="#DEECFA"/>
<path d="M24.186 20.8604C24.186 22.6971 22.6971 24.186 20.8605 24.186C19.0238 24.186 17.5349 22.6971 17.5349 20.8604C17.5349 19.0237 19.0238 17.5348 20.8605 17.5348C22.6971 17.5348 24.186 19.0237 24.186 20.8604Z" fill="#DEECFA"/>
<path d="M24.186 38.3953C24.186 40.232 22.6971 41.7209 20.8605 41.7209C19.0238 41.7209 17.5349 40.232 17.5349 38.3953C17.5349 36.5586 19.0238 35.0697 20.8605 35.0697C22.6971 35.0697 24.186 36.5586 24.186 38.3953Z" fill="#DEECFA"/>
<path d="M24.186 55.9302C24.186 57.7668 22.6971 59.2558 20.8605 59.2558C19.0238 59.2558 17.5349 57.7668 17.5349 55.9302C17.5349 54.0935 19.0238 52.6046 20.8605 52.6046C22.6971 52.6046 24.186 54.0935 24.186 55.9302Z" fill="#DEECFA"/>
<path d="M24.186 73.4651C24.186 75.3017 22.6971 76.7906 20.8605 76.7906C19.0238 76.7906 17.5349 75.3017 17.5349 73.4651C17.5349 71.6284 19.0238 70.1395 20.8605 70.1395C22.6971 70.1395 24.186 71.6284 24.186 73.4651Z" fill="#DEECFA"/>
<path d="M24.186 90.9999C24.186 92.8366 22.6971 94.3255 20.8605 94.3255C19.0238 94.3255 17.5349 92.8366 17.5349 90.9999C17.5349 89.1633 19.0238 87.6744 20.8605 87.6744C22.6971 87.6744 24.186 89.1633 24.186 90.9999Z" fill="#DEECFA"/>
<path d="M129.395 3.32552C129.395 5.16219 127.906 6.6511 126.07 6.6511C124.233 6.6511 122.744 5.16219 122.744 3.32552C122.744 1.48885 124.233 -6.10352e-05 126.07 -6.10352e-05C127.906 -6.10352e-05 129.395 1.48885 129.395 3.32552Z" fill="#DEECFA"/>
<path d="M129.395 20.8604C129.395 22.6971 127.906 24.186 126.07 24.186C124.233 24.186 122.744 22.6971 122.744 20.8604C122.744 19.0237 124.233 17.5348 126.07 17.5348C127.906 17.5348 129.395 19.0237 129.395 20.8604Z" fill="#DEECFA"/>
<path d="M129.395 38.3953C129.395 40.232 127.906 41.7209 126.07 41.7209C124.233 41.7209 122.744 40.232 122.744 38.3953C122.744 36.5586 124.233 35.0697 126.07 35.0697C127.906 35.0697 129.395 36.5586 129.395 38.3953Z" fill="#DEECFA"/>
<path d="M129.395 55.9302C129.395 57.7668 127.906 59.2558 126.07 59.2558C124.233 59.2558 122.744 57.7668 122.744 55.9302C122.744 54.0935 124.233 52.6046 126.07 52.6046C127.906 52.6046 129.395 54.0935 129.395 55.9302Z" fill="#DEECFA"/>
<path d="M129.395 73.4651C129.395 75.3017 127.906 76.7906 126.07 76.7906C124.233 76.7906 122.744 75.3017 122.744 73.4651C122.744 71.6284 124.233 70.1395 126.07 70.1395C127.906 70.1395 129.395 71.6284 129.395 73.4651Z" fill="#DEECFA"/>
<path d="M129.395 90.9999C129.395 92.8366 127.906 94.3255 126.07 94.3255C124.233 94.3255 122.744 92.8366 122.744 90.9999C122.744 89.1633 124.233 87.6744 126.07 87.6744C127.906 87.6744 129.395 89.1633 129.395 90.9999Z" fill="#DEECFA"/>
<path d="M41.7209 3.32552C41.7209 5.16219 40.232 6.6511 38.3953 6.6511C36.5587 6.6511 35.0698 5.16219 35.0698 3.32552C35.0698 1.48885 36.5587 -6.10352e-05 38.3953 -6.10352e-05C40.232 -6.10352e-05 41.7209 1.48885 41.7209 3.32552Z" fill="#DEECFA"/>
<path d="M41.7209 20.8604C41.7209 22.6971 40.232 24.186 38.3953 24.186C36.5587 24.186 35.0698 22.6971 35.0698 20.8604C35.0698 19.0237 36.5587 17.5348 38.3953 17.5348C40.232 17.5348 41.7209 19.0237 41.7209 20.8604Z" fill="#DEECFA"/>
<path d="M41.7209 38.3953C41.7209 40.232 40.232 41.7209 38.3953 41.7209C36.5587 41.7209 35.0698 40.232 35.0698 38.3953C35.0698 36.5586 36.5587 35.0697 38.3953 35.0697C40.232 35.0697 41.7209 36.5586 41.7209 38.3953Z" fill="#DEECFA"/>
<path d="M41.7209 55.9302C41.7209 57.7668 40.232 59.2558 38.3953 59.2558C36.5587 59.2558 35.0698 57.7668 35.0698 55.9302C35.0698 54.0935 36.5587 52.6046 38.3953 52.6046C40.232 52.6046 41.7209 54.0935 41.7209 55.9302Z" fill="#DEECFA"/>
<path d="M41.7209 73.4651C41.7209 75.3017 40.232 76.7906 38.3953 76.7906C36.5587 76.7906 35.0698 75.3017 35.0698 73.4651C35.0698 71.6284 36.5587 70.1395 38.3953 70.1395C40.232 70.1395 41.7209 71.6284 41.7209 73.4651Z" fill="#DEECFA"/>
<path d="M41.7209 90.9999C41.7209 92.8366 40.232 94.3255 38.3953 94.3255C36.5587 94.3255 35.0698 92.8366 35.0698 90.9999C35.0698 89.1633 36.5587 87.6744 38.3953 87.6744C40.232 87.6744 41.7209 89.1633 41.7209 90.9999Z" fill="#DEECFA"/>
<path d="M146.93 3.32552C146.93 5.16219 145.441 6.6511 143.605 6.6511C141.768 6.6511 140.279 5.16219 140.279 3.32552C140.279 1.48885 141.768 -6.10352e-05 143.605 -6.10352e-05C145.441 -6.10352e-05 146.93 1.48885 146.93 3.32552Z" fill="#DEECFA"/>
<path d="M146.93 20.8604C146.93 22.6971 145.441 24.186 143.605 24.186C141.768 24.186 140.279 22.6971 140.279 20.8604C140.279 19.0237 141.768 17.5348 143.605 17.5348C145.441 17.5348 146.93 19.0237 146.93 20.8604Z" fill="#DEECFA"/>
<path d="M146.93 38.3953C146.93 40.232 145.441 41.7209 143.605 41.7209C141.768 41.7209 140.279 40.232 140.279 38.3953C140.279 36.5586 141.768 35.0697 143.605 35.0697C145.441 35.0697 146.93 36.5586 146.93 38.3953Z" fill="#DEECFA"/>
<path d="M146.93 55.9302C146.93 57.7668 145.441 59.2558 143.605 59.2558C141.768 59.2558 140.279 57.7668 140.279 55.9302C140.279 54.0935 141.768 52.6046 143.605 52.6046C145.441 52.6046 146.93 54.0935 146.93 55.9302Z" fill="#DEECFA"/>
<path d="M146.93 73.4651C146.93 75.3017 145.441 76.7906 143.605 76.7906C141.768 76.7906 140.279 75.3017 140.279 73.4651C140.279 71.6284 141.768 70.1395 143.605 70.1395C145.441 70.1395 146.93 71.6284 146.93 73.4651Z" fill="#DEECFA"/>
<path d="M146.93 90.9999C146.93 92.8366 145.441 94.3255 143.605 94.3255C141.768 94.3255 140.279 92.8366 140.279 90.9999C140.279 89.1633 141.768 87.6744 143.605 87.6744C145.441 87.6744 146.93 89.1633 146.93 90.9999Z" fill="#DEECFA"/>
<path d="M59.2558 3.32552C59.2558 5.16219 57.7669 6.6511 55.9302 6.6511C54.0936 6.6511 52.6046 5.16219 52.6046 3.32552C52.6046 1.48885 54.0936 -6.10352e-05 55.9302 -6.10352e-05C57.7669 -6.10352e-05 59.2558 1.48885 59.2558 3.32552Z" fill="#DEECFA"/>
<path d="M59.2558 20.8604C59.2558 22.6971 57.7669 24.186 55.9302 24.186C54.0936 24.186 52.6046 22.6971 52.6046 20.8604C52.6046 19.0237 54.0936 17.5348 55.9302 17.5348C57.7669 17.5348 59.2558 19.0237 59.2558 20.8604Z" fill="#DEECFA"/>
<path d="M59.2558 38.3953C59.2558 40.232 57.7669 41.7209 55.9302 41.7209C54.0936 41.7209 52.6046 40.232 52.6046 38.3953C52.6046 36.5586 54.0936 35.0697 55.9302 35.0697C57.7669 35.0697 59.2558 36.5586 59.2558 38.3953Z" fill="#DEECFA"/>
<path d="M59.2558 55.9302C59.2558 57.7668 57.7669 59.2558 55.9302 59.2558C54.0936 59.2558 52.6046 57.7668 52.6046 55.9302C52.6046 54.0935 54.0936 52.6046 55.9302 52.6046C57.7669 52.6046 59.2558 54.0935 59.2558 55.9302Z" fill="#DEECFA"/>
<path d="M59.2558 73.4651C59.2558 75.3017 57.7669 76.7906 55.9302 76.7906C54.0936 76.7906 52.6046 75.3017 52.6046 73.4651C52.6046 71.6284 54.0936 70.1395 55.9302 70.1395C57.7669 70.1395 59.2558 71.6284 59.2558 73.4651Z" fill="#DEECFA"/>
<path d="M59.2558 90.9999C59.2558 92.8366 57.7669 94.3255 55.9302 94.3255C54.0936 94.3255 52.6046 92.8366 52.6046 90.9999C52.6046 89.1633 54.0936 87.6744 55.9302 87.6744C57.7669 87.6744 59.2558 89.1633 59.2558 90.9999Z" fill="#DEECFA"/>
<path d="M164.465 3.32552C164.465 5.16219 162.976 6.6511 161.14 6.6511C159.303 6.6511 157.814 5.16219 157.814 3.32552C157.814 1.48885 159.303 -6.10352e-05 161.14 -6.10352e-05C162.976 -6.10352e-05 164.465 1.48885 164.465 3.32552Z" fill="#DEECFA"/>
<path d="M164.465 20.8604C164.465 22.6971 162.976 24.186 161.14 24.186C159.303 24.186 157.814 22.6971 157.814 20.8604C157.814 19.0237 159.303 17.5348 161.14 17.5348C162.976 17.5348 164.465 19.0237 164.465 20.8604Z" fill="#DEECFA"/>
<path d="M164.465 38.3953C164.465 40.232 162.976 41.7209 161.14 41.7209C159.303 41.7209 157.814 40.232 157.814 38.3953C157.814 36.5586 159.303 35.0697 161.14 35.0697C162.976 35.0697 164.465 36.5586 164.465 38.3953Z" fill="#DEECFA"/>
<path d="M164.465 55.9302C164.465 57.7668 162.976 59.2558 161.14 59.2558C159.303 59.2558 157.814 57.7668 157.814 55.9302C157.814 54.0935 159.303 52.6046 161.14 52.6046C162.976 52.6046 164.465 54.0935 164.465 55.9302Z" fill="#DEECFA"/>
<path d="M164.465 73.4651C164.465 75.3017 162.976 76.7906 161.14 76.7906C159.303 76.7906 157.814 75.3017 157.814 73.4651C157.814 71.6284 159.303 70.1395 161.14 70.1395C162.976 70.1395 164.465 71.6284 164.465 73.4651Z" fill="#DEECFA"/>
<path d="M164.465 90.9999C164.465 92.8366 162.976 94.3255 161.14 94.3255C159.303 94.3255 157.814 92.8366 157.814 90.9999C157.814 89.1633 159.303 87.6744 161.14 87.6744C162.976 87.6744 164.465 89.1633 164.465 90.9999Z" fill="#DEECFA"/>
<path d="M76.7907 3.32552C76.7907 5.16219 75.3018 6.6511 73.4651 6.6511C71.6284 6.6511 70.1395 5.16219 70.1395 3.32552C70.1395 1.48885 71.6284 -6.10352e-05 73.4651 -6.10352e-05C75.3018 -6.10352e-05 76.7907 1.48885 76.7907 3.32552Z" fill="#DEECFA"/>
<path d="M76.7907 20.8604C76.7907 22.6971 75.3018 24.186 73.4651 24.186C71.6284 24.186 70.1395 22.6971 70.1395 20.8604C70.1395 19.0237 71.6284 17.5348 73.4651 17.5348C75.3018 17.5348 76.7907 19.0237 76.7907 20.8604Z" fill="#DEECFA"/>
<path d="M76.7907 38.3953C76.7907 40.232 75.3018 41.7209 73.4651 41.7209C71.6284 41.7209 70.1395 40.232 70.1395 38.3953C70.1395 36.5586 71.6284 35.0697 73.4651 35.0697C75.3018 35.0697 76.7907 36.5586 76.7907 38.3953Z" fill="#DEECFA"/>
<path d="M76.7907 55.9302C76.7907 57.7668 75.3018 59.2558 73.4651 59.2558C71.6284 59.2558 70.1395 57.7668 70.1395 55.9302C70.1395 54.0935 71.6284 52.6046 73.4651 52.6046C75.3018 52.6046 76.7907 54.0935 76.7907 55.9302Z" fill="#DEECFA"/>
<path d="M76.7907 73.4651C76.7907 75.3017 75.3018 76.7906 73.4651 76.7906C71.6284 76.7906 70.1395 75.3017 70.1395 73.4651C70.1395 71.6284 71.6284 70.1395 73.4651 70.1395C75.3018 70.1395 76.7907 71.6284 76.7907 73.4651Z" fill="#DEECFA"/>
<path d="M76.7907 90.9999C76.7907 92.8366 75.3018 94.3255 73.4651 94.3255C71.6284 94.3255 70.1395 92.8366 70.1395 90.9999C70.1395 89.1633 71.6284 87.6744 73.4651 87.6744C75.3018 87.6744 76.7907 89.1633 76.7907 90.9999Z" fill="#DEECFA"/>
<path d="M182 3.32552C182 5.16219 180.511 6.6511 178.674 6.6511C176.838 6.6511 175.349 5.16219 175.349 3.32552C175.349 1.48885 176.838 -6.10352e-05 178.674 -6.10352e-05C180.511 -6.10352e-05 182 1.48885 182 3.32552Z" fill="#DEECFA"/>
<path d="M182 20.8604C182 22.6971 180.511 24.186 178.674 24.186C176.838 24.186 175.349 22.6971 175.349 20.8604C175.349 19.0237 176.838 17.5348 178.674 17.5348C180.511 17.5348 182 19.0237 182 20.8604Z" fill="#DEECFA"/>
<path d="M182 38.3953C182 40.232 180.511 41.7209 178.674 41.7209C176.838 41.7209 175.349 40.232 175.349 38.3953C175.349 36.5586 176.838 35.0697 178.674 35.0697C180.511 35.0697 182 36.5586 182 38.3953Z" fill="#DEECFA"/>
<path d="M182 55.9302C182 57.7668 180.511 59.2558 178.674 59.2558C176.838 59.2558 175.349 57.7668 175.349 55.9302C175.349 54.0935 176.838 52.6046 178.674 52.6046C180.511 52.6046 182 54.0935 182 55.9302Z" fill="#DEECFA"/>
<path d="M182 73.4651C182 75.3017 180.511 76.7906 178.674 76.7906C176.838 76.7906 175.349 75.3017 175.349 73.4651C175.349 71.6284 176.838 70.1395 178.674 70.1395C180.511 70.1395 182 71.6284 182 73.4651Z" fill="#DEECFA"/>
<path d="M182 90.9999C182 92.8366 180.511 94.3255 178.674 94.3255C176.838 94.3255 175.349 92.8366 175.349 90.9999C175.349 89.1633 176.838 87.6744 178.674 87.6744C180.511 87.6744 182 89.1633 182 90.9999Z" fill="#DEECFA"/>
<path d="M94.3256 3.32552C94.3256 5.16219 92.8367 6.6511 91 6.6511C89.1633 6.6511 87.6744 5.16219 87.6744 3.32552C87.6744 1.48885 89.1633 -6.10352e-05 91 -6.10352e-05C92.8367 -6.10352e-05 94.3256 1.48885 94.3256 3.32552Z" fill="#DEECFA"/>
<path d="M94.3256 20.8604C94.3256 22.6971 92.8367 24.186 91 24.186C89.1633 24.186 87.6744 22.6971 87.6744 20.8604C87.6744 19.0237 89.1633 17.5348 91 17.5348C92.8367 17.5348 94.3256 19.0237 94.3256 20.8604Z" fill="#DEECFA"/>
<path d="M94.3256 38.3953C94.3256 40.232 92.8367 41.7209 91 41.7209C89.1633 41.7209 87.6744 40.232 87.6744 38.3953C87.6744 36.5586 89.1633 35.0697 91 35.0697C92.8367 35.0697 94.3256 36.5586 94.3256 38.3953Z" fill="#DEECFA"/>
<path d="M94.3256 55.9302C94.3256 57.7668 92.8367 59.2558 91 59.2558C89.1633 59.2558 87.6744 57.7668 87.6744 55.9302C87.6744 54.0935 89.1633 52.6046 91 52.6046C92.8367 52.6046 94.3256 54.0935 94.3256 55.9302Z" fill="#DEECFA"/>
<path d="M94.3256 73.4651C94.3256 75.3017 92.8367 76.7906 91 76.7906C89.1633 76.7906 87.6744 75.3017 87.6744 73.4651C87.6744 71.6284 89.1633 70.1395 91 70.1395C92.8367 70.1395 94.3256 71.6284 94.3256 73.4651Z" fill="#DEECFA"/>
<path d="M94.3256 90.9999C94.3256 92.8366 92.8367 94.3255 91 94.3255C89.1633 94.3255 87.6744 92.8366 87.6744 90.9999C87.6744 89.1633 89.1633 87.6744 91 87.6744C92.8367 87.6744 94.3256 89.1633 94.3256 90.9999Z" fill="#DEECFA"/>
<path d="M111.86 3.32552C111.86 5.16219 110.372 6.6511 108.535 6.6511C106.698 6.6511 105.209 5.16219 105.209 3.32552C105.209 1.48885 106.698 -6.10352e-05 108.535 -6.10352e-05C110.372 -6.10352e-05 111.86 1.48885 111.86 3.32552Z" fill="#DEECFA"/>
<path d="M111.86 20.8604C111.86 22.6971 110.372 24.186 108.535 24.186C106.698 24.186 105.209 22.6971 105.209 20.8604C105.209 19.0237 106.698 17.5348 108.535 17.5348C110.372 17.5348 111.86 19.0237 111.86 20.8604Z" fill="#DEECFA"/>
<path d="M111.86 38.3953C111.86 40.232 110.372 41.7209 108.535 41.7209C106.698 41.7209 105.209 40.232 105.209 38.3953C105.209 36.5586 106.698 35.0697 108.535 35.0697C110.372 35.0697 111.86 36.5586 111.86 38.3953Z" fill="#DEECFA"/>
<path d="M111.86 55.9302C111.86 57.7668 110.372 59.2558 108.535 59.2558C106.698 59.2558 105.209 57.7668 105.209 55.9302C105.209 54.0935 106.698 52.6046 108.535 52.6046C110.372 52.6046 111.86 54.0935 111.86 55.9302Z" fill="#DEECFA"/>
<path d="M111.86 73.4651C111.86 75.3017 110.372 76.7906 108.535 76.7906C106.698 76.7906 105.209 75.3017 105.209 73.4651C105.209 71.6284 106.698 70.1395 108.535 70.1395C110.372 70.1395 111.86 71.6284 111.86 73.4651Z" fill="#DEECFA"/>
<path d="M111.86 90.9999C111.86 92.8366 110.372 94.3255 108.535 94.3255C106.698 94.3255 105.209 92.8366 105.209 90.9999C105.209 89.1633 106.698 87.6744 108.535 87.6744C110.372 87.6744 111.86 89.1633 111.86 90.9999Z" fill="#DEECFA"/>
<path d="M6.65116 108.535C6.65116 110.371 5.16225 111.86 3.32558 111.86C1.48891 111.86 0 110.371 0 108.535C0 106.698 1.48891 105.209 3.32558 105.209C5.16225 105.209 6.65116 106.698 6.65116 108.535Z" fill="#DEECFA"/>
<path d="M6.65116 126.07C6.65116 127.906 5.16225 129.395 3.32558 129.395C1.48891 129.395 0 127.906 0 126.07C0 124.233 1.48891 122.744 3.32558 122.744C5.16225 122.744 6.65116 124.233 6.65116 126.07Z" fill="#DEECFA"/>
<path d="M6.65116 143.605C6.65116 145.441 5.16225 146.93 3.32558 146.93C1.48891 146.93 0 145.441 0 143.605C0 141.768 1.48891 140.279 3.32558 140.279C5.16225 140.279 6.65116 141.768 6.65116 143.605Z" fill="#DEECFA"/>
<path d="M6.65116 161.139C6.65116 162.976 5.16225 164.465 3.32558 164.465C1.48891 164.465 0 162.976 0 161.139C0 159.303 1.48891 157.814 3.32558 157.814C5.16225 157.814 6.65116 159.303 6.65116 161.139Z" fill="#DEECFA"/>
<path d="M6.65116 178.674C6.65116 180.511 5.16225 182 3.32558 182C1.48891 182 0 180.511 0 178.674C0 176.838 1.48891 175.349 3.32558 175.349C5.16225 175.349 6.65116 176.838 6.65116 178.674Z" fill="#DEECFA"/>
<path d="M24.186 108.535C24.186 110.371 22.6971 111.86 20.8605 111.86C19.0238 111.86 17.5349 110.371 17.5349 108.535C17.5349 106.698 19.0238 105.209 20.8605 105.209C22.6971 105.209 24.186 106.698 24.186 108.535Z" fill="#DEECFA"/>
<path d="M24.186 126.07C24.186 127.906 22.6971 129.395 20.8605 129.395C19.0238 129.395 17.5349 127.906 17.5349 126.07C17.5349 124.233 19.0238 122.744 20.8605 122.744C22.6971 122.744 24.186 124.233 24.186 126.07Z" fill="#DEECFA"/>
<path d="M24.186 143.605C24.186 145.441 22.6971 146.93 20.8605 146.93C19.0238 146.93 17.5349 145.441 17.5349 143.605C17.5349 141.768 19.0238 140.279 20.8605 140.279C22.6971 140.279 24.186 141.768 24.186 143.605Z" fill="#DEECFA"/>
<path d="M24.186 161.139C24.186 162.976 22.6971 164.465 20.8605 164.465C19.0238 164.465 17.5349 162.976 17.5349 161.139C17.5349 159.303 19.0238 157.814 20.8605 157.814C22.6971 157.814 24.186 159.303 24.186 161.139Z" fill="#DEECFA"/>
<path d="M24.186 178.674C24.186 180.511 22.6971 182 20.8605 182C19.0238 182 17.5349 180.511 17.5349 178.674C17.5349 176.838 19.0238 175.349 20.8605 175.349C22.6971 175.349 24.186 176.838 24.186 178.674Z" fill="#DEECFA"/>
<path d="M129.395 108.535C129.395 110.371 127.906 111.86 126.07 111.86C124.233 111.86 122.744 110.371 122.744 108.535C122.744 106.698 124.233 105.209 126.07 105.209C127.906 105.209 129.395 106.698 129.395 108.535Z" fill="#DEECFA"/>
<path d="M129.395 126.07C129.395 127.906 127.906 129.395 126.07 129.395C124.233 129.395 122.744 127.906 122.744 126.07C122.744 124.233 124.233 122.744 126.07 122.744C127.906 122.744 129.395 124.233 129.395 126.07Z" fill="#DEECFA"/>
<path d="M129.395 143.605C129.395 145.441 127.906 146.93 126.07 146.93C124.233 146.93 122.744 145.441 122.744 143.605C122.744 141.768 124.233 140.279 126.07 140.279C127.906 140.279 129.395 141.768 129.395 143.605Z" fill="#DEECFA"/>
<path d="M129.395 161.139C129.395 162.976 127.906 164.465 126.07 164.465C124.233 164.465 122.744 162.976 122.744 161.139C122.744 159.303 124.233 157.814 126.07 157.814C127.906 157.814 129.395 159.303 129.395 161.139Z" fill="#DEECFA"/>
<path d="M129.395 178.674C129.395 180.511 127.906 182 126.07 182C124.233 182 122.744 180.511 122.744 178.674C122.744 176.838 124.233 175.349 126.07 175.349C127.906 175.349 129.395 176.838 129.395 178.674Z" fill="#DEECFA"/>
<path d="M41.7209 108.535C41.7209 110.371 40.232 111.86 38.3953 111.86C36.5587 111.86 35.0698 110.371 35.0698 108.535C35.0698 106.698 36.5587 105.209 38.3953 105.209C40.232 105.209 41.7209 106.698 41.7209 108.535Z" fill="#DEECFA"/>
<path d="M41.7209 126.07C41.7209 127.906 40.232 129.395 38.3953 129.395C36.5587 129.395 35.0698 127.906 35.0698 126.07C35.0698 124.233 36.5587 122.744 38.3953 122.744C40.232 122.744 41.7209 124.233 41.7209 126.07Z" fill="#DEECFA"/>
<path d="M41.7209 143.605C41.7209 145.441 40.232 146.93 38.3953 146.93C36.5587 146.93 35.0698 145.441 35.0698 143.605C35.0698 141.768 36.5587 140.279 38.3953 140.279C40.232 140.279 41.7209 141.768 41.7209 143.605Z" fill="#DEECFA"/>
<path d="M41.7209 161.139C41.7209 162.976 40.232 164.465 38.3953 164.465C36.5587 164.465 35.0698 162.976 35.0698 161.139C35.0698 159.303 36.5587 157.814 38.3953 157.814C40.232 157.814 41.7209 159.303 41.7209 161.139Z" fill="#DEECFA"/>
<path d="M41.7209 178.674C41.7209 180.511 40.232 182 38.3953 182C36.5587 182 35.0698 180.511 35.0698 178.674C35.0698 176.838 36.5587 175.349 38.3953 175.349C40.232 175.349 41.7209 176.838 41.7209 178.674Z" fill="#DEECFA"/>
<path d="M146.93 108.535C146.93 110.371 145.441 111.86 143.605 111.86C141.768 111.86 140.279 110.371 140.279 108.535C140.279 106.698 141.768 105.209 143.605 105.209C145.441 105.209 146.93 106.698 146.93 108.535Z" fill="#DEECFA"/>
<path d="M146.93 126.07C146.93 127.906 145.441 129.395 143.605 129.395C141.768 129.395 140.279 127.906 140.279 126.07C140.279 124.233 141.768 122.744 143.605 122.744C145.441 122.744 146.93 124.233 146.93 126.07Z" fill="#DEECFA"/>
<path d="M146.93 143.605C146.93 145.441 145.441 146.93 143.605 146.93C141.768 146.93 140.279 145.441 140.279 143.605C140.279 141.768 141.768 140.279 143.605 140.279C145.441 140.279 146.93 141.768 146.93 143.605Z" fill="#DEECFA"/>
<path d="M146.93 161.139C146.93 162.976 145.441 164.465 143.605 164.465C141.768 164.465 140.279 162.976 140.279 161.139C140.279 159.303 141.768 157.814 143.605 157.814C145.441 157.814 146.93 159.303 146.93 161.139Z" fill="#DEECFA"/>
<path d="M146.93 178.674C146.93 180.511 145.441 182 143.605 182C141.768 182 140.279 180.511 140.279 178.674C140.279 176.838 141.768 175.349 143.605 175.349C145.441 175.349 146.93 176.838 146.93 178.674Z" fill="#DEECFA"/>
<path d="M59.2558 108.535C59.2558 110.371 57.7669 111.86 55.9302 111.86C54.0936 111.86 52.6046 110.371 52.6046 108.535C52.6046 106.698 54.0936 105.209 55.9302 105.209C57.7669 105.209 59.2558 106.698 59.2558 108.535Z" fill="#DEECFA"/>
<path d="M59.2558 126.07C59.2558 127.906 57.7669 129.395 55.9302 129.395C54.0936 129.395 52.6046 127.906 52.6046 126.07C52.6046 124.233 54.0936 122.744 55.9302 122.744C57.7669 122.744 59.2558 124.233 59.2558 126.07Z" fill="#DEECFA"/>
<path d="M59.2558 143.605C59.2558 145.441 57.7669 146.93 55.9302 146.93C54.0936 146.93 52.6046 145.441 52.6046 143.605C52.6046 141.768 54.0936 140.279 55.9302 140.279C57.7669 140.279 59.2558 141.768 59.2558 143.605Z" fill="#DEECFA"/>
<path d="M59.2558 161.139C59.2558 162.976 57.7669 164.465 55.9302 164.465C54.0936 164.465 52.6046 162.976 52.6046 161.139C52.6046 159.303 54.0936 157.814 55.9302 157.814C57.7669 157.814 59.2558 159.303 59.2558 161.139Z" fill="#DEECFA"/>
<path d="M59.2558 178.674C59.2558 180.511 57.7669 182 55.9302 182C54.0936 182 52.6046 180.511 52.6046 178.674C52.6046 176.838 54.0936 175.349 55.9302 175.349C57.7669 175.349 59.2558 176.838 59.2558 178.674Z" fill="#DEECFA"/>
<path d="M164.465 108.535C164.465 110.371 162.976 111.86 161.14 111.86C159.303 111.86 157.814 110.371 157.814 108.535C157.814 106.698 159.303 105.209 161.14 105.209C162.976 105.209 164.465 106.698 164.465 108.535Z" fill="#DEECFA"/>
<path d="M164.465 126.07C164.465 127.906 162.976 129.395 161.14 129.395C159.303 129.395 157.814 127.906 157.814 126.07C157.814 124.233 159.303 122.744 161.14 122.744C162.976 122.744 164.465 124.233 164.465 126.07Z" fill="#DEECFA"/>
<path d="M164.465 143.605C164.465 145.441 162.976 146.93 161.14 146.93C159.303 146.93 157.814 145.441 157.814 143.605C157.814 141.768 159.303 140.279 161.14 140.279C162.976 140.279 164.465 141.768 164.465 143.605Z" fill="#DEECFA"/>
<path d="M164.465 161.139C164.465 162.976 162.976 164.465 161.14 164.465C159.303 164.465 157.814 162.976 157.814 161.139C157.814 159.303 159.303 157.814 161.14 157.814C162.976 157.814 164.465 159.303 164.465 161.139Z" fill="#DEECFA"/>
<path d="M164.465 178.674C164.465 180.511 162.976 182 161.14 182C159.303 182 157.814 180.511 157.814 178.674C157.814 176.838 159.303 175.349 161.14 175.349C162.976 175.349 164.465 176.838 164.465 178.674Z" fill="#DEECFA"/>
<path d="M76.7907 108.535C76.7907 110.371 75.3018 111.86 73.4651 111.86C71.6284 111.86 70.1395 110.371 70.1395 108.535C70.1395 106.698 71.6284 105.209 73.4651 105.209C75.3018 105.209 76.7907 106.698 76.7907 108.535Z" fill="#DEECFA"/>
<path d="M76.7907 126.07C76.7907 127.906 75.3018 129.395 73.4651 129.395C71.6284 129.395 70.1395 127.906 70.1395 126.07C70.1395 124.233 71.6284 122.744 73.4651 122.744C75.3018 122.744 76.7907 124.233 76.7907 126.07Z" fill="#DEECFA"/>
<path d="M76.7907 143.605C76.7907 145.441 75.3018 146.93 73.4651 146.93C71.6284 146.93 70.1395 145.441 70.1395 143.605C70.1395 141.768 71.6284 140.279 73.4651 140.279C75.3018 140.279 76.7907 141.768 76.7907 143.605Z" fill="#DEECFA"/>
<path d="M76.7907 161.139C76.7907 162.976 75.3018 164.465 73.4651 164.465C71.6284 164.465 70.1395 162.976 70.1395 161.139C70.1395 159.303 71.6284 157.814 73.4651 157.814C75.3018 157.814 76.7907 159.303 76.7907 161.139Z" fill="#DEECFA"/>
<path d="M76.7907 178.674C76.7907 180.511 75.3018 182 73.4651 182C71.6284 182 70.1395 180.511 70.1395 178.674C70.1395 176.838 71.6284 175.349 73.4651 175.349C75.3018 175.349 76.7907 176.838 76.7907 178.674Z" fill="#DEECFA"/>
<path d="M182 108.535C182 110.371 180.511 111.86 178.674 111.86C176.838 111.86 175.349 110.371 175.349 108.535C175.349 106.698 176.838 105.209 178.674 105.209C180.511 105.209 182 106.698 182 108.535Z" fill="#DEECFA"/>
<path d="M182 126.07C182 127.906 180.511 129.395 178.674 129.395C176.838 129.395 175.349 127.906 175.349 126.07C175.349 124.233 176.838 122.744 178.674 122.744C180.511 122.744 182 124.233 182 126.07Z" fill="#DEECFA"/>
<path d="M182 143.605C182 145.441 180.511 146.93 178.674 146.93C176.838 146.93 175.349 145.441 175.349 143.605C175.349 141.768 176.838 140.279 178.674 140.279C180.511 140.279 182 141.768 182 143.605Z" fill="#DEECFA"/>
<path d="M182 161.139C182 162.976 180.511 164.465 178.674 164.465C176.838 164.465 175.349 162.976 175.349 161.139C175.349 159.303 176.838 157.814 178.674 157.814C180.511 157.814 182 159.303 182 161.139Z" fill="#DEECFA"/>
<path d="M182 178.674C182 180.511 180.511 182 178.674 182C176.838 182 175.349 180.511 175.349 178.674C175.349 176.838 176.838 175.349 178.674 175.349C180.511 175.349 182 176.838 182 178.674Z" fill="#DEECFA"/>
<path d="M94.3256 108.535C94.3256 110.371 92.8367 111.86 91 111.86C89.1633 111.86 87.6744 110.371 87.6744 108.535C87.6744 106.698 89.1633 105.209 91 105.209C92.8367 105.209 94.3256 106.698 94.3256 108.535Z" fill="#DEECFA"/>
<path d="M94.3256 126.07C94.3256 127.906 92.8367 129.395 91 129.395C89.1633 129.395 87.6744 127.906 87.6744 126.07C87.6744 124.233 89.1633 122.744 91 122.744C92.8367 122.744 94.3256 124.233 94.3256 126.07Z" fill="#DEECFA"/>
<path d="M94.3256 143.605C94.3256 145.441 92.8367 146.93 91 146.93C89.1633 146.93 87.6744 145.441 87.6744 143.605C87.6744 141.768 89.1633 140.279 91 140.279C92.8367 140.279 94.3256 141.768 94.3256 143.605Z" fill="#DEECFA"/>
<path d="M94.3256 161.139C94.3256 162.976 92.8367 164.465 91 164.465C89.1633 164.465 87.6744 162.976 87.6744 161.139C87.6744 159.303 89.1633 157.814 91 157.814C92.8367 157.814 94.3256 159.303 94.3256 161.139Z" fill="#DEECFA"/>
<path d="M94.3256 178.674C94.3256 180.511 92.8367 182 91 182C89.1633 182 87.6744 180.511 87.6744 178.674C87.6744 176.838 89.1633 175.349 91 175.349C92.8367 175.349 94.3256 176.838 94.3256 178.674Z" fill="#DEECFA"/>
<path d="M111.86 108.535C111.86 110.371 110.372 111.86 108.535 111.86C106.698 111.86 105.209 110.371 105.209 108.535C105.209 106.698 106.698 105.209 108.535 105.209C110.372 105.209 111.86 106.698 111.86 108.535Z" fill="#DEECFA"/>
<path d="M111.86 126.07C111.86 127.906 110.372 129.395 108.535 129.395C106.698 129.395 105.209 127.906 105.209 126.07C105.209 124.233 106.698 122.744 108.535 122.744C110.372 122.744 111.86 124.233 111.86 126.07Z" fill="#DEECFA"/>
<path d="M111.86 143.605C111.86 145.441 110.372 146.93 108.535 146.93C106.698 146.93 105.209 145.441 105.209 143.605C105.209 141.768 106.698 140.279 108.535 140.279C110.372 140.279 111.86 141.768 111.86 143.605Z" fill="#DEECFA"/>
<path d="M111.86 161.139C111.86 162.976 110.372 164.465 108.535 164.465C106.698 164.465 105.209 162.976 105.209 161.139C105.209 159.303 106.698 157.814 108.535 157.814C110.372 157.814 111.86 159.303 111.86 161.139Z" fill="#DEECFA"/>
<path d="M111.86 178.674C111.86 180.511 110.372 182 108.535 182C106.698 182 105.209 180.511 105.209 178.674C105.209 176.838 106.698 175.349 108.535 175.349C110.372 175.349 111.86 176.838 111.86 178.674Z" fill="#DEECFA"/>
</svg>
