<svg width="89" height="89" viewBox="0 0 89 89" fill="none" xmlns="http://www.w3.org/2000/svg">
<g clip-path="url(#clip0)">
<path d="M89 57.6925V86.256C89 87.6053 87.5568 88.5279 86.2258 88.032C79.8244 85.6497 73.2882 84.4597 66.75 84.4597C59.8003 84.4597 52.8526 85.8052 46.0694 88.4981C45.5696 88.6965 45.038 88.8036 44.5002 88.8036C43.962 88.8036 43.4303 88.6965 42.9301 88.4981C29.7665 83.2743 15.9774 83.1188 2.77401 88.0321C1.4432 88.5277 0 87.6051 0 86.256V57.6925C0 56.7209 0.610261 55.837 1.56151 55.4593C8.34872 52.7647 15.2974 51.4196 22.2479 51.4196C29.7333 51.4196 37.2207 52.9811 44.5 56.1043C58.5419 50.0804 73.3454 49.8661 87.4385 55.4593C88.3897 55.837 89 56.7209 89 57.6925Z" fill="url(#paint0_linear)"/>
<path d="M86.2258 84.1199C79.8245 81.7376 73.2882 80.5477 66.75 80.5477C59.8003 80.5477 52.8526 81.8931 46.0694 84.586C45.5696 84.7844 45.038 84.8916 44.5002 84.8916C43.962 84.8916 43.4303 84.7844 42.9301 84.586C29.7665 79.3622 15.9774 79.2069 2.77401 84.1201C1.4432 84.616 0 83.6932 0 82.3441V86.256C0 87.6054 1.4432 88.528 2.77418 88.032C15.9776 83.1189 29.7665 83.2742 42.9303 88.4981C43.4304 88.6966 43.9623 88.8037 44.5004 88.8037C45.0382 88.8037 45.5697 88.6966 46.0695 88.4981C52.8526 85.8053 59.8005 84.4598 66.7502 84.4598C73.2884 84.4598 79.8246 85.6498 86.226 88.032C87.557 88.528 89.0002 87.6054 89.0002 86.256V82.3441C89 83.6932 87.5568 84.616 86.2258 84.1199Z" fill="url(#paint1_linear)"/>
<path d="M86.4463 56.6729V80.3242C86.4463 81.6735 85.0869 82.5962 83.8315 82.1002C77.7975 79.718 71.6369 78.528 65.4743 78.528C59.5308 78.528 53.5891 79.6349 47.7617 81.8521C46.719 82.2487 45.6158 82.4635 44.5001 82.4635C43.3831 82.4635 42.2789 82.2478 41.2349 81.8508C29.3682 77.3385 17.019 77.4221 5.16857 82.1C3.91314 82.596 2.55371 81.6734 2.55371 80.324V56.6727C2.55371 55.7011 3.12942 54.8172 4.02553 54.4395C10.4229 51.7449 16.9754 50.3998 23.5259 50.3998C30.5826 50.3998 37.6373 51.9613 44.5001 55.0845C57.7358 49.0606 71.69 48.8463 84.9747 54.4395C85.8706 54.8174 86.4463 55.7012 86.4463 56.6729Z" fill="url(#paint2_linear)"/>
<path d="M86.4463 56.6729V80.3242C86.4463 81.6735 85.0869 82.5962 83.8315 82.1002C77.7975 79.718 71.6369 78.528 65.4743 78.528C59.5308 78.528 53.5891 79.6349 47.7617 81.8521C46.719 82.2487 45.6158 82.4635 44.5001 82.4635C43.3831 82.4635 42.2789 82.2478 41.2349 81.8508C29.3682 77.3385 17.019 77.4221 5.16857 82.1C3.91314 82.596 2.55371 81.6734 2.55371 80.324V56.6727C2.55371 55.7011 3.12942 54.8172 4.02553 54.4395C10.4229 51.7449 16.9754 50.3998 23.5259 50.3998C30.5826 50.3998 37.6373 51.9613 44.5001 55.0845C57.7358 49.0606 71.69 48.8463 84.9747 54.4395C85.8706 54.8174 86.4463 55.7012 86.4463 56.6729Z" fill="url(#paint3_linear)"/>
<path d="M86.4463 55.0807V78.732C86.4463 80.0813 85.0869 81.004 83.8315 80.508C77.7975 78.1258 71.6369 76.9358 65.4743 76.9358C59.5308 76.9358 53.5891 78.0427 47.7617 80.2598C46.719 80.6565 45.6158 80.8713 44.5001 80.8713C43.3831 80.8713 42.2789 80.6556 41.2349 80.2586C29.3682 75.7463 17.019 75.8299 5.16857 80.5078C3.91314 81.0038 2.55371 80.0811 2.55371 78.7318V55.0805C2.55371 54.1089 3.12942 53.225 4.02553 52.8473C10.4229 50.1527 16.9754 48.8076 23.5259 48.8076C30.5826 48.8076 37.6373 50.3691 44.5001 53.4923C57.7358 47.4684 71.69 47.2541 84.9747 52.8473C85.8706 53.2251 86.4463 54.109 86.4463 55.0807Z" fill="url(#paint4_linear)"/>
<path d="M2.55371 53.856V77.5073C2.55371 78.8566 3.91314 79.7793 5.16857 79.2831C11.2026 76.9009 17.3631 75.7109 23.5258 75.7109C29.4692 75.7109 35.4109 76.8178 41.2383 79.035C42.281 79.4316 43.3843 79.6465 44.4999 79.6465C45.617 79.6465 46.7211 79.4308 47.7652 79.0338C59.6319 74.5215 71.981 74.605 83.8315 79.2829C85.0869 79.7789 86.4463 78.8563 86.4463 77.5071V53.8558C86.4463 52.8841 85.8706 52.0003 84.9745 51.6226C78.5772 48.928 72.0247 47.5829 65.4741 47.5829C58.4174 47.5829 51.3627 49.1444 44.4999 52.2676C31.2642 46.2437 17.3101 46.0294 4.02535 51.6226C3.12942 52.0004 2.55371 52.8843 2.55371 53.856Z" fill="url(#paint5_linear)"/>
<path d="M4.02465 49.6141C3.12942 49.9911 2.55371 50.8756 2.55371 51.847V75.4978C2.55371 76.8476 3.91401 77.7702 5.16944 77.2744C18.1111 72.1634 31.6459 72.5348 44.4999 78.3861C44.4999 59.3505 44.4999 69.2943 44.4999 50.2586C31.2656 44.235 17.3117 44.019 4.02465 49.6141Z" fill="url(#paint6_linear)"/>
<path d="M84.9753 49.6143C71.6897 44.0202 57.7359 44.2338 44.5 50.2588V78.3862C57.3556 72.5341 70.8904 72.1645 83.8305 77.2748C85.0859 77.7706 86.4462 76.8479 86.4462 75.4981C86.4462 57.9548 86.4462 69.3906 86.4462 51.8473C86.4464 50.8757 85.8705 49.9912 84.9753 49.6143Z" fill="url(#paint7_linear)"/>
<path d="M6.67166 53.3907C5.83489 53.743 5.29688 54.5697 5.29688 55.4775V75.6866C5.29688 76.9481 6.56818 77.8105 7.74158 77.347C19.8369 72.5704 32.4865 72.9173 44.5001 78.3859C44.5001 60.5951 44.5001 71.7837 44.5001 53.9929C32.1312 48.3634 19.09 48.1613 6.67166 53.3907Z" fill="url(#paint8_linear)"/>
<path d="M8.86067 54.134C12.5566 52.8243 16.2923 52.0091 20.0429 51.6891C20.3914 51.6592 20.6898 51.9379 20.6898 52.2876V53.7134C20.6898 54.0252 20.4506 54.2825 20.1399 54.3099C16.4923 54.6315 12.8597 55.4526 9.26518 56.7715C8.87498 56.9146 8.46191 56.6242 8.46191 56.2085V54.7008C8.46174 54.4469 8.62142 54.2188 8.86067 54.134Z" fill="#BEC3D2"/>
<path d="M29.9717 52.5253V53.9556C29.9717 54.3182 29.6518 54.6 29.2929 54.5494C27.1679 54.2506 25.0422 54.1215 22.9208 54.1615C22.5837 54.1678 22.3057 53.8995 22.3057 53.5624V52.1443C22.3057 51.8187 22.5657 51.5498 22.8913 51.5437C25.0776 51.5035 27.2661 51.6323 29.455 51.93C29.7513 51.9703 29.9717 52.226 29.9717 52.5253Z" fill="#BEC3D2"/>
<path d="M37.3448 54.1838V55.6732C37.3448 56.0791 36.949 56.3698 36.5631 56.2438C35.0726 55.7566 33.5678 55.3531 32.0636 55.0362C31.7856 54.9776 31.5859 54.7349 31.5859 54.4508V53.0001C31.5859 52.6228 31.9308 52.3362 32.3004 52.4116C33.8469 52.7266 35.3934 53.1271 36.9266 53.6108C37.1758 53.6894 37.3448 53.9225 37.3448 54.1838Z" fill="#BEC3D2"/>
<path d="M8.86049 59.6471C9.85817 59.294 10.8593 58.9766 11.8642 58.6953C12.2479 58.5878 12.629 58.8735 12.629 59.2721V60.7484C12.629 61.0159 12.4516 61.2491 12.1947 61.3232C11.2145 61.6065 10.237 61.9265 9.26448 62.2831C8.87463 62.426 8.46191 62.1351 8.46191 61.7199V60.2135C8.46174 59.9596 8.62124 59.7317 8.86049 59.6471Z" fill="#BEC3D2"/>
<path d="M25.9792 57.6854V59.1042C25.9792 59.4436 25.6977 59.7174 25.3586 59.7031C24.5759 59.6701 23.7934 59.6607 23.0107 59.6731C20.3282 59.7179 17.6411 60.0339 14.9725 60.6172C14.5982 60.699 14.2451 60.4095 14.2451 60.0263V58.5818C14.2451 58.2991 14.4425 58.0527 14.7191 57.9943C17.4566 57.4159 20.2118 57.1015 22.9671 57.0552C23.78 57.0411 24.5941 57.051 25.4075 57.0849C25.7275 57.0985 25.9792 57.365 25.9792 57.6854Z" fill="#BEC3D2"/>
<path d="M37.3456 59.6966V61.1848C37.3456 61.5909 36.9496 61.8811 36.5636 61.7551C33.7784 60.8463 30.959 60.2313 28.1314 59.9158C27.8269 59.8818 27.5957 59.6272 27.5957 59.3207V57.8939C27.5957 57.5392 27.9023 57.2592 28.255 57.2971C31.1627 57.6093 34.0618 58.2206 36.9274 59.1235C37.1766 59.2024 37.3456 59.4354 37.3456 59.6966Z" fill="#BEC3D2"/>
<path d="M8.86084 65.1594C12.5425 63.8557 16.2878 63.0381 20.0436 62.7179C20.3919 62.6882 20.6898 62.9664 20.6898 63.3159V64.7404C20.6898 65.0523 20.4506 65.3095 20.1398 65.3369C16.489 65.6587 12.8466 66.4819 9.26501 67.7952C8.87498 67.9383 8.46191 67.6478 8.46191 67.2323V65.7261C8.46191 65.4723 8.62159 65.2442 8.86084 65.1594Z" fill="#BEC3D2"/>
<path d="M37.3449 65.2077V66.6975C37.3449 67.1034 36.9491 67.394 36.5633 67.2681C32.0964 65.8103 27.545 65.1117 23.0107 65.1859C22.9798 65.1864 22.9489 65.1869 22.918 65.1875C22.5819 65.1937 22.3057 64.9247 22.3057 64.5885V63.1693C22.3057 62.8429 22.5667 62.5754 22.8931 62.5696C22.9177 62.5691 22.9425 62.5688 22.9671 62.5684C27.6416 62.4906 32.3279 63.1851 36.9266 64.635C37.1758 64.7133 37.3449 64.9463 37.3449 65.2077Z" fill="#BEC3D2"/>
<path d="M8.86049 70.6707C9.85799 70.318 10.8592 70.0013 11.864 69.7196C12.2477 69.6119 12.629 69.8978 12.629 70.2964V71.7726C12.629 72.0399 12.4519 72.2729 12.1952 72.3472C11.2148 72.6313 10.2372 72.9517 9.26448 73.3084C8.87463 73.4513 8.46191 73.1604 8.46191 72.7453V71.2373C8.46174 70.9832 8.62124 70.7553 8.86049 70.6707Z" fill="#BEC3D2"/>
<path d="M29.9719 69.0631V70.4937C29.9719 70.86 29.6468 71.1375 29.2842 71.0867C27.1962 70.7939 25.1021 70.6641 23.0107 70.6988C20.3282 70.7436 17.6411 71.0581 14.9725 71.6425C14.5982 71.7245 14.2451 71.435 14.2451 71.0518V69.6074C14.2451 69.3247 14.4423 69.0783 14.7189 69.0198C17.4566 68.4401 20.2118 68.1272 22.9671 68.081C25.1312 68.0454 27.2969 68.1745 29.4556 68.4682C29.7519 68.5087 29.9719 68.7642 29.9719 69.0631Z" fill="#BEC3D2"/>
<path d="M83.8309 77.2746C85.0863 77.7704 86.4466 76.8478 86.4466 75.4979C86.4466 57.9547 86.4466 69.3905 86.4466 51.8472C86.4466 50.8757 85.8709 49.9912 84.9755 49.6143C71.6899 44.0202 57.7361 44.2338 44.5002 50.2588C42.0359 49.1372 39.5467 48.2175 37.0415 47.4987L35.0253 53.1384C34.8357 53.6689 35.2262 54.183 35.7297 54.2168L56.1332 74.6203C65.3649 72.8039 74.7443 73.6864 83.8309 77.2746Z" fill="url(#paint9_linear)"/>
<path d="M85.5921 12.2646L76.9326 3.60507L79.9508 0.586919C80.3935 0.144188 81.0851 0.0694974 81.6121 0.407872C84.4927 2.25663 86.9407 4.70465 88.7895 7.58529C89.1277 8.11231 89.0532 8.80371 88.6105 9.24662L85.5921 12.2646Z" fill="url(#paint10_linear)"/>
<path d="M85.5914 12.2646L88.6096 9.24641C88.6813 9.17469 88.7422 9.09598 88.7945 9.01292C88.7596 8.885 88.7062 8.76058 88.6317 8.64435C86.783 5.76372 84.3348 3.3157 81.4541 1.46694C80.9271 1.12874 80.2357 1.20326 79.7928 1.64599L77.3828 4.05597L85.5914 12.2646Z" fill="url(#paint11_linear)"/>
<path d="M88.7891 7.58508C88.476 7.09715 88.1443 6.62283 87.7977 6.16055C87.7178 6.36682 87.5956 6.55931 87.4314 6.7237L83.7412 10.4139L85.5919 12.2646L88.61 9.24641C89.0528 8.8035 89.1273 8.1121 88.7891 7.58508Z" fill="url(#paint12_linear)"/>
<path d="M81.2082 17.5504L86.3058 12.4528C86.5044 12.2542 86.5044 11.9324 86.3058 11.734L77.4629 2.89107C77.2643 2.69248 76.9425 2.69248 76.7441 2.89107L71.6465 7.98868L81.2082 17.5504Z" fill="url(#paint13_linear)"/>
<path d="M74.2139 5.41467V24.5446L83.7901 14.9748L74.2221 5.40665L74.2139 5.41467Z" fill="url(#paint14_linear)"/>
<path d="M83.4833 14.7591L74.4374 5.71323C73.9844 5.26003 73.9844 4.52552 74.4374 4.07231C74.8906 3.61929 75.6251 3.61929 76.0783 4.07231L85.1242 13.1182C85.5773 13.5714 85.5773 14.3059 85.1242 14.7591C84.671 15.2121 83.9363 15.2121 83.4833 14.7591Z" fill="url(#paint15_linear)"/>
<path d="M39.7706 39.8643L35.0254 53.1384C34.7957 53.7806 35.4161 54.401 36.0583 54.1713L49.3324 49.4261C51.9807 46.7779 42.419 37.216 39.7706 39.8643Z" fill="url(#paint16_linear)"/>
<path d="M42.0848 42.0632L35.1014 53.7325C35.0901 53.7513 35.0819 53.77 35.0723 53.7887C35.2494 54.1183 35.6487 54.3176 36.0579 54.1714L49.332 49.4261C49.3524 49.4057 49.37 49.3835 49.3891 49.3622C50.177 46.2673 44.6722 39.9944 42.0848 42.0632Z" fill="url(#paint17_linear)"/>
<path d="M82.0162 16.7423L49.3324 49.4261C49.2057 49.2064 49.0474 48.9994 48.86 48.812C47.6901 47.6421 45.793 47.6421 44.6231 48.812C44.5704 48.8647 44.7742 48.6483 44.7742 48.6483C45.7906 47.4714 45.7401 45.6922 44.6222 44.5743C43.5043 43.4564 41.7252 43.406 40.5483 44.4223C40.5483 44.4223 40.3319 44.6262 40.3846 44.5735C41.5545 43.4036 41.5545 41.5065 40.3846 40.3365C40.1972 40.1491 39.9902 39.991 39.7705 39.8641L72.4544 7.18054L82.0162 16.7423Z" fill="url(#paint18_linear)"/>
<path d="M79.3477 14.0744L44.7738 48.6483C45.7901 47.4714 45.7397 45.6923 44.6218 44.5744C43.5039 43.4565 41.7247 43.406 40.5479 44.4224L75.1217 9.84851L79.3477 14.0744Z" fill="url(#paint19_linear)"/>
<path d="M40.3842 44.5736C40.3315 44.6263 40.5479 44.4225 40.5479 44.4225C41.7248 43.4062 43.504 43.4566 44.6219 44.5745C45.7398 45.6924 45.79 47.4715 44.7739 48.6484C44.7739 48.6484 44.57 48.8648 44.6227 48.8121C45.7927 47.6422 47.6898 47.6422 48.8597 48.8121C49.0471 48.9995 49.2052 49.2065 49.3321 49.4262L82.0157 16.7423L73.5912 8.31781L40.8933 41.0157C41.5168 42.1533 41.3477 43.61 40.3842 44.5736Z" fill="url(#paint20_linear)"/>
<path d="M37.7048 51.4919C37.2024 50.9895 36.641 50.5865 36.0471 50.2802L35.0254 53.1384C34.7957 53.7806 35.4161 54.401 36.0583 54.1713L38.9164 53.1495C38.6102 52.5555 38.207 51.9941 37.7048 51.4919Z" fill="url(#paint21_linear)"/>
<path d="M70.9443 8.68363L70.9668 27.7975L80.5205 18.2438L70.9525 8.6756L70.9443 8.68363Z" fill="url(#paint22_linear)"/>
<path d="M80.2129 18.0299L71.167 8.98396C70.7138 8.53076 70.7138 7.79625 71.167 7.34304C71.6203 6.88984 72.3548 6.88984 72.808 7.34304L81.8539 16.3889C82.3071 16.842 82.3071 17.5767 81.8539 18.0299C81.4007 18.4829 80.666 18.4829 80.2129 18.0299Z" fill="url(#paint23_linear)"/>
<path d="M5.40771 39.1451H1.75452C0.785469 39.1451 0 38.3597 0 37.3906C0 36.4216 0.785469 35.6361 1.75452 35.6361H5.40771C6.37676 35.6361 7.16223 36.4218 7.16223 37.3906C7.16241 38.3597 6.37676 39.1451 5.40771 39.1451Z" fill="url(#paint24_linear)"/>
<path d="M38.5549 5.9974V2.34421C38.5549 1.37516 37.7693 0.589691 36.8004 0.589691C35.8314 0.589691 35.0459 1.37533 35.0459 2.34421V5.9974C35.0459 6.96645 35.8314 7.75192 36.8004 7.75192C37.7693 7.7521 38.5549 6.96645 38.5549 5.9974Z" fill="url(#paint25_linear)"/>
<path d="M13.3616 16.4328L10.7785 13.8498C10.0934 13.1646 10.0934 12.0537 10.7785 11.3684C11.4636 10.6833 12.5745 10.6833 13.2598 11.3684L15.8431 13.9517C16.5282 14.6368 16.5282 15.7477 15.8431 16.433C15.1578 17.1181 14.0469 17.1181 13.3616 16.4328Z" fill="url(#paint26_linear)"/>
<path d="M60.2403 16.4329L62.8236 13.8497C63.5087 13.1645 63.5087 12.0536 62.8236 11.3683C62.1385 10.6832 61.0274 10.6832 60.3422 11.3683L57.759 13.9516C57.0738 14.6367 57.0738 15.7476 57.759 16.4329C58.4441 17.1182 59.555 17.1182 60.2403 16.4329Z" fill="url(#paint27_linear)"/>
</g>
<defs>
<linearGradient id="paint0_linear" x1="26.4545" y1="53.3591" x2="83.0351" y2="111.403" gradientUnits="userSpaceOnUse">
<stop stop-color="#FF7044"/>
<stop offset="1" stop-color="#F92814"/>
</linearGradient>
<linearGradient id="paint1_linear" x1="42.7137" y1="70.9648" x2="46.5241" y2="99.5425" gradientUnits="userSpaceOnUse">
<stop stop-color="#F92814" stop-opacity="0"/>
<stop offset="1" stop-color="#C1272D"/>
</linearGradient>
<linearGradient id="paint2_linear" x1="41.7249" y1="53.1274" x2="45.6515" y2="74.8471" gradientUnits="userSpaceOnUse">
<stop stop-color="#F9F7FC"/>
<stop offset="1" stop-color="#F0DDFC"/>
</linearGradient>
<linearGradient id="paint3_linear" x1="41.7249" y1="53.1274" x2="45.6515" y2="74.8471" gradientUnits="userSpaceOnUse">
<stop stop-color="#F9F7FC"/>
<stop offset="1" stop-color="#F0DDFC"/>
</linearGradient>
<linearGradient id="paint4_linear" x1="46.2161" y1="76.8576" x2="49.226" y2="94.3477" gradientUnits="userSpaceOnUse">
<stop stop-color="#F0DDFC" stop-opacity="0"/>
<stop offset="0.2889" stop-color="#C8B7E0" stop-opacity="0.289"/>
<stop offset="0.5915" stop-color="#A595C8" stop-opacity="0.592"/>
<stop offset="0.8395" stop-color="#8F81B8" stop-opacity="0.84"/>
<stop offset="1" stop-color="#8779B3"/>
</linearGradient>
<linearGradient id="paint5_linear" x1="43.4618" y1="77.0178" x2="42.3856" y2="88.7799" gradientUnits="userSpaceOnUse">
<stop stop-color="#F0DDFC" stop-opacity="0"/>
<stop offset="0.2889" stop-color="#C8B7E0" stop-opacity="0.289"/>
<stop offset="0.5915" stop-color="#A595C8" stop-opacity="0.592"/>
<stop offset="0.8395" stop-color="#8F81B8" stop-opacity="0.84"/>
<stop offset="1" stop-color="#8779B3"/>
</linearGradient>
<linearGradient id="paint6_linear" x1="19.3276" y1="59.0752" x2="34.4531" y2="74.2006" gradientUnits="userSpaceOnUse">
<stop stop-color="#F9F7FC"/>
<stop offset="1" stop-color="#F0DDFC"/>
</linearGradient>
<linearGradient id="paint7_linear" x1="57.8671" y1="54.9184" x2="72.2237" y2="73.3769" gradientUnits="userSpaceOnUse">
<stop stop-color="#F9F7FC"/>
<stop offset="1" stop-color="#F0DDFC"/>
</linearGradient>
<linearGradient id="paint8_linear" x1="23.7106" y1="64.1314" x2="9.79835" y2="51.2603" gradientUnits="userSpaceOnUse">
<stop stop-color="#E9EDF5" stop-opacity="0"/>
<stop offset="1" stop-color="white"/>
</linearGradient>
<linearGradient id="paint9_linear" x1="70.0017" y1="61.8529" x2="45.6867" y2="36.8398" gradientUnits="userSpaceOnUse">
<stop stop-color="#F0DDFC" stop-opacity="0"/>
<stop offset="0.1613" stop-color="#E8D5F6" stop-opacity="0.161"/>
<stop offset="0.4171" stop-color="#D1BFE6" stop-opacity="0.417"/>
<stop offset="0.7332" stop-color="#AC9CCD" stop-opacity="0.733"/>
<stop offset="1" stop-color="#8779B3"/>
</linearGradient>
<linearGradient id="paint10_linear" x1="80.5867" y1="2.90319" x2="86.9797" y2="9.29616" gradientUnits="userSpaceOnUse">
<stop stop-color="#FF7044"/>
<stop offset="1" stop-color="#F92814"/>
</linearGradient>
<linearGradient id="paint11_linear" x1="83.0068" y1="7.59043" x2="83.8333" y2="-1.7371" gradientUnits="userSpaceOnUse">
<stop stop-color="#FF7044" stop-opacity="0"/>
<stop offset="1" stop-color="#FFA425"/>
</linearGradient>
<linearGradient id="paint12_linear" x1="89.1262" y1="4.63946" x2="85.5841" y2="10.9366" gradientUnits="userSpaceOnUse">
<stop stop-color="#F92814" stop-opacity="0"/>
<stop offset="1" stop-color="#C1272D"/>
</linearGradient>
<linearGradient id="paint13_linear" x1="76.021" y1="6.87442" x2="83.08" y2="13.9334" gradientUnits="userSpaceOnUse">
<stop stop-color="#F9F7FC"/>
<stop offset="1" stop-color="#F0DDFC"/>
</linearGradient>
<linearGradient id="paint14_linear" x1="77.032" y1="13.1694" x2="81.676" y2="6.1639" gradientUnits="userSpaceOnUse">
<stop stop-color="#F0DDFC" stop-opacity="0"/>
<stop offset="0.2889" stop-color="#C8B7E0" stop-opacity="0.289"/>
<stop offset="0.5915" stop-color="#A595C8" stop-opacity="0.592"/>
<stop offset="0.8395" stop-color="#8F81B8" stop-opacity="0.84"/>
<stop offset="1" stop-color="#8779B3"/>
</linearGradient>
<linearGradient id="paint15_linear" x1="80.3525" y1="8.79022" x2="78.9789" y2="10.2857" gradientUnits="userSpaceOnUse">
<stop stop-color="#F9F7FC"/>
<stop offset="1" stop-color="#F0DDFC"/>
</linearGradient>
<linearGradient id="paint16_linear" x1="36.1154" y1="43.5166" x2="45.6759" y2="53.0771" gradientUnits="userSpaceOnUse">
<stop stop-color="#FFDAAA"/>
<stop offset="0.4213" stop-color="#FFD8A8"/>
<stop offset="0.6519" stop-color="#FED1A0"/>
<stop offset="0.8359" stop-color="#FDC592"/>
<stop offset="0.9951" stop-color="#FCB47F"/>
<stop offset="1" stop-color="#FCB37E"/>
</linearGradient>
<linearGradient id="paint17_linear" x1="42.3752" y1="50.5006" x2="36.0782" y2="41.8424" gradientUnits="userSpaceOnUse">
<stop stop-color="#FFDAAA" stop-opacity="0"/>
<stop offset="0.2507" stop-color="#FFE7C8" stop-opacity="0.251"/>
<stop offset="0.5543" stop-color="#FFF4E6" stop-opacity="0.554"/>
<stop offset="0.8148" stop-color="#FFFCF8" stop-opacity="0.815"/>
<stop offset="1" stop-color="white"/>
</linearGradient>
<linearGradient id="paint18_linear" x1="55.1018" y1="24.5303" x2="64.6623" y2="34.0907" gradientUnits="userSpaceOnUse">
<stop stop-color="#FFDA45"/>
<stop offset="1" stop-color="#FFA425"/>
</linearGradient>
<linearGradient id="paint19_linear" x1="57.5893" y1="26.8527" x2="65.1859" y2="34.4492" gradientUnits="userSpaceOnUse">
<stop stop-color="#FFDA45"/>
<stop offset="1" stop-color="#FFA425"/>
</linearGradient>
<linearGradient id="paint20_linear" x1="62.1233" y1="32.2288" x2="54.2845" y2="18.9879" gradientUnits="userSpaceOnUse">
<stop stop-color="#FFDA45" stop-opacity="0"/>
<stop offset="1" stop-color="#FCEE21"/>
</linearGradient>
<linearGradient id="paint21_linear" x1="36.191" y1="52.424" x2="38.6304" y2="54.8634" gradientUnits="userSpaceOnUse">
<stop stop-color="#7E8595"/>
<stop offset="1" stop-color="#555A66"/>
</linearGradient>
<linearGradient id="paint22_linear" x1="72.2309" y1="23.1286" x2="79.2757" y2="3.72598" gradientUnits="userSpaceOnUse">
<stop stop-color="#FFDA45" stop-opacity="0"/>
<stop offset="1" stop-color="#B53759"/>
</linearGradient>
<linearGradient id="paint23_linear" x1="77.0826" y1="12.0604" x2="75.709" y2="13.5559" gradientUnits="userSpaceOnUse">
<stop stop-color="#F9F7FC"/>
<stop offset="1" stop-color="#F0DDFC"/>
</linearGradient>
<linearGradient id="paint24_linear" x1="3.58112" y1="36.9819" x2="3.58112" y2="40.5924" gradientUnits="userSpaceOnUse">
<stop stop-color="#92F37F"/>
<stop offset="1" stop-color="#4AB272"/>
</linearGradient>
<linearGradient id="paint25_linear" x1="36.3919" y1="4.17081" x2="40.0022" y2="4.17081" gradientUnits="userSpaceOnUse">
<stop stop-color="#92F37F"/>
<stop offset="1" stop-color="#4AB272"/>
</linearGradient>
<linearGradient id="paint26_linear" x1="13.5934" y1="13.6028" x2="11.0408" y2="16.1553" gradientUnits="userSpaceOnUse">
<stop stop-color="#92F37F"/>
<stop offset="1" stop-color="#4AB272"/>
</linearGradient>
<linearGradient id="paint27_linear" x1="60.0107" y1="13.603" x2="62.5632" y2="16.1554" gradientUnits="userSpaceOnUse">
<stop stop-color="#92F37F"/>
<stop offset="1" stop-color="#4AB272"/>
</linearGradient>
<clipPath id="clip0">
<rect width="89" height="89" fill="white"/>
</clipPath>
</defs>
</svg>
