<svg width="89" height="89" viewBox="0 0 89 89" fill="none" xmlns="http://www.w3.org/2000/svg">
<g clip-path="url(#clip0)">
<path d="M44.5 78.5422C61.0729 78.5422 74.5079 65.1072 74.5079 48.5343C74.5079 31.9615 61.0729 18.5265 44.5 18.5265C27.9272 18.5265 14.4922 31.9615 14.4922 48.5343C14.4922 65.1072 27.9272 78.5422 44.5 78.5422Z" fill="url(#paint0_linear)"/>
<path d="M44.5005 70.0495C56.383 70.0495 66.0156 60.4168 66.0156 48.5343C66.0156 36.6519 56.383 27.0192 44.5005 27.0192C32.618 27.0192 22.9854 36.6519 22.9854 48.5343C22.9854 60.4168 32.618 70.0495 44.5005 70.0495Z" fill="url(#paint1_linear)"/>
<path d="M61.4078 73.3273L29.6286 41.5482C29.0393 40.8954 28.2228 40.4217 27.2234 40.2765L24.941 39.9448L18.512 33.523C15.956 37.9385 14.4922 43.0652 14.4922 48.5343C14.4922 65.1072 27.9272 78.5422 44.5 78.5422C50.7717 78.5424 56.593 76.6172 61.4078 73.3273Z" fill="url(#paint2_linear)"/>
<path d="M29.5804 27.082C30.4686 28.2655 30.8445 29.7721 30.5903 31.2544L29.761 36.089C29.3952 38.2218 30.2843 40.1086 31.7469 41.2616L62.8006 72.3153C69.9201 66.8284 74.5083 58.2179 74.5083 48.5343C74.5083 31.9615 61.0733 18.5265 44.5004 18.5265C37.8808 18.5265 31.763 20.6716 26.8008 24.3024L29.5804 27.082Z" fill="url(#paint3_linear)"/>
<path d="M74.5082 48.5343C74.5082 43.0736 73.0489 37.954 70.5002 33.5431C70.3276 33.7629 70.1723 34.0053 70.0402 34.273L68.4256 37.5444C67.8379 38.7354 66.7016 39.561 65.3872 39.7519L61.777 40.2765C58.467 40.7575 57.1453 44.8251 59.5405 47.1597L62.5687 50.188L62.5818 50.2007C63.2285 51.0769 63.5006 52.1863 63.3134 53.278L62.6966 56.8736C62.4427 58.354 63.0019 59.6749 63.9618 60.5418L69.1165 65.6967C72.5139 60.8331 74.5082 54.917 74.5082 48.5343Z" fill="url(#paint4_linear)"/>
<path d="M46.755 73.727C46.3222 73.3047 46.029 72.8178 45.8632 72.3082C45.2176 70.3537 46.4164 68.0537 48.706 67.7221L51.8559 67.2631C53.0024 67.0974 53.9937 66.3766 54.5067 65.3383L55.915 62.4833C57.0668 60.1484 60.1626 59.8988 61.7332 61.7347L67.4292 67.4289L67.773 67.4795C63.6458 72.5438 57.8974 76.2347 51.3184 77.7634C50.9048 77.8594 50.4895 77.9466 50.0689 78.0252C49.9939 77.4318 49.767 76.8647 49.4075 76.3795L46.755 73.727Z" fill="url(#paint5_linear)"/>
<path d="M51.3183 77.7634C50.9047 77.8594 50.4894 77.9466 50.0688 78.0252C48.2644 78.3637 46.4023 78.5417 44.5002 78.5417C35.1115 78.5417 26.7298 74.2313 21.2275 67.4795L22.7126 67.2631C23.8591 67.0974 24.8504 66.3766 25.3634 65.3383L26.7717 62.4833C27.9252 60.1484 31.021 59.8988 32.5916 61.7347L38.2859 67.4289L40.2945 67.7221C41.2037 67.853 41.9401 68.2962 42.4584 68.9035L51.3183 77.7634Z" fill="url(#paint6_linear)"/>
<path d="M49.3661 5.70092L51.537 10.0994C52.3273 11.7009 53.8552 12.8108 55.6224 13.0677L60.4766 13.773C64.9271 14.4198 66.7041 19.8889 63.4837 23.028L59.9712 26.4519C58.6924 27.6984 58.1088 29.4945 58.4107 31.2546L59.24 36.089C60.0002 40.5216 55.3479 43.9016 51.3672 41.8089L47.0255 39.5263C45.4448 38.6953 43.5565 38.6953 41.9758 39.5263L37.6341 41.8089C33.6536 43.9016 29.0011 40.5216 29.7613 36.089L30.5906 31.2546C30.8925 29.4945 30.3089 27.6984 29.0301 26.4519L25.5176 23.028C22.2972 19.8889 24.0742 14.4198 28.5247 13.773L33.3789 13.0677C35.1461 12.8108 36.674 11.7009 37.4643 10.0994L39.6352 5.70092C41.625 1.66817 47.3758 1.66817 49.3661 5.70092Z" fill="url(#paint7_linear)"/>
<path d="M35.3235 12.3873C34.7321 12.7312 34.0742 12.9665 33.3779 13.0677L28.5237 13.7731C24.0732 14.4198 22.2962 19.8889 25.5166 23.028L29.0291 26.4519C30.3079 27.6984 30.8915 29.4945 30.5896 31.2546L29.7603 36.0892C29.0001 40.5217 33.6524 43.9018 37.6331 41.8091L41.9748 39.5265C43.5555 38.6955 45.4439 38.6955 47.0246 39.5265L51.3662 41.8091C53.2532 42.801 55.2901 42.5619 56.8308 41.5653L35.3235 12.3873Z" fill="url(#paint8_linear)"/>
<path d="M63.4825 23.0282L59.9703 26.4529C59.1709 27.2316 58.6449 28.2216 58.4358 29.285C58.3072 29.9258 58.2957 30.5921 58.4105 31.2535L59.2398 36.0886C59.6394 38.4201 58.5416 40.4598 56.8326 41.5648C55.2913 42.5617 53.2539 42.8005 51.3657 41.8082L47.0245 39.5274C46.2343 39.1117 45.3684 38.9049 44.5 38.9049V24.8657L44.5321 24.875L44.5183 24.8612L44.5002 24.8336V2.67682C46.4343 2.67682 48.3706 3.68514 49.3652 5.70195L51.5359 10.0984C52.0137 11.07 52.7648 11.8602 53.6768 12.3885C54.2671 12.7329 54.9263 12.9673 55.6224 13.0684L60.4758 13.7735C63.0485 14.1456 64.7276 16.1303 65.063 18.3445C65.311 19.9617 64.8424 21.7028 63.4825 23.0282Z" fill="url(#paint9_linear)"/>
<path d="M30.5645 29.2859C30.6911 29.9266 30.7029 30.593 30.5893 31.2546L29.76 36.0892C28.9999 40.5218 33.6521 43.9018 37.6329 41.8091L41.9745 39.5265C43.5552 38.6955 45.4436 38.6955 47.0243 39.5265L51.3659 41.8091C55.3465 43.9018 59.9989 40.5218 59.2388 36.0892L58.4097 31.2546C58.1078 29.4945 58.6913 27.6984 59.9701 26.4519L63.4827 23.028C64.8421 21.703 65.3081 19.9631 65.0613 18.3456L30.5645 29.2859Z" fill="url(#paint10_linear)"/>
<path d="M58.4101 31.2546C58.2967 30.593 58.3084 29.9266 58.4349 29.2859L23.9382 18.3456C23.6914 19.9631 24.1574 21.703 25.5168 23.028L29.0293 26.4519C30.3081 27.6984 30.8917 29.4945 30.5898 31.2546L29.7605 36.0892C29.0003 40.5218 33.6526 43.9018 37.6333 41.8091L41.975 39.5265C43.5557 38.6955 45.4441 38.6955 47.0248 39.5265L51.3664 41.8091C55.347 43.9018 59.9994 40.5218 59.2392 36.0892L58.4101 31.2546Z" fill="url(#paint11_linear)"/>
<path d="M60.476 13.773L55.6219 13.0677C54.9266 12.9666 54.2696 12.7319 53.6789 12.3888L32.1904 41.5798C33.7286 42.5645 35.7555 42.7961 37.6334 41.8089L41.975 39.5263C43.5557 38.6953 45.4441 38.6953 47.0248 39.5263L51.3664 41.8089C55.347 43.9016 59.9994 40.5215 59.2393 36.089L58.4102 31.2544C58.1083 29.4943 58.6918 27.6982 59.9706 26.4517L63.4832 23.0278C66.7036 19.8889 64.9266 14.4198 60.476 13.773Z" fill="url(#paint12_linear)"/>
<path d="M18.9607 34.2731L20.5753 37.5444C21.163 38.7355 22.2993 39.5611 23.6137 39.752L27.2237 40.2766C30.5337 40.7575 31.8554 44.8252 29.4603 47.1597L26.8479 49.7062C25.8968 50.6334 25.4628 51.9691 25.6874 53.2781L26.3041 56.8737C26.8695 60.1701 23.4093 62.6841 20.4489 61.1277L17.22 59.43C16.0443 58.8119 14.6398 58.8119 13.4643 59.43L10.2354 61.1277C7.27483 62.6841 3.81482 60.1701 4.38024 56.8737L4.99695 53.2781C5.22155 51.9691 4.78754 50.6332 3.83646 49.7062L1.22405 47.1597C-1.1711 44.8252 0.15064 40.7575 3.46057 40.2766L7.07065 39.752C8.38506 39.5611 9.52129 38.7355 10.109 37.5444L11.7236 34.2731C13.2035 31.2738 17.4803 31.2738 18.9607 34.2731Z" fill="url(#paint13_linear)"/>
<path d="M8.51671 39.2461C8.07677 39.5019 7.58745 39.6768 7.06968 39.7521L3.45959 40.2767C0.149664 40.7577 -1.17207 44.8253 1.22307 47.1599L3.83549 49.7064C4.78656 50.6335 5.22057 51.9692 4.99598 53.2782L4.37926 56.8738C3.81385 60.1703 7.27403 62.6843 10.2344 61.1278L13.4634 59.4302C14.639 58.8121 16.0435 58.8121 17.219 59.4302L20.448 61.1278C21.8514 61.8657 23.3661 61.6878 24.5121 60.9465L8.51671 39.2461Z" fill="url(#paint14_linear)"/>
<path d="M29.4587 47.1599L26.8466 49.7071C26.2521 50.2863 25.861 51.0225 25.7055 51.8134C25.6099 52.29 25.6013 52.7854 25.6866 53.2774L26.3034 56.8735C26.6005 58.6074 25.784 60.1245 24.5131 60.9462C23.3667 61.6877 21.8514 61.8654 20.4472 61.1274L17.2184 59.4309C16.6306 59.1217 15.9867 58.968 15.3408 58.968V48.5265L15.3647 48.5333L15.3544 48.523L15.3408 48.5024V32.0238C16.7793 32.0238 18.2194 32.7739 18.9591 34.2738L20.5735 37.5436C20.9288 38.2662 21.4874 38.8538 22.1657 39.2468C22.6048 39.503 23.095 39.6773 23.6128 39.7525L27.2225 40.2769C29.1358 40.5537 30.3846 42.0297 30.634 43.6766C30.8185 44.8793 30.47 46.1743 29.4587 47.1599Z" fill="url(#paint15_linear)"/>
<path d="M4.97781 51.8141C5.07187 52.2905 5.08059 52.7863 4.99631 53.2782L4.37959 56.8738C3.81418 60.1703 7.27436 62.6843 10.2347 61.1278L13.4637 59.4302C14.6394 58.8121 16.0438 58.8121 17.2193 59.4302L20.4483 61.1278C23.4088 62.6843 26.8688 60.1703 26.3034 56.8738L25.6867 53.2782C25.4621 51.9692 25.8961 50.6334 26.8472 49.7064L29.4596 47.1599C30.4707 46.1745 30.8173 44.8805 30.6337 43.6774L4.97781 51.8141Z" fill="url(#paint16_linear)"/>
<path d="M25.6867 53.2781C25.6023 52.7861 25.611 52.2903 25.7052 51.8139L0.0489564 43.6774C-0.134628 44.8805 0.211949 46.1743 1.22306 47.1599L3.83547 49.7064C4.78655 50.6335 5.22055 51.9692 4.99596 53.2782L4.37924 56.8738C3.81383 60.1703 7.27401 62.6843 10.2344 61.1278L13.4634 59.4302C14.639 58.8121 16.0435 58.8121 17.219 59.4302L20.4479 61.1278C23.4085 62.6843 26.8685 60.1703 26.3031 56.8738L25.6867 53.2781Z" fill="url(#paint17_linear)"/>
<path d="M27.2233 40.2766L23.6132 39.752C23.0962 39.6768 22.6075 39.5023 22.1681 39.2472L6.18652 60.9574C7.33044 61.6898 8.83785 61.8621 10.2346 61.1277L13.4636 59.4301C14.6393 58.812 16.0437 58.812 17.2192 59.4301L20.4482 61.1277C23.4087 62.6842 26.8687 60.1702 26.3033 56.8737L25.6866 53.2781C25.462 51.9691 25.896 50.6332 26.8471 49.7062L29.4595 47.1598C31.855 44.8252 30.5333 40.7577 27.2233 40.2766Z" fill="url(#paint18_linear)"/>
<path d="M33.0863 62.4842L34.4948 65.3381C35.0075 66.3771 35.9989 67.0973 37.1454 67.264L40.2948 67.7216C43.1824 68.1411 44.3352 71.6896 42.2458 73.7263L39.9669 75.9478C39.1371 76.7566 38.7586 77.9218 38.9544 79.0638L39.4924 82.2005C39.9855 85.0764 36.967 87.2694 34.3845 85.9116L31.5675 84.4307C30.5419 83.8915 29.3167 83.8915 28.2911 84.4307L25.4742 85.9116C22.8914 87.2694 19.8729 85.0762 20.3663 82.2005L20.9043 79.0638C21.1001 77.9218 20.7216 76.7566 19.8918 75.9478L17.6129 73.7263C15.5234 71.6896 16.6764 68.1411 19.5639 67.7216L22.7133 67.264C23.86 67.0973 24.8512 66.3771 25.3639 65.3381L26.7723 62.4842C28.0637 59.8676 31.7949 59.8676 33.0863 62.4842Z" fill="url(#paint19_linear)"/>
<path d="M23.9757 66.8225C23.592 67.0457 23.1651 67.1983 22.7133 67.264L19.5639 67.7216C16.6763 68.1411 15.5235 71.6896 17.6129 73.7263L19.8918 75.9478C20.7216 76.7567 21.1001 77.9219 20.9043 79.0639L20.3663 82.2005C19.8731 85.0764 22.8916 87.2695 25.4742 85.9116L28.2912 84.4308C29.3167 83.8915 30.542 83.8915 31.5676 84.4308L34.3845 85.9116C35.6087 86.5552 36.9303 86.4001 37.93 85.7535L23.9757 66.8225Z" fill="url(#paint20_linear)"/>
<path d="M42.2449 73.7263L39.9662 75.9484C39.4475 76.4536 39.1062 77.0959 38.9706 77.7859C38.8872 78.2018 38.8797 78.6339 38.9542 79.0632L39.4922 82.2003C39.7515 83.713 39.0392 85.0365 37.9303 85.7534C36.9304 86.4001 35.6085 86.5552 34.3834 85.9113L31.5667 84.4314C31.054 84.1617 30.4922 84.0276 29.9287 84.0276V74.9187L29.9497 74.9247L29.9408 74.9158L29.9289 74.8978V60.5222C31.1838 60.5222 32.4401 61.1765 33.0854 62.4849L34.4937 65.3375C34.8036 65.9678 35.291 66.4805 35.8826 66.8232C36.2657 67.0468 36.6934 67.1988 37.1449 67.2644L40.2939 67.722C41.9631 67.9633 43.0525 69.251 43.2702 70.6878C43.4312 71.7367 43.1271 72.8665 42.2449 73.7263Z" fill="url(#paint21_linear)"/>
<path d="M20.8879 77.7865C20.9701 78.2022 20.9776 78.6346 20.9039 79.0637L20.3659 82.2004C19.8727 85.0763 22.8912 87.2694 25.4738 85.9115L28.2907 84.4306C29.3163 83.8914 30.5416 83.8914 31.5672 84.4306L34.3841 85.9115C36.9668 87.2694 39.9853 85.0761 39.492 82.2004L38.954 79.0637C38.7582 77.9217 39.1367 76.7565 39.9665 75.9477L42.2454 73.7262C43.1274 72.8664 43.4298 71.7376 43.2696 70.6881L20.8879 77.7865Z" fill="url(#paint22_linear)"/>
<path d="M38.9547 79.0637C38.8811 78.6346 38.8888 78.202 38.9708 77.7865L16.5889 70.6883C16.4287 71.7378 16.7311 72.8665 17.6131 73.7263L19.892 75.9478C20.7218 76.7567 21.1003 77.9219 20.9045 79.0639L20.3665 82.2005C19.8733 85.0765 22.8918 87.2695 25.4744 85.9117L28.2913 84.4308C29.3169 83.8915 30.5422 83.8915 31.5677 84.4308L34.3847 85.9117C36.9674 87.2695 39.9859 85.0763 39.4926 82.2005L38.9547 79.0637Z" fill="url(#paint23_linear)"/>
<path d="M40.2953 67.7214L37.146 67.2638C36.6948 67.1982 36.2685 67.046 35.8853 66.8233L21.9434 85.7629C22.9414 86.4018 24.2563 86.5522 25.4747 85.9116L28.2917 84.4307C29.3173 83.8914 30.5425 83.8914 31.5681 84.4307L34.385 85.9116C36.9678 87.2694 39.9863 85.0762 39.4929 82.2004L38.9549 79.0638C38.7591 77.9218 39.1376 76.7566 39.9674 75.9477L42.2463 73.7262C44.3359 71.6895 43.1829 68.1411 40.2953 67.7214Z" fill="url(#paint24_linear)"/>
<path d="M62.2279 62.4842L63.6364 65.3381C64.1491 66.3771 65.1405 67.0973 66.287 67.264L69.4364 67.7216C72.324 68.1411 73.4768 71.6896 71.3874 73.7263L69.1085 75.9478C68.2787 76.7566 67.9002 77.9218 68.096 79.0638L68.634 82.2005C69.1271 85.0764 66.1086 87.2694 63.5261 85.9116L60.7091 84.4307C59.6835 83.8915 58.4583 83.8915 57.4327 84.4307L54.6158 85.9116C52.033 87.2694 49.0145 85.0762 49.5079 82.2005L50.0459 79.0638C50.2417 77.9218 49.8632 76.7566 49.0334 75.9478L46.7545 73.7263C44.6651 71.6896 45.818 68.1411 48.7055 67.7216L51.8549 67.264C53.0016 67.0973 53.9928 66.3771 54.5055 65.3381L55.9139 62.4842C57.2055 59.8676 60.9367 59.8676 62.2279 62.4842Z" fill="url(#paint25_linear)"/>
<path d="M53.1173 66.8225C52.7336 67.0457 52.3067 67.1983 51.8549 67.264L48.7055 67.7216C45.8179 68.1411 44.6651 71.6896 46.7545 73.7263L49.0334 75.9478C49.8632 76.7567 50.2417 77.9219 50.0459 79.0639L49.5079 82.2005C49.0147 85.0764 52.0332 87.2695 54.6158 85.9116L57.4328 84.4308C58.4584 83.8915 59.6836 83.8915 60.7092 84.4308L63.5261 85.9116C64.7503 86.5552 66.0719 86.4001 67.0716 85.7535L53.1173 66.8225Z" fill="url(#paint26_linear)"/>
<path d="M71.3873 73.7264L69.1086 75.9484C68.5899 76.4536 68.2486 77.096 68.113 77.786C68.0296 78.2018 68.0221 78.6339 68.0966 79.0632L68.6346 82.2004C68.8939 83.713 68.1816 85.0365 67.0727 85.7534C66.0728 86.4001 64.7509 86.5553 63.5258 85.9113L60.7091 84.4315C60.1964 84.1617 59.6346 84.0277 59.0713 84.0277V74.9188L59.0922 74.9247L59.0833 74.9158L59.0715 74.8978V60.5222C60.3264 60.5222 61.5827 61.1765 62.228 62.485L63.6363 65.3375C63.9462 65.9678 64.4336 66.4805 65.0252 66.8233C65.4083 67.0468 65.836 67.1988 66.2874 67.2644L69.4365 67.722C71.1057 67.9633 72.1951 69.251 72.4127 70.6878C72.5736 71.7368 72.2696 72.8665 71.3873 73.7264Z" fill="url(#paint27_linear)"/>
<path d="M50.0295 77.7865C50.1117 78.2022 50.1192 78.6346 50.0455 79.0637L49.5075 82.2004C49.0143 85.0763 52.0328 87.2694 54.6154 85.9115L57.4323 84.4306C58.4579 83.8914 59.6832 83.8914 60.7088 84.4306L63.5257 85.9115C66.1084 87.2694 69.1269 85.0761 68.6336 82.2004L68.0956 79.0637C67.8998 77.9217 68.2783 76.7565 69.1081 75.9477L71.387 73.7262C72.269 72.8664 72.5714 71.7376 72.4112 70.6881L50.0295 77.7865Z" fill="url(#paint28_linear)"/>
<path d="M68.0963 79.0637C68.0227 78.6346 68.0304 78.202 68.1124 77.7865L45.7305 70.6881C45.5703 71.7376 45.8727 72.8664 46.7547 73.7262L49.0336 75.9477C49.8634 76.7565 50.2419 77.9217 50.0461 79.0637L49.5081 82.2004C49.0149 85.0763 52.0334 87.2694 54.616 85.9115L57.4329 84.4306C58.4585 83.8914 59.6837 83.8914 60.7093 84.4306L63.5263 85.9115C66.109 87.2694 69.1275 85.0761 68.6342 82.2004L68.0963 79.0637Z" fill="url(#paint29_linear)"/>
<path d="M69.4361 67.7214L66.2868 67.2638C65.8356 67.1982 65.4093 67.046 65.0261 66.8233L51.084 85.7629C52.082 86.4018 53.3969 86.5522 54.6154 85.9116L57.4323 84.4307C58.4579 83.8914 59.6831 83.8914 60.7087 84.4307L63.5257 85.9116C66.1084 87.2694 69.1269 85.0762 68.6336 82.2004L68.0956 79.0638C67.8998 77.9218 68.2783 76.7566 69.1081 75.9477L71.387 73.7262C73.4766 71.6895 72.3236 68.1411 69.4361 67.7214Z" fill="url(#paint30_linear)"/>
<path d="M77.2779 34.2731L78.8925 37.5444C79.4802 38.7355 80.6165 39.5611 81.9309 39.752L85.5411 40.2766C88.851 40.7575 90.1728 44.8252 87.7776 47.1597L85.1652 49.7062C84.2141 50.6334 83.7801 51.9691 84.0047 53.2781L84.6215 56.8737C85.1869 60.1701 81.7267 62.6841 78.7663 61.1277L75.5374 59.43C74.3617 58.8119 72.9572 58.8119 71.7817 59.43L68.5528 61.1277C65.5922 62.6841 62.1322 60.1701 62.6976 56.8737L63.3143 53.2781C63.5389 51.9691 63.1049 50.6332 62.1538 49.7062L59.5414 47.1597C57.1463 44.8252 58.468 40.7575 61.778 40.2766L65.388 39.752C66.7024 39.5611 67.8387 38.7355 68.4264 37.5444L70.041 34.2731C71.5208 31.2738 75.7977 31.2738 77.2779 34.2731Z" fill="url(#paint31_linear)"/>
<path d="M66.8341 39.2461C66.3941 39.5019 65.9048 39.6768 65.3871 39.7521L61.777 40.2767C58.467 40.7577 57.1453 44.8253 59.5405 47.1599L62.1529 49.7064C63.1039 50.6335 63.538 51.9692 63.3134 53.2782L62.6966 56.8738C62.1312 60.1703 65.5914 62.6843 68.5518 61.1278L71.7807 59.4302C72.9564 58.8121 74.3609 58.8121 75.5364 59.4302L78.7653 61.1278C80.1687 61.8657 81.6835 61.6878 82.8295 60.9465L66.8341 39.2461Z" fill="url(#paint32_linear)"/>
<path d="M87.776 47.1599L85.164 49.7071C84.5694 50.2863 84.1783 51.0225 84.0229 51.8134C83.9272 52.29 83.9187 52.7854 84.004 53.2774L84.6207 56.8735C84.9179 58.6074 84.1014 60.1245 82.8304 60.9462C81.6841 61.6877 80.1688 61.8654 78.7645 61.1274L75.5357 59.4309C74.948 59.1217 74.3041 58.968 73.6582 58.968V48.5265L73.6821 48.5333L73.6718 48.523L73.6582 48.5024V32.0238C75.0967 32.0238 76.5367 32.7739 77.2765 34.2738L78.8909 37.5436C79.2462 38.2662 79.8048 38.8538 80.4831 39.2468C80.9222 39.503 81.4124 39.6773 81.9301 39.7525L85.5399 40.2769C87.4532 40.5537 88.702 42.0297 88.9514 43.6766C89.1358 44.8793 88.7873 46.1743 87.776 47.1599Z" fill="url(#paint33_linear)"/>
<path d="M63.2952 51.8141C63.3893 52.2905 63.398 52.7863 63.3137 53.2782L62.697 56.8738C62.1316 60.1703 65.5917 62.6843 68.5521 61.1278L71.7811 59.4302C72.9567 58.8121 74.3612 58.8121 75.5367 59.4302L78.7657 61.1278C81.7262 62.6843 85.1862 60.1703 84.6208 56.8738L84.0041 53.2782C83.7795 51.9692 84.2135 50.6334 85.1646 49.7064L87.777 47.1599C88.7881 46.1745 89.1347 44.8805 88.9511 43.6774L63.2952 51.8141Z" fill="url(#paint34_linear)"/>
<path d="M84.0041 53.278C83.9196 52.7861 83.9284 52.2903 84.0226 51.8139L58.3663 43.6772C58.1828 44.8803 58.5293 46.1741 59.5404 47.1597L62.1529 49.7062C63.1039 50.6334 63.5379 51.969 63.3133 53.278L62.6966 56.8736C62.1312 60.1701 65.5914 62.6841 68.5518 61.1277L71.7807 59.43C72.9564 58.8119 74.3609 58.8119 75.5364 59.43L78.7653 61.1277C81.7259 62.6841 85.1859 60.1701 84.6205 56.8736L84.0041 53.278Z" fill="url(#paint35_linear)"/>
<path d="M85.5405 40.2766L81.9305 39.752C81.4134 39.6768 80.9248 39.5023 80.4853 39.2472L64.5039 60.9574C65.6478 61.6898 67.1552 61.8621 68.552 61.1277L71.781 59.4301C72.9566 58.812 74.3611 58.812 75.5366 59.4301L78.7655 61.1277C81.7261 62.6842 85.1861 60.1702 84.6207 56.8737L84.004 53.2781C83.7794 51.9691 84.2134 50.6332 85.1645 49.7062L87.7769 47.1598C90.172 44.8252 88.8505 40.7577 85.5405 40.2766Z" fill="url(#paint36_linear)"/>
</g>
<defs>
<linearGradient id="paint0_linear" x1="33.8979" y1="37.9322" x2="57.7984" y2="61.8327" gradientUnits="userSpaceOnUse">
<stop stop-color="#F8F6FB"/>
<stop offset="1" stop-color="#EFDCFB"/>
</linearGradient>
<linearGradient id="paint1_linear" x1="52.102" y1="56.136" x2="34.9658" y2="38.9998" gradientUnits="userSpaceOnUse">
<stop stop-color="#F8F6FB"/>
<stop offset="1" stop-color="#EFDCFB"/>
</linearGradient>
<linearGradient id="paint2_linear" x1="47.3379" y1="67.7156" x2="-10.3667" y2="33.8607" gradientUnits="userSpaceOnUse">
<stop stop-color="#EFDCFB" stop-opacity="0"/>
<stop offset="0.4856" stop-color="#BAAAD6" stop-opacity="0.486"/>
<stop offset="1" stop-color="#8679B2"/>
</linearGradient>
<linearGradient id="paint3_linear" x1="60.0381" y1="58.1217" x2="39.5332" y2="11.7894" gradientUnits="userSpaceOnUse">
<stop stop-color="#EFDCFB" stop-opacity="0"/>
<stop offset="0.4856" stop-color="#BAAAD6" stop-opacity="0.486"/>
<stop offset="1" stop-color="#8679B2"/>
</linearGradient>
<linearGradient id="paint4_linear" x1="82.0833" y1="67.0236" x2="66.7264" y2="46.4315" gradientUnits="userSpaceOnUse">
<stop stop-color="#EFDCFB" stop-opacity="0"/>
<stop offset="0.4856" stop-color="#BAAAD6" stop-opacity="0.486"/>
<stop offset="1" stop-color="#8679B2"/>
</linearGradient>
<linearGradient id="paint5_linear" x1="67.3821" y1="81.2135" x2="51.9606" y2="65.792" gradientUnits="userSpaceOnUse">
<stop stop-color="#EFDCFB" stop-opacity="0"/>
<stop offset="0.4856" stop-color="#BAAAD6" stop-opacity="0.486"/>
<stop offset="1" stop-color="#8679B2"/>
</linearGradient>
<linearGradient id="paint6_linear" x1="49.7027" y1="86.1535" x2="18.5317" y2="54.9827" gradientUnits="userSpaceOnUse">
<stop stop-color="#EFDCFB" stop-opacity="0"/>
<stop offset="0.4856" stop-color="#BAAAD6" stop-opacity="0.486"/>
<stop offset="1" stop-color="#8679B2"/>
</linearGradient>
<linearGradient id="paint7_linear" x1="44.5004" y1="7.45928" x2="44.5004" y2="34.4336" gradientUnits="userSpaceOnUse">
<stop stop-color="#FFD945"/>
<stop offset="0.3043" stop-color="#FFCD3E"/>
<stop offset="0.8558" stop-color="#FFAD2B"/>
<stop offset="1" stop-color="#FFA325"/>
</linearGradient>
<linearGradient id="paint8_linear" x1="42.6522" y1="24.0388" x2="49.39" y2="7.04099" gradientUnits="userSpaceOnUse">
<stop stop-color="#FBB27E" stop-opacity="0"/>
<stop offset="1" stop-color="#FF7044"/>
</linearGradient>
<linearGradient id="paint9_linear" x1="57.9833" y1="24.2661" x2="33.1757" y2="19.4423" gradientUnits="userSpaceOnUse">
<stop stop-color="#FBB27E" stop-opacity="0"/>
<stop offset="1" stop-color="#FF7044"/>
</linearGradient>
<linearGradient id="paint10_linear" x1="47.7745" y1="34.6745" x2="46.3963" y2="10.4412" gradientUnits="userSpaceOnUse">
<stop stop-color="#FBB27E" stop-opacity="0"/>
<stop offset="1" stop-color="#FF7044"/>
</linearGradient>
<linearGradient id="paint11_linear" x1="39.8678" y1="30.9101" x2="50.7785" y2="16.5539" gradientUnits="userSpaceOnUse">
<stop stop-color="#FBB27E" stop-opacity="0"/>
<stop offset="1" stop-color="#FF7044"/>
</linearGradient>
<linearGradient id="paint12_linear" x1="48.7052" y1="28.6622" x2="33.7746" y2="21.886" gradientUnits="userSpaceOnUse">
<stop stop-color="#FBB27E" stop-opacity="0"/>
<stop offset="1" stop-color="#FF7044"/>
</linearGradient>
<linearGradient id="paint13_linear" x1="15.3419" y1="35.5808" x2="15.3419" y2="55.6425" gradientUnits="userSpaceOnUse">
<stop stop-color="#FFD945"/>
<stop offset="0.3043" stop-color="#FFCD3E"/>
<stop offset="0.8558" stop-color="#FFAD2B"/>
<stop offset="1" stop-color="#FFA325"/>
</linearGradient>
<linearGradient id="paint14_linear" x1="13.9674" y1="47.9115" x2="18.9784" y2="35.2699" gradientUnits="userSpaceOnUse">
<stop stop-color="#FBB27E" stop-opacity="0"/>
<stop offset="1" stop-color="#FF7044"/>
</linearGradient>
<linearGradient id="paint15_linear" x1="25.3687" y1="48.0807" x2="6.91862" y2="44.4931" gradientUnits="userSpaceOnUse">
<stop stop-color="#FBB27E" stop-opacity="0"/>
<stop offset="1" stop-color="#FF7044"/>
</linearGradient>
<linearGradient id="paint16_linear" x1="17.7774" y1="55.8215" x2="16.7523" y2="37.7985" gradientUnits="userSpaceOnUse">
<stop stop-color="#FBB27E" stop-opacity="0"/>
<stop offset="1" stop-color="#FF7044"/>
</linearGradient>
<linearGradient id="paint17_linear" x1="11.8963" y1="53.0219" x2="20.011" y2="42.3448" gradientUnits="userSpaceOnUse">
<stop stop-color="#FBB27E" stop-opacity="0"/>
<stop offset="1" stop-color="#FF7044"/>
</linearGradient>
<linearGradient id="paint18_linear" x1="18.469" y1="51.3501" x2="7.36481" y2="46.3106" gradientUnits="userSpaceOnUse">
<stop stop-color="#FBB27E" stop-opacity="0"/>
<stop offset="1" stop-color="#FF7044"/>
</linearGradient>
<linearGradient id="paint19_linear" x1="29.9294" y1="63.6249" x2="29.9294" y2="81.1264" gradientUnits="userSpaceOnUse">
<stop stop-color="#FFD945"/>
<stop offset="0.3043" stop-color="#FFCD3E"/>
<stop offset="0.8558" stop-color="#FFAD2B"/>
<stop offset="1" stop-color="#FFA325"/>
</linearGradient>
<linearGradient id="paint20_linear" x1="28.7307" y1="74.3821" x2="33.1024" y2="63.3536" gradientUnits="userSpaceOnUse">
<stop stop-color="#FBB27E" stop-opacity="0"/>
<stop offset="1" stop-color="#FF7044"/>
</linearGradient>
<linearGradient id="paint21_linear" x1="38.6769" y1="74.5296" x2="22.5813" y2="71.3999" gradientUnits="userSpaceOnUse">
<stop stop-color="#FBB27E" stop-opacity="0"/>
<stop offset="1" stop-color="#FF7044"/>
</linearGradient>
<linearGradient id="paint22_linear" x1="32.054" y1="81.2826" x2="31.1599" y2="65.5598" gradientUnits="userSpaceOnUse">
<stop stop-color="#FBB27E" stop-opacity="0"/>
<stop offset="1" stop-color="#FF7044"/>
</linearGradient>
<linearGradient id="paint23_linear" x1="26.9242" y1="78.8403" x2="34.0032" y2="69.5257" gradientUnits="userSpaceOnUse">
<stop stop-color="#FBB27E" stop-opacity="0"/>
<stop offset="1" stop-color="#FF7044"/>
</linearGradient>
<linearGradient id="paint24_linear" x1="32.6583" y1="77.3817" x2="22.9712" y2="72.9853" gradientUnits="userSpaceOnUse">
<stop stop-color="#FBB27E" stop-opacity="0"/>
<stop offset="1" stop-color="#FF7044"/>
</linearGradient>
<linearGradient id="paint25_linear" x1="59.071" y1="63.6249" x2="59.071" y2="81.1264" gradientUnits="userSpaceOnUse">
<stop stop-color="#FFD945"/>
<stop offset="0.3043" stop-color="#FFCD3E"/>
<stop offset="0.8558" stop-color="#FFAD2B"/>
<stop offset="1" stop-color="#FFA325"/>
</linearGradient>
<linearGradient id="paint26_linear" x1="57.8722" y1="74.3821" x2="62.2438" y2="63.3536" gradientUnits="userSpaceOnUse">
<stop stop-color="#FBB27E" stop-opacity="0"/>
<stop offset="1" stop-color="#FF7044"/>
</linearGradient>
<linearGradient id="paint27_linear" x1="67.8193" y1="74.5296" x2="51.7239" y2="71.4" gradientUnits="userSpaceOnUse">
<stop stop-color="#FBB27E" stop-opacity="0"/>
<stop offset="1" stop-color="#FF7044"/>
</linearGradient>
<linearGradient id="paint28_linear" x1="61.1955" y1="81.2826" x2="60.3013" y2="65.5598" gradientUnits="userSpaceOnUse">
<stop stop-color="#FBB27E" stop-opacity="0"/>
<stop offset="1" stop-color="#FF7044"/>
</linearGradient>
<linearGradient id="paint29_linear" x1="56.0658" y1="78.8404" x2="63.145" y2="69.5257" gradientUnits="userSpaceOnUse">
<stop stop-color="#FBB27E" stop-opacity="0"/>
<stop offset="1" stop-color="#FF7044"/>
</linearGradient>
<linearGradient id="paint30_linear" x1="61.7991" y1="77.3817" x2="52.1118" y2="72.9853" gradientUnits="userSpaceOnUse">
<stop stop-color="#FBB27E" stop-opacity="0"/>
<stop offset="1" stop-color="#FF7044"/>
</linearGradient>
<linearGradient id="paint31_linear" x1="73.6593" y1="35.5808" x2="73.6593" y2="55.6425" gradientUnits="userSpaceOnUse">
<stop stop-color="#FFD945"/>
<stop offset="0.3043" stop-color="#FFCD3E"/>
<stop offset="0.8558" stop-color="#FFAD2B"/>
<stop offset="1" stop-color="#FFA325"/>
</linearGradient>
<linearGradient id="paint32_linear" x1="72.2847" y1="47.9115" x2="77.2958" y2="35.2699" gradientUnits="userSpaceOnUse">
<stop stop-color="#FBB27E" stop-opacity="0"/>
<stop offset="1" stop-color="#FF7044"/>
</linearGradient>
<linearGradient id="paint33_linear" x1="83.6861" y1="48.0807" x2="65.236" y2="44.4931" gradientUnits="userSpaceOnUse">
<stop stop-color="#FBB27E" stop-opacity="0"/>
<stop offset="1" stop-color="#FF7044"/>
</linearGradient>
<linearGradient id="paint34_linear" x1="76.0948" y1="55.8215" x2="75.0697" y2="37.7985" gradientUnits="userSpaceOnUse">
<stop stop-color="#FBB27E" stop-opacity="0"/>
<stop offset="1" stop-color="#FF7044"/>
</linearGradient>
<linearGradient id="paint35_linear" x1="70.2136" y1="53.0219" x2="78.3283" y2="42.3448" gradientUnits="userSpaceOnUse">
<stop stop-color="#FBB27E" stop-opacity="0"/>
<stop offset="1" stop-color="#FF7044"/>
</linearGradient>
<linearGradient id="paint36_linear" x1="76.7861" y1="51.3501" x2="65.6818" y2="46.3106" gradientUnits="userSpaceOnUse">
<stop stop-color="#FBB27E" stop-opacity="0"/>
<stop offset="1" stop-color="#FF7044"/>
</linearGradient>
<clipPath id="clip0">
<rect width="89" height="89" fill="white"/>
</clipPath>
</defs>
</svg>
