<svg width="14" height="14" viewBox="0 0 14 14" fill="none" xmlns="http://www.w3.org/2000/svg">
<path d="M13.0625 0.937627C11.8126 -0.312299 9.77875 -0.312557 8.52865 0.936939L6.55108 2.91537L7.46404 3.82816L9.44221 1.84955C10.1891 1.10392 11.4032 1.10418 12.1496 1.85058C12.8961 2.59699 12.896 3.8118 12.1496 4.55847L9.18133 7.52655C8.81975 7.88822 8.33895 8.08739 7.82752 8.08739C7.31608 8.08739 6.8352 7.88822 6.47361 7.52655L5.56066 8.43942C6.16617 9.04493 6.97128 9.37846 7.8276 9.37846C8.68392 9.37846 9.48904 9.04493 10.0943 8.43942L13.0626 5.47134C14.3123 4.22116 14.3123 2.1873 13.0625 0.937627Z" fill="#1998FF"/>
<path d="M4.55826 12.15C3.81159 12.8962 2.59687 12.896 1.85037 12.1495C1.10387 11.4029 1.10387 10.1879 1.85028 9.44129L4.81819 6.47338C5.56486 5.7268 6.77967 5.7268 7.52616 6.47338L8.43921 5.56051C7.18911 4.31049 5.15525 4.31041 3.90532 5.56051L0.93724 8.52842C-0.312428 9.77843 -0.312428 11.8124 0.937326 13.0625C1.56246 13.6875 2.38341 14.0001 3.20453 14C4.0253 14 4.84625 13.6876 5.47104 13.0629L7.44947 11.084L6.53643 10.1712L4.55826 12.15Z" fill="#1998FF"/>
</svg>
