<svg width="10" height="17" viewBox="0 0 10 17" fill="none" xmlns="http://www.w3.org/2000/svg">
<path d="M9.37486 0.00353713L7.13222 0C4.61269 0 2.98446 1.64211 2.98446 4.18372V6.1127H0.729587C0.534739 6.1127 0.376953 6.26798 0.376953 6.45951V9.25438C0.376953 9.44592 0.534919 9.60102 0.729587 9.60102H2.98446V16.6534C2.98446 16.8449 3.14225 17 3.33709 17H6.27906C6.47391 17 6.6317 16.8447 6.6317 16.6534V9.60102H9.26817C9.46302 9.60102 9.6208 9.44592 9.6208 9.25438L9.62188 6.45951C9.62188 6.36755 9.58464 6.27948 9.51861 6.21439C9.45258 6.14931 9.36263 6.1127 9.26907 6.1127H6.6317V4.47748C6.6317 3.69153 6.82223 3.29254 7.86375 3.29254L9.3745 3.29201C9.56917 3.29201 9.72695 3.13673 9.72695 2.94537V0.350176C9.72695 0.158994 9.56935 0.00389085 9.37486 0.00353713Z" fill="white"/>
</svg>
