<svg width="14" height="14" viewBox="0 0 14 14" fill="none" xmlns="http://www.w3.org/2000/svg">
<g clip-path="url(#clip0)">
<path d="M13.0624 0.937627C11.8125 -0.312299 9.77864 -0.312557 8.52854 0.936939L8.5288 0.937197L6.55097 2.91537L7.46393 3.82816L9.4421 1.84955L9.44193 1.84938C10.1889 1.10374 11.4031 1.10418 12.1495 1.85058C12.896 2.59699 12.8959 3.8118 12.1495 4.55847L9.18122 7.52655C8.81964 7.88822 8.33884 8.08739 7.82741 8.08739C7.31597 8.08739 6.83509 7.88822 6.4735 7.52655L5.56055 8.43942C6.16606 9.04493 6.97117 9.37846 7.82749 9.37846C8.68382 9.37846 9.48893 9.04493 10.0942 8.43942L13.0625 5.47134C14.3122 4.22116 14.3122 2.1873 13.0624 0.937627Z" fill="#3C3F44"/>
<path d="M4.55826 12.1499C3.81159 12.8962 2.59687 12.896 1.85037 12.1495C1.10387 11.4028 1.10387 10.1878 1.85028 9.44125L4.81819 6.47334C5.56486 5.72676 6.77967 5.72676 7.52616 6.47334L8.43921 5.56047C7.18911 4.31045 5.15525 4.31037 3.90532 5.56047L0.93724 8.52838C-0.312428 9.77839 -0.312428 11.8123 0.937326 13.0624C1.56246 13.6875 2.38341 14 3.20453 13.9999C4.0253 13.9999 4.84625 13.6876 5.47104 13.0629L5.47121 13.0628L7.44947 11.084L6.53643 10.1711L4.55826 12.1499Z" fill="#3C3F44"/>
</g>
<defs>
<clipPath id="clip0">
<rect width="14" height="14" fill="white"/>
</clipPath>
</defs>
</svg>
