<svg width="12" height="14" viewBox="0 0 12 14" fill="none" xmlns="http://www.w3.org/2000/svg">
<path d="M6.00031 0C3.02554 0 0.605469 2.4204 0.605469 5.39548C0.605469 7.52132 1.49547 9.67166 3.17927 11.6141C4.4369 13.0649 5.68324 13.8869 5.73573 13.9212C5.81608 13.9738 5.90822 14 6.00037 14C6.09245 14 6.1846 13.9738 6.26501 13.9212C6.31744 13.8869 7.56397 13.0649 8.8216 11.6142C10.5055 9.67166 11.3956 7.52132 11.3956 5.39548C11.3955 2.4204 8.9752 0 6.00031 0ZM6.00031 12.9225C5.0081 12.1832 1.57272 9.33763 1.57272 5.39548C1.57272 2.95374 3.55889 0.967256 6.00031 0.967256C8.44192 0.967256 10.4283 2.95374 10.4283 5.39548C10.4283 9.33763 6.99258 12.1832 6.00031 12.9225Z" fill="#3B3F44"/>
<path d="M6.00069 3.25317C4.81999 3.25317 3.85944 4.21378 3.85944 5.39461C3.85944 6.57511 4.81999 7.53554 6.00069 7.53554C7.18138 7.53554 8.14187 6.57511 8.14187 5.39461C8.14187 4.21385 7.18132 3.25317 6.00069 3.25317ZM6.00069 6.56828C5.35333 6.56828 4.8267 6.04177 4.8267 5.39461C4.8267 4.74713 5.35333 4.22042 6.00069 4.22042C6.64797 4.22042 7.17461 4.74713 7.17461 5.39461C7.17461 6.04177 6.64797 6.56828 6.00069 6.56828Z" fill="#3B3F44"/>
</svg>
