<svg width="44" height="44" viewBox="0 0 44 44" fill="none" xmlns="http://www.w3.org/2000/svg">
<g clip-path="url(#clip0)">
<path d="M33.5665 2.525V37.4425C33.5665 38.8374 32.4364 39.9675 31.0415 39.9675H6.57388C5.179 39.9675 4.04785 38.8364 4.04785 37.4415V10.1324C4.04785 9.26606 9.39894 5.47791 10.0117 4.86519C10.0117 4.86519 12.3989 0.433271 12.406 0.427145C12.7174 0.152188 13.1181 0 13.5361 0H31.0415C32.4364 0 33.5665 1.13115 33.5665 2.525Z" fill="#E3CEEF"/>
<path d="M29.1394 0H13.537C13.119 0 12.7183 0.152188 12.4068 0.427059C12.3998 0.433184 12.3926 0.439224 12.3855 0.445349C12.3693 0.459584 12.354 0.474769 12.3389 0.489004L6.00001 7.85486C5.38729 8.46759 4.04883 9.26597 4.04883 10.1323V25.0906L29.1394 0Z" fill="url(#paint0_linear)"/>
<path d="M35.0733 44H10.6059C9.21088 44 8.08008 42.8692 8.08008 41.4742V6.05113C8.08008 4.65607 9.21096 3.52527 10.6059 3.52527H35.0733C36.4683 3.52527 37.5992 4.65616 37.5992 6.05113V41.4741C37.5992 42.8692 36.4683 44 35.0733 44Z" fill="url(#paint1_linear)"/>
<path d="M14.0129 3.87924L8.43439 9.45775C8.04892 9.84323 7.47778 9.97411 6.96238 9.79457L6.06564 9.48208C5.07857 9.13923 4.04785 9.87161 4.04785 10.9165V10.1323C4.04785 9.26597 4.39174 8.43618 5.00446 7.82346L12.338 0.488914C12.3532 0.474679 12.3684 0.459494 12.3846 0.445259C12.3917 0.439134 12.3989 0.433094 12.406 0.426969C12.8726 0.0465846 13.5928 0.237251 13.7978 0.822624L14.3497 2.40818C14.5293 2.92263 14.3984 3.49377 14.0129 3.87924Z" fill="url(#paint2_linear)"/>
<path d="M33.5243 12.0028H12.1559C11.7014 12.0028 11.333 11.6344 11.333 11.1799V9.94966C11.333 9.49516 11.7014 9.12677 12.1559 9.12677H33.5243C33.9787 9.12677 34.3472 9.49516 34.3472 9.94966V11.1799C34.3471 11.6344 33.9787 12.0028 33.5243 12.0028Z" fill="#E3CEEF"/>
<path d="M27.9786 18.5816H12.1559C11.7014 18.5816 11.333 18.2132 11.333 17.7587V16.5285C11.333 16.074 11.7014 15.7056 12.1559 15.7056H27.9786C28.433 15.7056 28.8014 16.074 28.8014 16.5285V17.7587C28.8014 18.2132 28.433 18.5816 27.9786 18.5816Z" fill="#E3CEEF"/>
<path d="M33.5243 25.1602H12.1559C11.7014 25.1602 11.333 24.7918 11.333 24.3373V23.1071C11.333 22.6526 11.7014 22.2842 12.1559 22.2842H33.5243C33.9787 22.2842 34.3472 22.6526 34.3472 23.1071V24.3373C34.3471 24.7918 33.9787 25.1602 33.5243 25.1602Z" fill="#E3CEEF"/>
<path d="M28.8578 31.8196H12.1559C11.7014 31.8196 11.333 31.4512 11.333 30.9967V29.7664C11.333 29.3119 11.7014 28.9435 12.1559 28.9435H28.8578C29.3123 28.9435 29.6806 29.3119 29.6806 29.7664V30.9967C29.6806 31.4512 29.3122 31.8196 28.8578 31.8196Z" fill="#E3CEEF"/>
<path d="M23.9884 38.3983H12.1559C11.7014 38.3983 11.333 38.0299 11.333 37.5754V36.3452C11.333 35.8907 11.7014 35.5223 12.1559 35.5223H23.9884C24.4429 35.5223 24.8113 35.8907 24.8113 36.3452V37.5754C24.8113 38.0299 24.4429 38.3983 23.9884 38.3983Z" fill="#E3CEEF"/>
<path d="M37.5991 41.4741V22.5687C37.4596 22.6032 25.2574 34.9758 25.209 35.1373L24.1023 38.2602C24.0901 38.3011 24.103 38.3405 24.1292 38.3667L29.7631 44H35.0732C36.4682 44 37.5991 42.8691 37.5991 41.4741Z" fill="url(#paint3_linear)"/>
<path d="M29.2396 35.751L26.7449 33.2563L25.2916 34.7096C25.1724 34.8289 25.0848 34.9758 25.0364 35.1373L24.46 37.0644L24.4833 38.0443L25.4318 38.036L27.3586 37.4596C27.5201 37.4113 27.667 37.3236 27.7863 37.2044L29.2396 35.751Z" fill="url(#paint4_linear)"/>
<path d="M25.0873 37.4086C24.9103 37.2317 24.6933 37.1173 24.4606 37.0623L24.1023 38.2602C24.0779 38.3419 24.1541 38.4181 24.2358 38.3936L25.4336 38.0353C25.3786 37.8026 25.2641 37.5856 25.0873 37.4086Z" fill="url(#paint5_linear)"/>
<path d="M27.105 35.8039V36.8892C27.105 37.257 27.5497 37.4411 27.8097 37.1811L39.713 25.2778C40.0322 24.9586 40.0322 24.441 39.713 24.1217L38.3745 22.7832C38.0552 22.464 37.5377 22.464 37.2184 22.7832L25.3151 34.6865C25.055 34.9465 25.2392 35.3911 25.6069 35.3911H26.6922C26.9202 35.3911 27.105 35.5759 27.105 35.8039Z" fill="url(#paint6_linear)"/>
<path d="M39.7131 24.1218L39.0438 23.4525L26.9844 35.5121C27.0591 35.5868 27.1052 35.69 27.1052 35.8039V36.8892C27.1052 37.257 27.5499 37.4411 27.8099 37.1811L39.7132 25.2778C40.0324 24.9585 40.0324 24.441 39.7131 24.1218Z" fill="url(#paint7_linear)"/>
</g>
<defs>
<linearGradient id="paint0_linear" x1="13.1062" y1="10.7326" x2="2.97523" y2="5.46704" gradientUnits="userSpaceOnUse">
<stop stop-color="#EFDCFB" stop-opacity="0"/>
<stop offset="0.4856" stop-color="#BAAAD6" stop-opacity="0.486"/>
<stop offset="1" stop-color="#8679B2"/>
</linearGradient>
<linearGradient id="paint1_linear" x1="8.07999" y1="23.7626" x2="37.5992" y2="23.7626" gradientUnits="userSpaceOnUse">
<stop stop-color="#F8F6FB"/>
<stop offset="1" stop-color="#EFDCFB"/>
</linearGradient>
<linearGradient id="paint2_linear" x1="8.30653" y1="5.1907" x2="10.2343" y2="7.11842" gradientUnits="userSpaceOnUse">
<stop stop-color="#F8F6FB"/>
<stop offset="1" stop-color="#EFDCFB"/>
</linearGradient>
<linearGradient id="paint3_linear" x1="38.5248" y1="38.1284" x2="30.6201" y2="30.2237" gradientUnits="userSpaceOnUse">
<stop stop-color="#EFDCFB" stop-opacity="0"/>
<stop offset="0.4856" stop-color="#BAAAD6" stop-opacity="0.486"/>
<stop offset="1" stop-color="#8679B2"/>
</linearGradient>
<linearGradient id="paint4_linear" x1="24.9859" y1="35.0308" x2="27.4801" y2="37.525" gradientUnits="userSpaceOnUse">
<stop stop-color="#FFDECF"/>
<stop offset="1" stop-color="#FAA68E"/>
</linearGradient>
<linearGradient id="paint5_linear" x1="24.1252" y1="37.4129" x2="25.098" y2="38.3858" gradientUnits="userSpaceOnUse">
<stop stop-color="#8A7889"/>
<stop offset="1" stop-color="#6E566E"/>
</linearGradient>
<linearGradient id="paint6_linear" x1="31.4118" y1="28.605" x2="33.906" y2="31.0993" gradientUnits="userSpaceOnUse">
<stop stop-color="#FFD945"/>
<stop offset="0.3043" stop-color="#FFCD3E"/>
<stop offset="0.8558" stop-color="#FFAD2B"/>
<stop offset="1" stop-color="#FFA325"/>
</linearGradient>
<linearGradient id="paint7_linear" x1="34.0834" y1="31.5639" x2="31.8021" y2="28.1875" gradientUnits="userSpaceOnUse">
<stop stop-color="#E87264" stop-opacity="0"/>
<stop offset="0.3529" stop-color="#ED725D" stop-opacity="0.353"/>
<stop offset="0.8514" stop-color="#FA704B" stop-opacity="0.851"/>
<stop offset="1" stop-color="#FF7044"/>
</linearGradient>
<clipPath id="clip0">
<rect width="44" height="44" fill="white"/>
</clipPath>
</defs>
</svg>
