<svg width="44" height="44" viewBox="0 0 44 44" fill="none" xmlns="http://www.w3.org/2000/svg">
<g clip-path="url(#clip0)">
<path d="M38.782 40.3438H5.21759C3.42871 40.3438 1.97852 38.8937 1.97852 37.1048V9.15618C1.97852 7.36731 3.42871 5.91711 5.21759 5.91711H38.782C40.5709 5.91711 42.0211 7.36731 42.0211 9.15618V37.1048C42.0211 38.8937 40.5709 40.3438 38.782 40.3438Z" fill="url(#paint0_linear)"/>
<path d="M38.0332 39.5761H5.96579C4.25666 39.5761 2.87109 38.1906 2.87109 36.4814V9.77945C2.87109 8.07032 4.25658 6.68475 5.96579 6.68475H38.0331C39.7422 6.68475 41.1278 8.07024 41.1278 9.77945V36.4815C41.1279 38.1906 39.7423 39.5761 38.0332 39.5761Z" fill="url(#paint1_linear)"/>
<path d="M39.8514 14.9575L31.778 0.974128C31.2403 0.0426511 30.0491 -0.276521 29.1176 0.261362L3.66309 14.9575H39.8514Z" fill="url(#paint2_linear)"/>
<path d="M1.97852 26.2116H42.0211V15.6059C42.0211 14.2673 40.936 13.1821 39.5973 13.1821H4.4023C3.06365 13.1821 1.97852 14.2673 1.97852 15.6059V26.2116Z" fill="url(#paint3_linear)"/>
<path d="M1.97852 22.223V37.1048C1.97852 38.8937 3.42871 40.344 5.21767 40.344H38.782C40.5709 40.344 42.0211 38.8938 42.0211 37.1049V22.223C42.0211 21.1181 41.1254 20.2224 40.0205 20.2224H3.97914C2.87424 20.2224 1.97852 21.1181 1.97852 22.223Z" fill="url(#paint4_linear)"/>
<path d="M35.9805 14.5472V40.344H38.7825C40.5713 40.344 42.0215 38.8939 42.0215 37.105V20.5883L35.9805 14.5472Z" fill="url(#paint5_linear)"/>
<path d="M33.2488 43.9757L5.13973 40.7111C3.33779 40.5017 1.97852 38.9756 1.97852 37.1615V8.91473C1.97852 9.5218 2.43338 10.0324 3.03623 10.1025L34.0732 13.7072C35.8751 13.9166 37.2344 15.4427 37.2344 17.2568V40.4262C37.2344 42.563 35.3713 44.2223 33.2488 43.9757Z" fill="url(#paint6_linear)"/>
<path d="M33.2488 38.3336L5.13973 35.069C3.33779 34.8596 1.97852 33.3335 1.97852 31.5194V37.1615C1.97852 38.9756 3.33779 40.5019 5.13973 40.7111L33.2488 43.9757C35.3713 44.2223 37.2345 42.5631 37.2345 40.4261V34.784C37.2344 36.9209 35.3713 38.58 33.2488 38.3336Z" fill="url(#paint7_linear)"/>
<path d="M4.49961 13.3174C4.47607 13.3174 4.45218 13.316 4.4282 13.3134L3.14189 13.172C2.78662 13.1329 2.53027 12.8133 2.56937 12.4582C2.60847 12.103 2.92824 11.8469 3.28317 11.8857L4.56948 12.0271C4.92475 12.0662 5.1811 12.3857 5.142 12.7409C5.10556 13.0722 4.82523 13.3174 4.49961 13.3174Z" fill="url(#paint8_linear)"/>
<path d="M30.9307 41.8438C30.9035 41.8438 30.8759 41.842 30.8482 41.8386L28.3482 41.5207C27.9938 41.4757 27.7428 41.1517 27.788 40.7971C27.8331 40.4427 28.157 40.1932 28.5115 40.2369L31.0116 40.5548C31.366 40.5998 31.617 40.9238 31.5718 41.2784C31.5301 41.6051 31.2517 41.8438 30.9307 41.8438ZM33.3914 41.5235C33.1487 41.5235 32.9159 41.3863 32.8057 41.152C32.6533 40.8288 32.7919 40.4432 33.1152 40.291C33.7717 39.9817 34.2654 39.4686 34.4699 38.8832C34.5877 38.546 34.9569 38.3681 35.2941 38.4857C35.6314 38.6035 35.8094 38.9725 35.6916 39.3099C35.3688 40.2344 34.6497 40.9986 33.6668 41.4617C33.5776 41.5036 33.4839 41.5235 33.3914 41.5235ZM25.9308 41.2081C25.9036 41.2081 25.8759 41.2063 25.8483 41.2028L23.3483 40.8849C22.9938 40.8399 22.7428 40.5159 22.788 40.1614C22.8331 39.8069 23.157 39.5574 23.5116 39.6011L26.0116 39.919C26.366 39.964 26.6171 40.288 26.5719 40.6426C26.5302 40.9692 26.2516 41.2081 25.9308 41.2081ZM20.9308 40.5722C20.9037 40.5722 20.8761 40.5704 20.8483 40.567L18.3483 40.2491C17.9939 40.2041 17.7429 39.8801 17.7881 39.5255C17.8332 39.1711 18.1572 38.9203 18.5117 38.9653L21.0117 39.2832C21.3661 39.3282 21.6171 39.6522 21.5719 40.0067C21.5302 40.3334 21.2516 40.5722 20.9308 40.5722ZM15.9307 39.9364C15.9036 39.9364 15.876 39.9346 15.8482 39.9311L13.3481 39.6132C12.9936 39.568 12.7427 39.2441 12.7879 38.8896C12.833 38.5351 13.1571 38.2855 13.5115 38.3293L16.0116 38.6473C16.3661 38.6924 16.617 39.0163 16.5718 39.3709C16.5303 39.6977 16.2517 39.9364 15.9307 39.9364ZM10.9308 39.3005C10.9036 39.3005 10.8761 39.2987 10.8483 39.2953L8.3482 38.9773C7.99371 38.9322 7.74277 38.6083 7.78798 38.2537C7.8331 37.8992 8.15717 37.6496 8.51157 37.6935L11.0117 38.0115C11.3662 38.0566 11.6171 38.3805 11.5719 38.735C11.5303 39.0619 11.2518 39.3005 10.9308 39.3005ZM35.2259 37.2402C34.8685 37.2402 34.5789 36.9506 34.5789 36.5931V34.073C34.5789 33.7156 34.8685 33.426 35.2259 33.426C35.5833 33.426 35.873 33.7156 35.873 34.073V36.5931C35.873 36.9506 35.5834 37.2402 35.2259 37.2402ZM35.2259 32.2C34.8685 32.2 34.5789 31.9104 34.5789 31.553V29.0329C34.5789 28.6755 34.8685 28.3858 35.2259 28.3858C35.5833 28.3858 35.873 28.6755 35.873 29.0329V31.553C35.873 31.9103 35.5834 32.2 35.2259 32.2ZM35.2259 27.1598C34.8685 27.1598 34.5789 26.8702 34.5789 26.5128V23.9926C34.5789 23.6352 34.8685 23.3456 35.2259 23.3456C35.5833 23.3456 35.873 23.6352 35.873 23.9926V26.5128C35.873 26.8701 35.5834 27.1598 35.2259 27.1598ZM35.2259 22.1195C34.8685 22.1195 34.5789 21.8299 34.5789 21.4725V18.9524C34.5789 18.595 34.8685 18.3054 35.2259 18.3054C35.5833 18.3054 35.873 18.595 35.873 18.9524V21.4725C35.873 21.8298 35.5834 22.1195 35.2259 22.1195ZM34.321 17.3375C34.1613 17.3375 34.0011 17.2787 33.8761 17.1602C33.3965 16.7057 32.7309 16.4162 32.0017 16.3448L31.9846 16.343C31.6293 16.3048 31.3722 15.9857 31.4106 15.6304C31.4488 15.2751 31.7678 15.0179 32.1232 15.0563L32.1342 15.0575C33.1419 15.1563 34.0788 15.5696 34.7663 16.2208C35.0257 16.4666 35.0367 16.8762 34.7909 17.1356C34.6636 17.2697 34.4925 17.3375 34.321 17.3375ZM29.5495 16.0713C29.526 16.0713 29.5021 16.07 29.4781 16.0674L26.9731 15.792C26.6179 15.7529 26.3615 15.4333 26.4006 15.0782C26.4397 14.723 26.7595 14.4673 27.1144 14.5057L29.6194 14.7811C29.9745 14.8202 30.231 15.1397 30.1919 15.4949C30.1555 15.8261 29.8751 16.0713 29.5495 16.0713ZM24.5396 15.5205C24.5161 15.5205 24.4922 15.5191 24.4682 15.5165L21.9631 15.2411C21.6079 15.202 21.3515 14.8825 21.3906 14.5273C21.4296 14.172 21.7499 13.9161 22.1044 13.9548L24.6095 14.2302C24.9647 14.2693 25.2211 14.5888 25.182 14.944C25.1455 15.2753 24.8652 15.5205 24.5396 15.5205ZM19.5294 14.9697C19.5059 14.9697 19.482 14.9683 19.458 14.9658L16.953 14.6903C16.5979 14.6512 16.3414 14.3317 16.3805 13.9765C16.4195 13.6214 16.7391 13.3654 17.0943 13.404L19.5993 13.6794C19.9545 13.7185 20.2109 14.0381 20.1718 14.3932C20.1355 14.7244 19.8552 14.9697 19.5294 14.9697ZM14.5194 14.4189C14.4958 14.4189 14.4719 14.4176 14.448 14.415L11.943 14.1396C11.5877 14.1005 11.3314 13.7809 11.3705 13.4258C11.4095 13.0707 11.7287 12.8148 12.0843 12.8532L14.5892 13.1287C14.9444 13.1678 15.2009 13.4873 15.1618 13.8425C15.1255 14.1737 14.8451 14.4189 14.5194 14.4189ZM9.50931 13.8681C9.48576 13.8681 9.46187 13.8667 9.43789 13.8641L6.9329 13.5887C6.57772 13.5496 6.32128 13.2301 6.36038 12.8749C6.39949 12.5198 6.71883 12.2641 7.07418 12.3024L9.57917 12.5778C9.93444 12.6169 10.1908 12.9364 10.1517 13.2916C10.1153 13.6228 9.83492 13.8681 9.50931 13.8681Z" fill="url(#paint9_linear)"/>
<path d="M5.924 38.6638C5.89684 38.6638 5.86934 38.6621 5.84158 38.6586L4.55776 38.4954C4.20327 38.4504 3.95225 38.1264 3.99745 37.7719C4.04248 37.4174 4.36647 37.1666 4.72096 37.2116L6.00478 37.3748C6.35927 37.4198 6.61029 37.7438 6.56509 38.0983C6.5235 38.4251 6.24489 38.6638 5.924 38.6638Z" fill="url(#paint10_linear)"/>
<path d="M29.6979 4.8184L25.5567 7.07186C25.0173 7.36533 24.3421 7.16605 24.0485 6.62662C23.755 6.08718 23.9543 5.41197 24.4938 5.11841L28.635 2.86504C29.1744 2.57156 29.8496 2.77085 30.1432 3.31028C30.4367 3.84963 30.2374 4.52493 29.6979 4.8184Z" fill="#61DB99"/>
<path d="M37.2346 31.2658L33.125 27.1562C32.5452 26.5248 31.7131 26.1288 30.7883 26.1288C29.0364 26.1288 27.6162 27.5491 27.6162 29.301C27.6162 30.2257 28.0122 31.0579 28.6436 31.6376L37.2347 40.2287V31.2658H37.2346Z" fill="url(#paint11_linear)"/>
<path d="M30.7883 32.4727C32.5403 32.4727 33.9605 31.0525 33.9605 29.3005C33.9605 27.5486 32.5403 26.1284 30.7883 26.1284C29.0364 26.1284 27.6162 27.5486 27.6162 29.3005C27.6162 31.0525 29.0364 32.4727 30.7883 32.4727Z" fill="url(#paint12_linear)"/>
<path d="M30.7878 31.4897C31.9968 31.4897 32.977 30.5096 32.977 29.3006C32.977 28.0915 31.9968 27.1114 30.7878 27.1114C29.5788 27.1114 28.5986 28.0915 28.5986 29.3006C28.5986 30.5096 29.5788 31.4897 30.7878 31.4897Z" fill="url(#paint13_linear)"/>
<path d="M29.9569 28.9219C30.2071 28.9219 30.4099 28.7191 30.4099 28.4689C30.4099 28.2187 30.2071 28.0159 29.9569 28.0159C29.7067 28.0159 29.5039 28.2187 29.5039 28.4689C29.5039 28.7191 29.7067 28.9219 29.9569 28.9219Z" fill="url(#paint14_linear)"/>
<path d="M31.62 28.9219C31.8701 28.9219 32.0729 28.7191 32.0729 28.4689C32.0729 28.2187 31.8701 28.0159 31.62 28.0159C31.3698 28.0159 31.167 28.2187 31.167 28.4689C31.167 28.7191 31.3698 28.9219 31.62 28.9219Z" fill="url(#paint15_linear)"/>
<path d="M29.9569 30.5861C30.2071 30.5861 30.4099 30.3833 30.4099 30.1331C30.4099 29.8829 30.2071 29.6801 29.9569 29.6801C29.7067 29.6801 29.5039 29.8829 29.5039 30.1331C29.5039 30.3833 29.7067 30.5861 29.9569 30.5861Z" fill="url(#paint16_linear)"/>
<path d="M31.62 30.5861C31.8701 30.5861 32.0729 30.3833 32.0729 30.1331C32.0729 29.8829 31.8701 29.6801 31.62 29.6801C31.3698 29.6801 31.167 29.8829 31.167 30.1331C31.167 30.3833 31.3698 30.5861 31.62 30.5861Z" fill="url(#paint17_linear)"/>
</g>
<defs>
<linearGradient id="paint0_linear" x1="22.6541" y1="3.93276" x2="22.4203" y2="10.7876" gradientUnits="userSpaceOnUse">
<stop stop-color="#FFB92D"/>
<stop offset="1" stop-color="#F59500"/>
</linearGradient>
<linearGradient id="paint1_linear" x1="23.7748" y1="8.48424" x2="23.1381" y2="13.7357" gradientUnits="userSpaceOnUse">
<stop stop-color="#FFB92D"/>
<stop offset="1" stop-color="#F59500"/>
</linearGradient>
<linearGradient id="paint2_linear" x1="21.7567" y1="8.6395" x2="21.7567" y2="12.64" gradientUnits="userSpaceOnUse">
<stop stop-color="#A7F3CE"/>
<stop offset="1" stop-color="#61DB99"/>
</linearGradient>
<linearGradient id="paint3_linear" x1="21.9994" y1="15.5645" x2="21.9994" y2="26.7903" gradientUnits="userSpaceOnUse">
<stop stop-color="#FF4C54"/>
<stop offset="1" stop-color="#BE3F45"/>
</linearGradient>
<linearGradient id="paint4_linear" x1="21.9994" y1="23.9003" x2="21.9994" y2="41.2376" gradientUnits="userSpaceOnUse">
<stop stop-color="#FF4C54"/>
<stop offset="1" stop-color="#BE3F45"/>
</linearGradient>
<linearGradient id="paint5_linear" x1="39.7435" y1="27.446" x2="36.8223" y2="27.446" gradientUnits="userSpaceOnUse">
<stop stop-color="#BE3F45" stop-opacity="0"/>
<stop offset="1" stop-color="#BE3F45"/>
</linearGradient>
<linearGradient id="paint6_linear" x1="13.6175" y1="24.4471" x2="28.4779" y2="31.3019" gradientUnits="userSpaceOnUse">
<stop stop-color="#FFB92D"/>
<stop offset="1" stop-color="#F59500"/>
</linearGradient>
<linearGradient id="paint7_linear" x1="19.1327" y1="39.7098" x2="18.5184" y2="44.4047" gradientUnits="userSpaceOnUse">
<stop stop-color="#BE3F45" stop-opacity="0"/>
<stop offset="1" stop-color="#BE3F45"/>
</linearGradient>
<linearGradient id="paint8_linear" x1="3.85556" y1="11.8824" x2="3.85556" y2="41.906" gradientUnits="userSpaceOnUse">
<stop stop-color="#FFF465"/>
<stop offset="1" stop-color="#FFE600"/>
</linearGradient>
<linearGradient id="paint9_linear" x1="21.1143" y1="11.8832" x2="21.1143" y2="41.844" gradientUnits="userSpaceOnUse">
<stop stop-color="#FFF465"/>
<stop offset="1" stop-color="#FFE600"/>
</linearGradient>
<linearGradient id="paint10_linear" x1="5.2811" y1="11.8815" x2="5.2811" y2="41.9044" gradientUnits="userSpaceOnUse">
<stop stop-color="#FFF465"/>
<stop offset="1" stop-color="#FFE600"/>
</linearGradient>
<linearGradient id="paint11_linear" x1="35.0215" y1="33.5352" x2="26.132" y2="24.6457" gradientUnits="userSpaceOnUse">
<stop stop-color="#BE3F45" stop-opacity="0"/>
<stop offset="1" stop-color="#BE3F45"/>
</linearGradient>
<linearGradient id="paint12_linear" x1="30.7876" y1="27.3097" x2="30.7876" y2="31.8968" gradientUnits="userSpaceOnUse">
<stop stop-color="#FF4C54"/>
<stop offset="1" stop-color="#BE3F45"/>
</linearGradient>
<linearGradient id="paint13_linear" x1="30.7871" y1="30.6752" x2="30.7871" y2="27.5099" gradientUnits="userSpaceOnUse">
<stop stop-color="#FF4C54"/>
<stop offset="1" stop-color="#BE3F45"/>
</linearGradient>
<linearGradient id="paint14_linear" x1="25.6629" y1="9.50906" x2="26.5688" y2="13.5095" gradientUnits="userSpaceOnUse">
<stop stop-color="#A7F3CE"/>
<stop offset="1" stop-color="#61DB99"/>
</linearGradient>
<linearGradient id="paint15_linear" x1="27.3259" y1="9.50925" x2="28.2318" y2="13.5097" gradientUnits="userSpaceOnUse">
<stop stop-color="#A7F3CE"/>
<stop offset="1" stop-color="#61DB99"/>
</linearGradient>
<linearGradient id="paint16_linear" x1="25.3044" y1="9.59016" x2="26.2103" y2="13.5906" gradientUnits="userSpaceOnUse">
<stop stop-color="#A7F3CE"/>
<stop offset="1" stop-color="#61DB99"/>
</linearGradient>
<linearGradient id="paint17_linear" x1="26.9675" y1="9.59035" x2="27.8734" y2="13.5908" gradientUnits="userSpaceOnUse">
<stop stop-color="#A7F3CE"/>
<stop offset="1" stop-color="#61DB99"/>
</linearGradient>
<clipPath id="clip0">
<rect width="44" height="44" fill="white"/>
</clipPath>
</defs>
</svg>
