<svg width="14" height="14" viewBox="0 0 14 14" fill="none" xmlns="http://www.w3.org/2000/svg">
<path d="M6.92107 0C3.1048 0 1.8602e-05 2.79426 1.8602e-05 6.22895C1.8602e-05 7.42952 0.379754 8.59249 1.1 9.59812C0.96366 11.1062 0.598228 12.2258 0.0676142 12.7562C-0.00251911 12.8263 -0.0200524 12.9336 0.0242423 13.0222C0.0634616 13.1013 0.144207 13.15 0.23072 13.15C0.241333 13.15 0.251945 13.1493 0.262788 13.1477C0.356222 13.1345 2.52666 12.8222 4.09659 11.916C4.98802 12.2756 5.93759 12.4579 6.92107 12.4579C10.7373 12.4579 13.8421 9.66364 13.8421 6.22895C13.8421 2.79426 10.7373 0 6.92107 0ZM3.69125 7.15175C3.18232 7.15175 2.76844 6.73788 2.76844 6.22895C2.76844 5.72002 3.18232 5.30614 3.69125 5.30614C4.20017 5.30614 4.61405 5.72002 4.61405 6.22895C4.61405 6.73788 4.20017 7.15175 3.69125 7.15175ZM6.92107 7.15175C6.41214 7.15175 5.99826 6.73788 5.99826 6.22895C5.99826 5.72002 6.41214 5.30614 6.92107 5.30614C7.43 5.30614 7.84388 5.72002 7.84388 6.22895C7.84388 6.73788 7.43 7.15175 6.92107 7.15175ZM10.1509 7.15175C9.64196 7.15175 9.22809 6.73788 9.22809 6.22895C9.22809 5.72002 9.64196 5.30614 10.1509 5.30614C10.6598 5.30614 11.0737 5.72002 11.0737 6.22895C11.0737 6.73788 10.6598 7.15175 10.1509 7.15175Z" fill="#5B97F3"/>
</svg>
