<svg width="16" height="16" viewBox="0 0 16 16" fill="none" xmlns="http://www.w3.org/2000/svg">
<path d="M14.3929 4.67857H5.53571C5.24208 4.67857 4.96048 4.79522 4.75285 5.00285C4.54522 5.21048 4.42857 5.49208 4.42857 5.78571V14.6429C4.42857 14.9365 4.54522 15.2181 4.75285 15.4257C4.96048 15.6334 5.24208 15.75 5.53571 15.75H14.3929C14.6865 15.75 14.9681 15.6334 15.1757 15.4257C15.3834 15.2181 15.5 14.9365 15.5 14.6429V5.78571C15.5 5.49208 15.3834 5.21048 15.1757 5.00285C14.9681 4.79522 14.6865 4.67857 14.3929 4.67857ZM5.53571 14.6429V5.78571H14.3929V14.6429H5.53571Z" fill="#3F4856"/>
<path d="M2.76786 10.2143H1.10714V1.35714H9.96429V3.01786C9.96429 3.16467 10.0226 3.30548 10.1264 3.40929C10.2302 3.51311 10.371 3.57143 10.5179 3.57143C10.6647 3.57143 10.8055 3.51311 10.9093 3.40929C11.0131 3.30548 11.0714 3.16467 11.0714 3.01786V1.35714C11.0714 1.06351 10.9548 0.781904 10.7472 0.574275C10.5395 0.366645 10.2579 0.25 9.96429 0.25H1.10714C0.81351 0.25 0.531904 0.366645 0.324275 0.574275C0.116645 0.781904 0 1.06351 0 1.35714V10.2143C0 10.5079 0.116645 10.7895 0.324275 10.9972C0.531904 11.2048 0.81351 11.3214 1.10714 11.3214H2.76786C2.91467 11.3214 3.05548 11.2631 3.15929 11.1593C3.26311 11.0555 3.32143 10.9147 3.32143 10.7679C3.32143 10.621 3.26311 10.4802 3.15929 10.3764C3.05548 10.2726 2.91467 10.2143 2.76786 10.2143Z" fill="#3F4856"/>
</svg>
