<svg width="28" height="26" viewBox="0 0 28 26" fill="none" xmlns="http://www.w3.org/2000/svg">
<path d="M11.3907 1.59901C12.5402 -0.427116 15.4597 -0.427118 16.6093 1.59901L18.7433 5.36038C19.1707 6.11357 19.9026 6.64536 20.751 6.81903L24.9877 7.6863C27.2699 8.15347 28.1721 10.9301 26.6004 12.6495L23.6825 15.8414C23.0983 16.4806 22.8187 17.341 22.9157 18.2015L23.4001 22.4989C23.661 24.8138 21.2991 26.5298 19.1782 25.5663L15.2408 23.7777C14.4524 23.4195 13.5476 23.4195 12.7592 23.7777L8.82184 25.5663C6.70092 26.5298 4.33899 24.8138 4.59992 22.4989L5.08432 18.2015C5.18131 17.341 4.90173 16.4806 4.31746 15.8414L1.39964 12.6495C-0.172091 10.9301 0.730083 8.15347 3.01227 7.6863L7.249 6.81903C8.09738 6.64536 8.82933 6.11357 9.25666 5.36038L11.3907 1.59901Z" fill="#EFEFEF"/>
</svg>
