<svg width="26" height="26" viewBox="0 0 26 26" fill="none" xmlns="http://www.w3.org/2000/svg">
<g clip-path="url(#clip0)">
<path d="M22.1907 3.82438C27.2626 8.90023 27.2593 17.1265 22.1835 22.1983C17.1076 27.2701 8.88137 27.2669 3.80956 22.191C-1.25944 17.1181 -1.25944 8.8974 3.80956 3.82438C8.85248 -1.25146 17.0553 -1.27809 22.1312 3.76483C22.1511 3.78461 22.171 3.80446 22.1907 3.82438Z" fill="#D7443E"/>
<path d="M19.4595 8.80726L15.2518 13.0151L19.4595 17.2228L17.208 19.4743L13.0003 15.2665L8.79257 19.4743L6.54102 17.2228L10.7488 13.0151L6.54102 8.80726L8.79257 6.55579L13.0003 10.7635L17.208 6.55579L19.4595 8.80726Z" fill="#FDE5E4"/>
</g>
<defs>
<clipPath id="clip0">
<rect width="26" height="26" fill="white"/>
</clipPath>
</defs>
</svg>
