<svg width="20" height="20" viewBox="0 0 20 20" fill="none" xmlns="http://www.w3.org/2000/svg">
<path d="M19.7596 18.5484L15.2208 14.0097C18.22 10.3416 17.6777 4.93687 14.0097 1.93773C10.3417 -1.06142 4.93688 -0.519141 1.93773 3.14885C-1.06142 6.81684 -0.519142 12.2217 3.14885 15.2208C6.30829 17.8041 10.8503 17.8041 14.0097 15.2208L18.5485 19.7596C18.8887 20.0882 19.431 20.0788 19.7596 19.7385C20.0801 19.4066 20.0801 18.8803 19.7596 18.5484ZM8.59297 15.4452C4.81035 15.4409 1.74496 12.3756 1.74074 8.59297C1.74074 4.80859 4.8086 1.74074 8.59297 1.74074C12.3774 1.74074 15.4452 4.80859 15.4452 8.59297C15.4452 12.3773 12.3774 15.4452 8.59297 15.4452Z" fill="black" fill-opacity="0.15"/>
</svg>
