<svg width="14" height="10" viewBox="0 0 14 10" fill="none" xmlns="http://www.w3.org/2000/svg">
<path d="M11.5339 1.85105L7.00027 5.84608L2.46565 1.85099C2.28509 1.69192 2.00986 1.7094 1.85085 1.88984C1.69189 2.07034 1.7092 2.34557 1.88976 2.50464L6.71238 6.75347C6.79468 6.82595 6.89753 6.86219 7.00033 6.86219C7.10312 6.86219 7.20603 6.82595 7.28833 6.75341L12.11 2.50458C12.2904 2.34557 12.3078 2.07029 12.1488 1.88978C11.9896 1.70946 11.7145 1.69203 11.5339 1.85105Z" fill="#3B3F44"/>
<path d="M12.6933 0H1.30672C0.586225 0 0 0.586167 0 1.30672V8.21795C0 8.93851 0.586225 9.52468 1.30672 9.52468H12.6933C13.4138 9.52468 14 8.93851 14 8.21795V1.30672C14 0.586225 13.4138 0 12.6933 0ZM13.1289 8.21795C13.1289 8.4581 12.9335 8.65353 12.6933 8.65353H1.30672C1.06652 8.65353 0.871149 8.4581 0.871149 8.21795V1.30672C0.871149 1.06658 1.06652 0.871149 1.30672 0.871149H12.6933C12.9335 0.871149 13.1289 1.06658 13.1289 1.30672V8.21795Z" fill="#3B3F44"/>
</svg>
