<svg width="16" height="21" viewBox="0 0 16 21" fill="none" xmlns="http://www.w3.org/2000/svg">
<path d="M8 9C8.94935 9 9.87738 8.73608 10.6667 8.24161C11.4561 7.74715 12.0713 7.04434 12.4346 6.22208C12.7979 5.39981 12.893 4.49501 12.7078 3.6221C12.5226 2.74918 12.0654 1.94736 11.3941 1.31802C10.7228 0.688685 9.86754 0.260102 8.93643 0.0864683C8.00532 -0.0871652 7.0402 0.00194979 6.16312 0.342544C5.28603 0.683138 4.53638 1.25991 4.00895 1.99994C3.48152 2.73996 3.2 3.60999 3.2 4.5C3.2 5.69348 3.70571 6.83807 4.60589 7.68198C5.50606 8.5259 6.72696 9 8 9ZM8 1.5C8.6329 1.5 9.25159 1.67595 9.77782 2.00559C10.3041 2.33524 10.7142 2.80377 10.9564 3.35195C11.1986 3.90013 11.262 4.50333 11.1385 5.08527C11.015 5.66722 10.7103 6.20176 10.2627 6.62132C9.81521 7.04088 9.24503 7.3266 8.62429 7.44236C8.00355 7.55811 7.36014 7.4987 6.77541 7.27164C6.19069 7.04458 5.69092 6.66006 5.3393 6.16671C4.98768 5.67336 4.8 5.09335 4.8 4.5C4.8 3.70435 5.13714 2.94129 5.73726 2.37868C6.33737 1.81607 7.15131 1.5 8 1.5ZM8 10.5C5.87827 10.5 3.84344 11.2902 2.34315 12.6967C0.842855 14.1032 0 16.0109 0 18V20.25C0 20.4489 0.0842856 20.6397 0.234315 20.7803C0.384344 20.921 0.587827 21 0.8 21C1.01217 21 1.21566 20.921 1.36569 20.7803C1.51571 20.6397 1.6 20.4489 1.6 20.25V18C1.6 16.4087 2.27428 14.8826 3.47452 13.7574C4.67475 12.6321 6.30261 12 8 12C9.69739 12 11.3253 12.6321 12.5255 13.7574C13.7257 14.8826 14.4 16.4087 14.4 18V20.25C14.4 20.4489 14.4843 20.6397 14.6343 20.7803C14.7843 20.921 14.9878 21 15.2 21C15.4122 21 15.6157 20.921 15.7657 20.7803C15.9157 20.6397 16 20.4489 16 20.25V18C16 16.0109 15.1571 14.1032 13.6569 12.6967C12.1566 11.2902 10.1217 10.5 8 10.5Z" fill="white"/>
</svg>
