<svg width="21" height="31" viewBox="0 0 21 31" fill="none" xmlns="http://www.w3.org/2000/svg">
<path d="M10.5001 31C9.83343 31 9.23647 30.6491 8.90328 30.0612C8.89976 30.055 8.89636 30.0488 8.89296 30.0426L1.31992 15.9723C-0.487778 12.6137 -0.435944 8.62729 1.4586 5.30859C3.31205 2.06183 6.60414 0.0782568 10.265 0.00245215C10.4214 -0.000817382 10.5786 -0.000817382 10.7349 0.00245215C14.3958 0.0782568 17.6879 2.06183 19.5414 5.30859C21.4359 8.62729 21.4878 12.6137 19.6801 15.9723L12.107 30.0426C12.1036 30.0488 12.1002 30.055 12.0967 30.0612C11.7636 30.649 11.1667 31 10.5001 31ZM10.5 1.93753C10.4344 1.93753 10.3691 1.93819 10.3038 1.93953C7.31551 2.00141 4.62621 3.624 3.11002 6.28001C1.55278 9.00794 1.50972 12.284 2.9949 15.0433L10.5 28.9872L18.005 15.0434C19.4902 12.2839 19.4472 9.00794 17.8899 6.28001C16.3737 3.62406 13.6844 2.00141 10.6961 1.93953C10.631 1.93819 10.5656 1.93753 10.5 1.93753Z" fill="#FFA401"/>
<path d="M10.5 14.0469C8.13191 14.0469 6.20534 12.0913 6.20534 9.68752C6.20534 7.28375 8.13191 5.32815 10.5 5.32815C12.8681 5.32815 14.7947 7.28375 14.7947 9.68752C14.7947 12.0913 12.8681 14.0469 10.5 14.0469ZM10.5 7.26565C9.1844 7.26565 8.11408 8.3521 8.11408 9.68752C8.11408 11.0229 9.1844 12.1094 10.5 12.1094C11.8156 12.1094 12.8859 11.0229 12.8859 9.68752C12.8859 8.3521 11.8156 7.26565 10.5 7.26565Z" fill="#FFA401"/>
</svg>
