<svg width="20" height="11" viewBox="0 0 20 11" fill="none" xmlns="http://www.w3.org/2000/svg">
<path d="M19.1116 8.91015C18.518 8.21601 17.8194 7.6236 17.1584 6.99453C16.5621 6.4275 16.5245 6.09856 17.0039 5.44411C17.527 4.72983 18.0897 4.04294 18.6176 3.33189C19.1104 2.66736 19.6141 2.00465 19.8734 1.209C20.0379 0.702797 19.8924 0.479207 19.36 0.390577C19.2682 0.375067 19.1734 0.374261 19.08 0.374261L15.921 0.370635C15.5319 0.364995 15.3168 0.530371 15.1792 0.866561C14.9935 1.32099 14.802 1.77502 14.5807 2.21354C14.0786 3.20781 13.5178 4.16884 12.7316 4.98263C12.5583 5.1621 12.3665 5.38891 12.0769 5.29545C11.7144 5.16653 11.6076 4.58439 11.6136 4.3876L11.6105 0.832922C11.5403 0.325112 11.4248 0.0987018 10.9076 0L7.62608 0.000604349C7.18805 0.000604349 6.96841 0.165577 6.73452 0.432676C6.59959 0.586973 6.55889 0.687085 6.83617 0.738249C7.38082 0.838965 7.68765 1.18261 7.76906 1.71499C7.89964 2.56564 7.89055 3.41971 7.81534 4.27379C7.79323 4.52316 7.74922 4.77193 7.64777 5.00478C7.48909 5.37079 7.23288 5.44532 6.8963 5.22011C6.59154 5.01626 6.37748 4.72862 6.16797 4.43977C5.38096 3.35566 4.75304 2.18655 4.24104 0.958011C4.0931 0.603088 3.83793 0.387958 3.45217 0.382117C2.50441 0.367412 1.55644 0.364995 0.608679 0.382922C0.0384111 0.393397 -0.131636 0.663316 0.100603 1.1673C1.13287 3.40581 2.28188 5.58209 3.78173 7.56458C4.5518 8.58202 5.43592 9.4802 6.57811 10.1167C7.87257 10.8383 9.26601 11.0554 10.7336 10.9885C11.4208 10.9571 11.6273 10.7829 11.6591 10.1151C11.6806 9.65827 11.7337 9.20404 11.9649 8.79352C12.1917 8.39066 12.5353 8.31391 12.9314 8.56449C13.1296 8.68999 13.2965 8.84972 13.4542 9.01812C13.841 9.43065 14.2139 9.85567 14.6154 10.2543C15.1189 10.7539 15.7154 11.049 16.4654 10.9887L19.3689 10.9893C19.8366 10.9595 20.0792 10.4003 19.8106 9.89133C19.622 9.53479 19.3744 9.21733 19.1116 8.91015Z" fill="white"/>
</svg>
