<svg width="21" height="16" viewBox="0 0 21 16" fill="none" xmlns="http://www.w3.org/2000/svg">
<path d="M20.3775 1.80109C19.6546 2.10654 18.8843 2.309 18.0812 2.40731C18.9074 1.93217 19.5379 1.18551 19.8344 0.285553C19.0641 0.727927 18.2136 1.0404 17.3072 1.21477C16.5758 0.46461 15.5333 0 14.3961 0C12.1896 0 10.4133 1.72502 10.4133 3.83976C10.4133 4.14404 10.44 4.43661 10.5056 4.71514C7.19232 4.55949 4.26053 3.02991 2.29101 0.69984C1.94717 1.27446 1.74548 1.93217 1.74548 2.6402C1.74548 3.96966 2.45625 5.14815 3.51573 5.83044C2.87542 5.81874 2.24727 5.63968 1.7151 5.35764C1.7151 5.36934 1.7151 5.38455 1.7151 5.39977C1.7151 7.26523 3.09655 8.81471 4.90812 9.17165C4.58371 9.25708 4.23015 9.29804 3.86322 9.29804C3.60807 9.29804 3.35049 9.284 3.10871 9.2325C3.62508 10.7527 5.09037 11.8704 6.83268 11.9066C5.47674 12.9283 3.75509 13.5439 1.89128 13.5439C1.56444 13.5439 1.25097 13.5299 0.9375 13.4912C2.7029 14.5878 4.79513 15.2139 7.05138 15.2139C14.3851 15.2139 18.3946 9.36241 18.3946 4.29032C18.3946 4.12063 18.3885 3.95679 18.38 3.79412C19.171 3.25344 19.8356 2.57817 20.3775 1.80109Z" fill="white"/>
</svg>
