<svg width="44" height="44" viewBox="0 0 44 44" fill="none" xmlns="http://www.w3.org/2000/svg">
<g clip-path="url(#clip0)">
<path d="M38.9704 3.69476H5.02867C4.07545 3.69476 3.30176 4.46846 3.30176 5.42168V41.0534C3.30176 42.0066 4.07545 42.7803 5.02867 42.7803H38.9704C39.9236 42.7803 40.6973 42.0066 40.6973 41.0534V5.42168C40.6973 4.46846 39.9238 3.69476 38.9704 3.69476Z" fill="url(#paint0_linear)"/>
<path d="M38.9707 42.7803H5.02965C4.07591 42.7803 3.30273 42.0072 3.30273 41.0534V22.3453H40.6976V41.0534C40.6976 42.0072 39.9244 42.7803 38.9707 42.7803Z" fill="url(#paint1_linear)"/>
<path d="M38.9707 42.7803H5.02965C4.07591 42.7803 3.30273 42.0072 3.30273 41.0534V37.4269H40.6976V41.0534C40.6976 42.0072 39.9244 42.7803 38.9707 42.7803Z" fill="url(#paint2_linear)"/>
<path d="M42.2722 38.5783H1.72761C0.618333 38.5783 -0.20323 37.5474 0.0442703 36.4662L3.30251 22.2303H40.6974L43.9556 36.4662C44.2031 37.5474 43.3814 38.5783 42.2722 38.5783Z" fill="url(#paint3_linear)"/>
<path d="M42.2722 38.5783H1.72761C0.618333 38.5783 -0.20323 37.5474 0.0442703 36.4662L3.30251 22.2303H40.6974L43.9556 36.4662C44.2031 37.5474 43.3814 38.5783 42.2722 38.5783Z" fill="url(#paint4_linear)"/>
<path d="M42.2724 38.5783C43.3817 38.5783 44.2032 37.5474 43.9557 36.4662L40.6975 22.2303H3.30273L19.6507 38.5783H42.2724Z" fill="url(#paint5_linear)"/>
<path d="M40.6976 38.5783H3.30273V38.6359L7.44724 42.7804H38.9707C39.9244 42.7804 40.6976 42.0073 40.6976 41.0535V38.5783Z" fill="url(#paint6_linear)"/>
<path d="M13.0742 25.6558V18.3699C13.0742 16.4507 13.5831 15.0399 14.6015 14.1386C15.6194 13.2372 16.9801 12.7866 18.6825 12.7866C20.385 12.7866 21.7496 13.2373 22.7761 14.1386C23.8027 15.04 24.3159 16.4506 24.3159 18.3699V25.6558C24.3159 27.5754 23.8027 28.9858 22.7761 29.8871C21.7495 30.7885 20.3851 31.239 18.6825 31.239C16.98 31.239 15.6193 30.7884 14.6015 29.8871C13.5832 28.9857 13.0742 27.5754 13.0742 25.6558ZM15.7282 25.6558C15.7282 27.809 16.7129 28.8856 18.6827 28.8856C19.6341 28.8856 20.3684 28.6188 20.8859 28.0844C21.4031 27.5504 21.662 26.741 21.662 25.6558V18.3699C21.662 17.2851 21.4031 16.4756 20.8859 15.9413C20.3684 15.4074 19.6341 15.14 18.6827 15.14C16.7129 15.14 15.7282 16.2166 15.7282 18.3699V25.6558Z" fill="white"/>
<path d="M25.9434 16.5669C25.9434 16.133 26.1185 15.7908 26.4691 15.5403L29.073 13.0366C29.2564 12.8531 29.4818 12.7612 29.749 12.7612C30.0495 12.7612 30.3206 12.8407 30.5628 12.999C30.8046 13.1578 30.9258 13.3706 30.9258 13.6375V30.2121C30.9258 30.4793 30.792 30.6922 30.5252 30.8506C30.258 31.0093 29.9493 31.0884 29.5988 31.0884C29.2314 31.0884 28.9184 31.0095 28.6599 30.8506C28.401 30.6921 28.2718 30.4793 28.2718 30.2121V16.2914L27.3955 17.393C27.2286 17.56 27.045 17.6434 26.8447 17.6434C26.5943 17.6434 26.3815 17.5307 26.2062 17.3054C26.0309 17.0801 25.9434 16.8341 25.9434 16.5669Z" fill="white"/>
<path d="M21.6615 22.2302V25.6553C21.6615 26.7409 21.4036 27.5503 20.8856 28.0845C20.3687 28.6187 19.6342 28.8857 18.6832 28.8857C16.7133 28.8857 15.7279 27.8081 15.7279 25.6554V22.2303H13.0742V25.6554C13.0742 27.5757 13.5831 28.9859 14.6019 29.8862C15.6196 30.7877 16.9805 31.239 18.6832 31.239C20.3848 31.239 21.7502 30.7877 22.776 29.8862C23.8029 28.9859 24.3163 27.5756 24.3163 25.6554V22.2303L21.6615 22.2302Z" fill="url(#paint7_linear)"/>
<path d="M28.2725 22.2302V30.212C28.2725 30.4791 28.4015 30.6921 28.6604 30.851C28.9183 31.0099 29.2314 31.0881 29.5986 31.0881C29.9498 31.0881 30.2584 31.0098 30.5254 30.851C30.7925 30.6921 30.926 30.4791 30.926 30.212V22.2302H28.2725Z" fill="url(#paint8_linear)"/>
<path d="M43.9561 36.4657L40.698 22.2302V5.42168C40.698 4.46846 39.9243 3.69476 38.971 3.69476H38.1543C39.1075 3.69476 39.8812 4.46846 39.8812 5.42168V22.2302L43.1394 36.4657C43.3869 37.5479 42.5649 38.5782 41.4562 38.5782H42.2729C43.3816 38.5783 44.2036 37.5478 43.9561 36.4657Z" fill="url(#paint9_linear)"/>
<path d="M14.6833 6.77098C14.3689 6.4763 14.1709 6.0595 14.1709 5.59433V3.69476H17.3944L20.027 6.32737C20.8661 7.16647 21.3376 8.30462 21.3376 9.49133C21.3376 10.3607 20.6687 11.1083 19.8002 11.1476C19.3052 11.1699 18.8596 10.9679 18.5492 10.6371L14.6833 6.77098Z" fill="url(#paint10_linear)"/>
<path d="M15.7827 7.20618C14.8925 7.20618 14.1709 6.48457 14.1709 5.59443V2.83136C14.1709 1.94122 14.8925 1.2196 15.7827 1.2196C16.6728 1.2196 17.3944 1.94122 17.3944 2.83136V5.59434C17.3944 6.48457 16.6728 7.20618 15.7827 7.20618Z" fill="url(#paint11_linear)"/>
<path d="M15.7832 1.2196V7.20618C16.6733 7.20618 17.395 6.48457 17.395 5.59443V2.83136C17.395 1.94122 16.6733 1.2196 15.7832 1.2196Z" fill="url(#paint12_linear)"/>
<path d="M26.3971 6.77098C26.0828 6.4763 25.8848 6.0595 25.8848 5.59433V3.69476H29.1083L31.7409 6.32737C32.58 7.16647 33.0514 8.30462 33.0514 9.49133C33.0514 10.3607 32.3826 11.1083 31.5141 11.1476C31.0191 11.1699 30.5734 10.9679 30.2631 10.6371L26.3971 6.77098Z" fill="url(#paint13_linear)"/>
<path d="M27.4975 7.20618C26.6074 7.20618 25.8857 6.48457 25.8857 5.59443V2.83136C25.8857 1.94122 26.6074 1.2196 27.4975 1.2196C28.3876 1.2196 29.1093 1.94122 29.1093 2.83136V5.59434C29.1093 6.48457 28.3876 7.20618 27.4975 7.20618Z" fill="url(#paint14_linear)"/>
<path d="M27.4971 1.2196V7.20618C28.3872 7.20618 29.1088 6.48457 29.1088 5.59443V2.83136C29.1088 1.94122 28.3871 1.2196 27.4971 1.2196Z" fill="url(#paint15_linear)"/>
</g>
<defs>
<linearGradient id="paint0_linear" x1="15.4931" y1="8.77659" x2="25.4566" y2="30.9175" gradientUnits="userSpaceOnUse">
<stop stop-color="#00A6F9"/>
<stop offset="1" stop-color="#0071E2"/>
</linearGradient>
<linearGradient id="paint1_linear" x1="9.22134" y1="18.2232" x2="34.8971" y2="45.9771" gradientUnits="userSpaceOnUse">
<stop stop-color="#C2CECE"/>
<stop offset="1" stop-color="#97AAAA"/>
</linearGradient>
<linearGradient id="paint2_linear" x1="22.0008" y1="42.2929" x2="22.0008" y2="38.463" gradientUnits="userSpaceOnUse">
<stop stop-color="#C2CECE" stop-opacity="0"/>
<stop offset="0.179" stop-color="#AFBCBC" stop-opacity="0.179"/>
<stop offset="1" stop-color="#5B6A6A"/>
</linearGradient>
<linearGradient id="paint3_linear" x1="5.93908" y1="23.6084" x2="47.1354" y2="42.1632" gradientUnits="userSpaceOnUse">
<stop stop-color="#00A6F9"/>
<stop offset="1" stop-color="#0071E2"/>
</linearGradient>
<linearGradient id="paint4_linear" x1="22.0006" y1="37.0046" x2="22.0006" y2="39.3073" gradientUnits="userSpaceOnUse">
<stop offset="0.0001" stop-color="#008BF2" stop-opacity="0"/>
<stop offset="1" stop-color="#0046E2"/>
</linearGradient>
<linearGradient id="paint5_linear" x1="29.811" y1="30.0397" x2="3.71169" y2="3.94046" gradientUnits="userSpaceOnUse">
<stop offset="0.0001" stop-color="#008BF2" stop-opacity="0"/>
<stop offset="1" stop-color="#0046E2"/>
</linearGradient>
<linearGradient id="paint6_linear" x1="19.2553" y1="35.208" x2="14.9789" y2="29.914" gradientUnits="userSpaceOnUse">
<stop stop-color="#C2CECE" stop-opacity="0"/>
<stop offset="0.179" stop-color="#AFBCBC" stop-opacity="0.179"/>
<stop offset="1" stop-color="#5B6A6A"/>
</linearGradient>
<linearGradient id="paint7_linear" x1="18.6958" y1="25.1682" x2="18.6958" y2="12.0292" gradientUnits="userSpaceOnUse">
<stop stop-color="#C2CECE" stop-opacity="0"/>
<stop offset="0.179" stop-color="#AFBCBC" stop-opacity="0.179"/>
<stop offset="1" stop-color="#5B6A6A"/>
</linearGradient>
<linearGradient id="paint8_linear" x1="29.6002" y1="25.1682" x2="29.6002" y2="12.0292" gradientUnits="userSpaceOnUse">
<stop stop-color="#C2CECE" stop-opacity="0"/>
<stop offset="0.179" stop-color="#AFBCBC" stop-opacity="0.179"/>
<stop offset="1" stop-color="#5B6A6A"/>
</linearGradient>
<linearGradient id="paint9_linear" x1="40.7386" y1="21.0282" x2="31.9292" y2="23.3309" gradientUnits="userSpaceOnUse">
<stop offset="0.0001" stop-color="#008BF2" stop-opacity="0"/>
<stop offset="1" stop-color="#0046E2"/>
</linearGradient>
<linearGradient id="paint10_linear" x1="19.0743" y1="8.26699" x2="15.6614" y2="4.85423" gradientUnits="userSpaceOnUse">
<stop offset="0.0001" stop-color="#008BF2" stop-opacity="0"/>
<stop offset="1" stop-color="#0046E2"/>
</linearGradient>
<linearGradient id="paint11_linear" x1="15.7831" y1="1.30091" x2="15.7831" y2="19.778" gradientUnits="userSpaceOnUse">
<stop stop-color="#FFC200"/>
<stop offset="0.268" stop-color="#FFBB00"/>
<stop offset="0.659" stop-color="#FFA801"/>
<stop offset="1" stop-color="#FF9102"/>
</linearGradient>
<linearGradient id="paint12_linear" x1="16.0422" y1="4.21151" x2="17.4961" y2="4.21151" gradientUnits="userSpaceOnUse">
<stop stop-color="#FFC200" stop-opacity="0"/>
<stop offset="0.203" stop-color="#FFBB00" stop-opacity="0.203"/>
<stop offset="0.499" stop-color="#FFA700" stop-opacity="0.499"/>
<stop offset="0.852" stop-color="#FF8800" stop-opacity="0.852"/>
<stop offset="1" stop-color="#FF7800"/>
</linearGradient>
<linearGradient id="paint13_linear" x1="30.7885" y1="8.26699" x2="27.3757" y2="4.85423" gradientUnits="userSpaceOnUse">
<stop offset="0.0001" stop-color="#008BF2" stop-opacity="0"/>
<stop offset="1" stop-color="#0046E2"/>
</linearGradient>
<linearGradient id="paint14_linear" x1="27.4983" y1="1.30091" x2="27.4983" y2="19.778" gradientUnits="userSpaceOnUse">
<stop stop-color="#FFC200"/>
<stop offset="0.268" stop-color="#FFBB00"/>
<stop offset="0.659" stop-color="#FFA801"/>
<stop offset="1" stop-color="#FF9102"/>
</linearGradient>
<linearGradient id="paint15_linear" x1="27.7573" y1="4.21151" x2="29.2103" y2="4.21151" gradientUnits="userSpaceOnUse">
<stop stop-color="#FFC200" stop-opacity="0"/>
<stop offset="0.203" stop-color="#FFBB00" stop-opacity="0.203"/>
<stop offset="0.499" stop-color="#FFA700" stop-opacity="0.499"/>
<stop offset="0.852" stop-color="#FF8800" stop-opacity="0.852"/>
<stop offset="1" stop-color="#FF7800"/>
</linearGradient>
<clipPath id="clip0">
<rect width="44" height="44" fill="white"/>
</clipPath>
</defs>
</svg>
