<svg width="14" height="14" viewBox="0 0 14 14" fill="none" xmlns="http://www.w3.org/2000/svg">
<path d="M11.9711 1.83398C10.7884 0.65124 9.21581 -6.6151e-05 7.54325 5.03928e-09C7.26916 5.03928e-09 7.04708 0.222152 7.04708 0.49617C7.04708 0.770188 7.26923 0.99234 7.54325 0.99234C8.95078 0.992274 10.2741 1.54038 11.2694 2.53569C12.2648 3.53101 12.8129 4.8544 12.8128 6.262C12.8128 6.53602 13.0349 6.75817 13.309 6.75817C13.583 6.75817 13.8052 6.53602 13.8052 6.26206C13.8052 4.58931 13.1539 3.01671 11.9711 1.83398Z" fill="#3B3F44"/>
<path d="M9.93009 6.26206C9.93009 6.53607 10.1522 6.75823 10.4263 6.75816C10.7003 6.75816 10.9224 6.53601 10.9224 6.26199C10.9223 4.39904 9.4064 2.88321 7.54331 2.88294C7.54338 2.88294 7.54325 2.88294 7.54331 2.88294C7.2693 2.88294 7.04714 3.10503 7.04708 3.37905C7.04708 3.65306 7.26916 3.87522 7.54318 3.87528C8.85922 3.87548 9.92996 4.94615 9.93009 6.26206Z" fill="#3B3F44"/>
<path d="M8.83205 8.79185C8.07575 8.75268 7.69046 9.31514 7.50568 9.58532C7.35094 9.81151 7.4089 10.1203 7.63508 10.275C7.86127 10.4297 8.17002 10.3718 8.32476 10.1456C8.54308 9.8264 8.64198 9.77618 8.77614 9.78253C9.20556 9.83301 10.8968 11.0724 11.0662 11.4599C11.1087 11.574 11.1071 11.6859 11.0615 11.822C10.8839 12.349 10.59 12.7193 10.2113 12.8929C9.85157 13.0578 9.41051 13.0429 8.93611 12.8499C7.16465 12.1278 5.617 11.1202 4.33622 9.85491C4.33569 9.85438 4.33516 9.85392 4.33469 9.85339C3.07204 8.57387 2.06627 7.0282 1.34543 5.25945C1.15233 4.78465 1.13737 4.34353 1.3023 3.98384C1.47589 3.60516 1.84624 3.31123 2.37277 3.13386C2.50932 3.08808 2.62099 3.08663 2.73405 3.1287C3.12298 3.29866 4.36228 4.98987 4.41229 5.41446C4.41944 5.55365 4.36883 5.65249 4.04989 5.8704C3.82364 6.02494 3.76549 6.33369 3.92009 6.55995C4.07463 6.7862 4.38332 6.84429 4.60964 6.68974C4.87995 6.50517 5.44228 6.12094 5.40325 5.36206C5.36024 4.56938 3.81828 2.47019 3.0815 2.19928C2.75383 2.07716 2.40916 2.07504 2.05668 2.19333C1.2636 2.4604 0.690821 2.93659 0.400264 3.57036C0.118439 4.18521 0.12737 4.89857 0.426395 5.6337C1.19784 7.52655 2.27718 9.18277 3.63437 10.5565C3.63767 10.5599 3.64105 10.5632 3.64449 10.5664C5.01723 11.9211 6.67152 12.9984 8.56186 13.769C8.94041 13.9229 9.3132 14 9.66971 14C10.0054 14 10.3268 13.9317 10.6249 13.795C11.2587 13.5045 11.7348 12.9318 12.0021 12.1382C12.1201 11.7864 12.1182 11.4419 11.997 11.1157C11.7252 10.3769 9.62598 8.83498 8.83205 8.79185Z" fill="#3B3F44"/>
</svg>
