<svg width="22" height="31" viewBox="0 0 22 31" fill="none" xmlns="http://www.w3.org/2000/svg">
<path d="M0.956522 27.6094C0.428223 27.6094 0 27.1756 0 26.6406V3.99609C0 1.79261 1.76998 0 3.94565 0H21.0435C21.5718 0 22 0.433758 22 0.96875V23.25C22 23.785 21.5718 24.2188 21.0435 24.2188C20.5152 24.2188 20.087 23.785 20.087 23.25V1.9375H3.94565C2.82485 1.9375 1.91304 2.86096 1.91304 3.99609V26.6406C1.91304 27.1756 1.48482 27.6094 0.956522 27.6094Z" fill="#476EE5"/>
<path d="M21.0435 31H4.30435C1.93092 31 0 29.0444 0 26.6406C0 24.2369 1.93092 22.2812 4.30435 22.2812H21.0435C21.5718 22.2812 22 22.715 22 23.25C22 23.785 21.5718 24.2188 21.0435 24.2188H4.30435C2.98578 24.2188 1.91304 25.3052 1.91304 26.6406C1.91304 27.976 2.98578 29.0625 4.30435 29.0625H21.0435C21.5718 29.0625 22 29.4963 22 30.0312C22 30.5662 21.5718 31 21.0435 31Z" fill="#476EE5"/>
<path d="M21.0435 27.6094H4.30435C3.77605 27.6094 3.34783 27.1756 3.34783 26.6406C3.34783 26.1056 3.77605 25.6719 4.30435 25.6719H21.0435C21.5718 25.6719 22 26.1056 22 26.6406C22 27.1756 21.5718 27.6094 21.0435 27.6094Z" fill="#476EE5"/>
<path d="M5.26087 24.2188C4.73257 24.2188 4.30435 23.785 4.30435 23.25V0.96875C4.30435 0.433758 4.73257 0 5.26087 0C5.78917 0 6.21739 0.433758 6.21739 0.96875V23.25C6.21739 23.785 5.78917 24.2188 5.26087 24.2188Z" fill="#476EE5"/>
</svg>
