<svg width="274" height="411" viewBox="0 0 274 411" fill="none" xmlns="http://www.w3.org/2000/svg">
<mask id="mask0" mask-type="alpha" maskUnits="userSpaceOnUse" x="0" y="0" width="411" height="411">
<circle cx="205.375" cy="205.375" r="145.222" transform="rotate(45 205.375 205.375)" fill="#3B42CE"/>
</mask>
<g mask="url(#mask0)">
<rect x="238.962" y="-33.5869" width="2.33602" height="383.885" transform="rotate(45 238.962 -33.5869)" fill="white" fill-opacity="0.12"/>
<rect x="332.015" y="59.4653" width="2.33602" height="383.885" transform="rotate(45 332.015 59.4653)" fill="white" fill-opacity="0.12"/>
<rect x="446.54" y="173.991" width="2.33602" height="383.885" transform="rotate(45 446.54 173.991)" fill="white" fill-opacity="0.12"/>
<rect x="246.12" y="-26.429" width="2.33602" height="383.885" transform="rotate(45 246.12 -26.429)" fill="white" fill-opacity="0.12"/>
<rect x="339.172" y="66.623" width="2.33602" height="383.885" transform="rotate(45 339.172 66.623)" fill="white" fill-opacity="0.12"/>
<rect x="453.697" y="181.149" width="2.33602" height="383.885" transform="rotate(45 453.697 181.149)" fill="white" fill-opacity="0.12"/>
<rect x="253.277" y="-19.2712" width="2.33602" height="383.885" transform="rotate(45 253.277 -19.2712)" fill="white" fill-opacity="0.12"/>
<rect x="346.33" y="73.781" width="2.33602" height="383.885" transform="rotate(45 346.33 73.781)" fill="white" fill-opacity="0.12"/>
<rect x="460.855" y="188.307" width="2.33602" height="383.885" transform="rotate(45 460.855 188.307)" fill="white" fill-opacity="0.12"/>
<rect x="260.436" y="-12.1133" width="2.33602" height="383.885" transform="rotate(45 260.436 -12.1133)" fill="white" fill-opacity="0.12"/>
<rect x="353.487" y="80.9387" width="2.33602" height="383.885" transform="rotate(45 353.487 80.9387)" fill="white" fill-opacity="0.12"/>
<rect x="468.014" y="195.464" width="2.33602" height="383.885" transform="rotate(45 468.014 195.464)" fill="white" fill-opacity="0.12"/>
<rect x="267.593" y="-4.95532" width="2.33602" height="383.885" transform="rotate(45 267.593 -4.95532)" fill="white" fill-opacity="0.12"/>
<rect x="360.646" y="88.0967" width="2.33602" height="383.885" transform="rotate(45 360.646 88.0967)" fill="white" fill-opacity="0.12"/>
<rect x="475.171" y="202.622" width="2.33602" height="383.885" transform="rotate(45 475.171 202.622)" fill="white" fill-opacity="0.12"/>
<rect x="274.751" y="2.20239" width="2.33602" height="383.885" transform="rotate(45 274.751 2.20239)" fill="white" fill-opacity="0.12"/>
<rect x="367.804" y="95.2545" width="2.33602" height="383.885" transform="rotate(45 367.804 95.2545)" fill="white" fill-opacity="0.12"/>
<rect x="482.329" y="209.78" width="2.33602" height="383.885" transform="rotate(45 482.329 209.78)" fill="white" fill-opacity="0.12"/>
<rect x="281.909" y="9.36035" width="2.33602" height="383.885" transform="rotate(45 281.909 9.36035)" fill="white" fill-opacity="0.12"/>
<rect x="374.961" y="102.412" width="2.33602" height="383.885" transform="rotate(45 374.961 102.412)" fill="white" fill-opacity="0.12"/>
<rect x="489.487" y="216.938" width="2.33602" height="383.885" transform="rotate(45 489.487 216.938)" fill="white" fill-opacity="0.12"/>
<rect x="289.067" y="16.5181" width="2.33602" height="383.885" transform="rotate(45 289.067 16.5181)" fill="white" fill-opacity="0.12"/>
<rect x="382.119" y="109.57" width="2.33602" height="383.885" transform="rotate(45 382.119 109.57)" fill="white" fill-opacity="0.12"/>
<rect x="496.645" y="224.096" width="2.33602" height="383.885" transform="rotate(45 496.645 224.096)" fill="white" fill-opacity="0.12"/>
<rect x="296.225" y="23.676" width="2.33602" height="383.885" transform="rotate(45 296.225 23.676)" fill="white" fill-opacity="0.12"/>
<rect x="389.277" y="116.728" width="2.33602" height="383.885" transform="rotate(45 389.277 116.728)" fill="white" fill-opacity="0.12"/>
<rect x="503.803" y="231.254" width="2.33602" height="383.885" transform="rotate(45 503.803 231.254)" fill="white" fill-opacity="0.12"/>
<rect x="303.383" y="30.8337" width="2.33602" height="383.885" transform="rotate(45 303.383 30.8337)" fill="white" fill-opacity="0.12"/>
<rect x="396.435" y="123.886" width="2.33602" height="383.885" transform="rotate(45 396.435 123.886)" fill="white" fill-opacity="0.12"/>
<rect x="510.961" y="238.412" width="2.33602" height="383.885" transform="rotate(45 510.961 238.412)" fill="white" fill-opacity="0.12"/>
<rect x="310.541" y="37.9917" width="2.33602" height="383.885" transform="rotate(45 310.541 37.9917)" fill="white" fill-opacity="0.12"/>
<rect x="425.066" y="152.517" width="2.33602" height="383.885" transform="rotate(45 425.066 152.517)" fill="white" fill-opacity="0.12"/>
<rect x="403.593" y="131.044" width="2.33602" height="383.885" transform="rotate(45 403.593 131.044)" fill="white" fill-opacity="0.12"/>
<rect x="518.118" y="245.57" width="2.33602" height="383.885" transform="rotate(45 518.118 245.57)" fill="white" fill-opacity="0.12"/>
<rect x="317.698" y="45.1497" width="2.33602" height="383.885" transform="rotate(45 317.698 45.1497)" fill="white" fill-opacity="0.12"/>
<rect x="432.225" y="159.675" width="2.33602" height="383.885" transform="rotate(45 432.225 159.675)" fill="white" fill-opacity="0.12"/>
<rect x="410.751" y="138.202" width="2.33602" height="383.885" transform="rotate(45 410.751 138.202)" fill="white" fill-opacity="0.12"/>
<rect x="525.276" y="252.727" width="2.33602" height="383.885" transform="rotate(45 525.276 252.727)" fill="white" fill-opacity="0.12"/>
<rect x="324.856" y="52.3074" width="2.33602" height="383.885" transform="rotate(45 324.856 52.3074)" fill="white" fill-opacity="0.12"/>
<rect x="439.382" y="166.833" width="2.33602" height="383.885" transform="rotate(45 439.382 166.833)" fill="white" fill-opacity="0.12"/>
<rect x="417.908" y="145.359" width="2.33602" height="383.885" transform="rotate(45 417.908 145.359)" fill="white" fill-opacity="0.12"/>
<rect x="532.435" y="259.885" width="2.33602" height="383.885" transform="rotate(45 532.435 259.885)" fill="white" fill-opacity="0.12"/>
</g>
</svg>
